<?xml version="1.0" encoding="utf-8"?>
<!-- Generator: Adobe Illustrator 21.0.2, SVG Export Plug-In . SVG Version: 6.00 Build 0)  -->
<svg version="1.1" id="Layer_1" xmlns="http://www.w3.org/2000/svg" xmlns:xlink="http://www.w3.org/1999/xlink" x="0px" y="0px"
	 viewBox="0 0 600 640" style="enable-background:new 0 0 600 640;" xml:space="preserve">
<style type="text/css">
	.st0{fill:#044520;}
</style>
<path class="st0" d="M300,131.3c20.2,0.4,40.3,1.6,60.3,4.3c24.1,3.2,47.8,8.3,70.4,17.5c24.2,9.8,45.2,24.3,63.5,42.8
	c12.7,12.9,20.5,28.7,25.6,45.9c3.9,13.2,6.1,26.8,7.5,40.5c1.7,17.3,2,34.7,1.5,52.1c-0.6,20.4-2.6,40.7-7.7,60.6
	c-6.8,26.3-20.5,48-42.3,64.4c-13,9.8-26.1,19.2-41.1,25.8c-14.4,6.4-29.4,11-44.8,14.6c-19.9,4.5-40.1,7.2-60.5,8.6
	c-20.7,1.4-41.5,1.5-62.2,0.2C246.5,507,223,503.8,200,498c-19.3-4.9-38.1-11.4-55.1-22c-13.3-8.4-26.3-17.4-37.5-28.7
	c-13.1-13.2-21.6-29-27-46.6c-4.2-13.7-6.5-27.7-7.9-42c-1.8-17.8-2-35.7-1.4-53.6c0.6-20,2.7-39.9,7.8-59.4
	c7.3-28.2,23.1-50.5,46.8-67.4c14.1-10.1,28.5-19.5,44.9-25.8c14.7-5.6,29.8-9.8,45.2-12.9c15.3-3.1,30.7-5.2,46.2-6.2
	C274.5,132.5,287.3,132,300,131.3z M413.3,320.6h0.1c0-11.6,0-23.3,0-34.9c-0.1-13.8-0.4-27.5-2.4-41.2c-2.3-15.1-7.3-29-17-41
	c-12.2-14.9-27.6-25.3-45.4-32.3c-21.8-8.6-44.4-11-67.5-7.8c-21.3,2.9-40.7,10.6-58,23.6c-16.5,12.4-27.9,28.3-32.5,48.7
	c-3.1,13.6-3.9,27.5-4,41.4c-0.2,26.4-0.1,52.9-0.1,79.3c0,13.4,0.4,26.9,2.5,40.2c1.7,10.9,4.7,21.3,10.2,30.9
	c9.4,16.1,23.1,27.7,39.3,36.3c24.1,12.9,49.9,17.3,77,14.2c22.3-2.5,42.6-10.1,60.6-23.5c16.9-12.5,28.6-28.5,33.3-49.3
	c2.8-12.5,3.8-25.3,3.9-38.1C413.4,351.6,413.3,336.1,413.3,320.6z"/>
</svg>
