<?xml version="1.0" encoding="utf-8"?>
<!-- Generator: Adobe Illustrator 21.0.2, SVG Export Plug-In . SVG Version: 6.00 Build 0)  -->
<svg version="1.1" id="Layer_1" xmlns="http://www.w3.org/2000/svg" xmlns:xlink="http://www.w3.org/1999/xlink" x="0px" y="0px"
	 viewBox="0 0 600 640" style="enable-background:new 0 0 600 640;" xml:space="preserve">
<style type="text/css">
	.st0{fill:#231F20;}
	.st1{fill:#FFFFFF;}
	.st2{fill:#CD0000;}
	.st3{fill:#960A2B;}
</style>
<g id="XMLID_1_">
	<path id="XMLID_3_" class="st0" d="M362.1,229c-1,3.4-1.1,6.5-0.7,9.6c0.4,4.1,3.5,6.3,3.5,6.3c1.3-3.5,3.5-3.7,4.3-7.2
		c0.9-5.8-1.2-6.3-1.3-9.6c-0.1-3.3,0.6-7.1,0.6-7.1S363.1,225.6,362.1,229"/>
	<path id="XMLID_4_" class="st0" d="M269.6,235.3c-1.2,4.4,0.6,8.6,2.6,10.6c2,2.1,7.5,4.9,7.5,4.9s-3.9-3.9-3.8-9.6
		c0.1-4.2,5.9-6.5,4.6-12.3c-1.4-5.8-5.5-8.7-5.5-8.7s1.4,3.4,0.7,6.1C274.6,229.7,270.8,230.9,269.6,235.3"/>
	<path id="XMLID_8_" class="st0" d="M338,259.3C328.5,239,326.5,253.3,338,259.3 M197.8,310.5l-0.1,0.5 M255.8,275.5
		c1-13.2-0.1-22.6-4.7-32.6c-3.4-8.2-9.6-16-17.8-20.4c-1.1-0.6-2.5-1.1-3.6-2c-1.1-4.6-3.2-9.1-7-12.4c-3.8-3.2-8.4-4.9-13.3-5.2
		c-14,0.9-24.5,8.2-32.9,17.1l-0.8,0.2c-6,0.8-11.5,2.9-16.4,6.3c-12.2,11.1-25.7,20.6-41,25.4c-0.1,0.2-0.1,0.7,0,0.8
		c5.7,4.4,14.4,4.3,21.2,2.2c9.1-3.6,14-5.4,22-11.7c1.6-1.1,3.1-3.3,3.6-3c-1.7,3-4.6,8.5-5.6,13.8s-6.5,9.5-13.1,13.9
		c0.9,1,3.3-0.4,4.1-0.6s5.1-1.6,9.8-4.4c4.6-2.9,5.9-4.4,9.1-7.4c7.7-8.1,13.4-17.9,16.6-23.7c8.1-0.8,22.8-6.3,27.5-3.4l1.3,0.7
		c-1,1.6-2.6,5-2.6,5l-3.8,8.7c0,0-7.3-0.9-10.8-2.4c-7.5-3.2-9.4-6.9-9.4-6.9s-0.6,5,0.1,7.2c0.7,2.2,3.1,5.4,5.1,6.9
		s9.6,5.5,10.1,7.2c-0.6,1.6-6.5,22.9-8.8,33.9c-0.1,0.3-0.3,1.1-0.8,0.8c-4.6-5.9-9.2-10.4-17.5-11.8c-8.3-1.3-17.1,4.8-23,12.2
		c-4.8,5.9-7.3,14.3-7.3,16.2c-0.4,9.4-9,11.2-9,11.2c-5.3,0.3-8.7-3.9-8.7-3.9s-1.8,9.4,6.7,12.6c2,0.6,6.9-0.2,10.1-6.1
		c1.6-3.7,1.8-7.5,2.3-10.4s1.8-5.5,3.6-8.2c4.7-6,11.7-9.1,19.4-7.7c9.9,2.2,16.5,11.2,23.1,18.3c0.2,0.2,0.4,0.7,0.1,0.9
		c-2.4-0.2-4.7-0.8-7.3-0.8c-8.2-0.2-15.2,2.8-21.6,7.1c-9.6,5.9-15.4,16.2-16.6,27.1c0.1,0.3-0.1,1.2,0.6,1
		c5-11,16.3-18.5,28.4-18.7c8.5-0.4,15.9,3.1,23.1,6.5c0.3,0.2,0.3,0.6,0,0.8c-6.9,2-13.9,3.9-19.3,9.4c-5.4,5.4-7.1,12.7-7.3,20.4
		c0.3,0.8-0.3,2.2,0.7,2.5c4.6-9.7,14.4-17.7,25.2-18.5c1.4,0.1,3.2-0.3,4.4,0.6l-0.1,0.3c-6.1,3.9-12.1,10.1-15,15.5
		c-2.8,5.4-6.7,7-6.5,7.2c7,1.1,9.4,0.9,15.9-1.5c2.7-1.1,7.4-6.7,10.6-7.4c0.8,0.1,5.3-1.3,7.9-0.2c1.8,1.4-4.8,8.5-6.1,8.2
		c-11.7-0.2-13.5,2.2-16.7,6.9c-3.2,4.6-6.8,9.3-12.7,11.2c-1.3,0.7-2.8,0.9-4.1,1.7c0,0.5,12.2,0.3,17-1.8c4.4-1.4,7.5-5.6,12-6.4
		c0,0,1.1,4.7-6.9,11.6c0.2,0.4,8.6-1.1,12.2-4.3c27.5-19.5,8.6-5,3.7,8.1c-0.6,4.3-4,13.7-3.6,14.3c0.5,0.6,7.5-5.7,11.5-7.7
		c4-2.1,3-12,4.6-14.5c6.8-7.5,6.7,1.5,3.7,7.6c5.2-2.7,11.8-10.7,7.4,3.2c-2.1,5.7-4.6,9.6-4.6,9.6s6.5-3.3,10.8-9.7
		c4.4-6.3,5.5-9.9,5.9-11.9c1.5,2.1,0.9,1.9,2.2,5.5c1.5,4.1,1,8,1,8s2.5-1.7,3.9-6.7c1.1-4,0.9-4.5,0.8-4.6
		c5.1-0.2,3.8,8.7,3.8,8.7s3.7,0.3,4.2-5.1c-0.3-1.9,20.9-1.4,25.6,4.6s5.9,5.9,8.4,7.2c2.5,1.3,7.1,1,11,2
		c3.7,0.6,10.8,3.8,13.5,5.6c3.8,4.4-6.1,20.2-10.2,25.5l-0.3,0.3c0.3-0.2,0.6-0.3,0.9-0.5c6.5-3.6,15.6-11.2,16.7-24.2
		c0.1-0.7,4.2-0.5,4.8,0.3c2.6,2.4,3.1,8.4,5,12s10.6,6.5,14.8,3.6c0,0,3.8-2,2.8-4.7c-1.7,1.1-2.7,1.3-4.8,1.5
		c-2.1,0.2-2.8-0.5-4.5-1.6c-1.7-1-1.9-1.4-3-3.3c-1.1-2-1.1-6.9,0.4-8.3c1.4-1.4,5.2-2.6,9.1-2.1s3.6,3.2,3.6,3.2s1.1,4.1-2.2,5.3
		c2.6,1.6,5.2-0.2,5.2-0.2s1,1.4-0.3,5.9c4.4,0.1,5.5-4.6,5.5-4.6s1,0.4,1.2,0.9c1-0.4,0.9-2.2,0.9-2.2s0.9-0.2,1.3,0.7
		c1.8,0.6-0.4-13.1-1.1-14.6s-12.7-10.5-14.8-10.5c-2.2,0-5.2,2.1-8.5,3.6s-7.3,5.3-11.9,4.3c-2.7-2.3-9.2-1.4-9.2-1.4l-5-1.3
		c0,0-4.5-2-4.6-2.8s0.9-2.8,1.6-5.4c0.7-2.7,0.5-4.2,1.5-5s3.7-0.7,5.7-1.8c4.6-4.1,6.4-3.9,10.1-1.1c3.5,2.6,15.8,6.7,21.9,7.4
		c6.2,0.7,13.5,0.7,15.6,0.6s-1.6-3.1-1.9-3.7c0,0,13.4,3.7,22.4,4.4c9,0.7,25.6-0.3,29.9-4.5c0,0-2.8-0.8-4-1.8l0.2-0.2
		c4.5-1.2,27.6,2.9,23.9-7.5c-1-1.1-2.1-0.7-3-1.4c0.3-0.3,26.5-6.2,19.7-8.1c-5.5-0.5-23.9-4-31.8-6.1c-7.9-2.2-18.4-5.3-23.7-7.1
		c-0.6-0.3-1.5-9.2-0.6-8.7c1.6,2.2,2.7,3.6,5.2,5.1c4.7,1.3,11.5,1.4,14.9,1.4s4.4-4.8,5.6-7.6c-0.5,0.6-2.2,1.6-2.7,1.6
		c-3.2,0.8-10.6-0.3-11.5-0.6c-0.9-0.3-3-3.8-2.4-5.6c0.6-1.8,4.2-3.8,4.2-3.8s4.3-0.4,5.8,0s4.9,2.5,5.4,3.4s1.7,3,1.6,4.7
		c1.9-3,0.6-4.7,1.4-5c0.4,0,1.4,0.3,1.6,1.4c0.8-0.4,0.4-4.7,0.8-5.2c0,0,0.8,0.5,1.5,1c0.6-0.7,0.4-4.7-0.2-6.3
		c-0.7-1.5-4.6-5.4-5.3-5.9c-0.7-0.5-1.2-0.5-1.2-0.5s-0.1-0.5,1.4-2.1c1.4-1.7,9.6-3.1,12.1-4.9c1.4-1.1-0.1-1,1.6-2.7
		s9.1-2.3,11.3-11.8c-19.3,5.3-31.3,7-46.9,7s-37-1.9-41-4.5c-1.4-1.2-2.1-3.6-1.6-5.9s3.3-4,5.1-4.7c1.3-0.2,0.7,4.8,0.7,4.8
		s9.4-6.2,13.9-7.9c4.6-1.7,19-3.6,19-3.6c-4.3,5.3-1.5,11.4,2.1,11.5c1.5,0.1,7.9,2,15-5.2c1.5-1.5,4-2.8,4-2.8
		c2.7,0.6,4.6,0.7,4.6,0.7l6-0.1c-4-2-6.5-3-6.6-4.8c0.2-0.2,3.9,1.5,4.4,0.5c-1.8-1-2.8-2.5-2.8-2.5s5.4-0.4,10.8,1.8
		c-3.3-5.6-4.8-5.4-7.4-7c-1.3-0.7-3.8-1.5-5-2.3c-0.7-0.6,0.2-3.2-0.9-5c-2.4-6-5.5-8.7-8.9-10.4c-3.4-1.7-5.8-1.9-8-1.7
		c-2.3,0.3-4.4,1-4.8,3s1,3,1.9,4c0.1,0.2-1.9,0.1-3.8-0.2c-1.9-0.3-8.3,0.6-12.5-1.4c-7-2.2-13.7-16.8-14.9-18.9
		c0.1,3.3-1.6,5.5-1.6,5.5c-2.2,0.5-7.4-8.1-7.4-8.1c-0.5,4.5,0.2,9.7,0.2,9.7c-5.4-4.8-6.7-12.3-6.7-12.3
		c-4.5,1.7-0.2,11.7-0.4,11.8c-3.5-5.2-5.5-6.5-8.5-14.5s-3.6-12.9-3.8-14.4c0,0,1.8-2.2,2.6-3.1c0.8-0.9,3.5-2.5,3.5-2.5
		s-2.1-0.5-3.8-0.3c-1.8,0.3-3.3,0.7-3.3,0.7s-0.4-1.9,0.6-10.3c-5.6,2.4-7.7,10.5-8.1,14.5c-3.5,2.9-5.3,5.9-5.3,5.9
		s-0.3-4.8-3.3-8.3s-4.9-3.6-6.9-6.7c-2-2.3-1.7-9-1.9-8.8c-0.3,1.6-1.8,3.6-1.7,6.6c-0.1,3.1,0.6,4.1,1.8,8.2
		c1.2,4,0.8,8.6-1.9,13.1c-6.5,12.3-1.8-3.3-1.8-6.7c0-5.5-1-9.6-5.1-14.1c-1.3-1.2-3.8-4.2-3.8-4.2c4.8,10.8-0.7,22-0.7,22
		s-1.6-6.2-4.8-9.3c-3.2-3.1-6.7-5.8-6.7-5.8c3.1,8.3,1,19.3,0.3,20c-1.1-1-3-5-5.5-7.3s-6-3.7-6-3.7s1.9,5.4,2,9.7
		c0.1,4.2-1.9,7.3-2.1,13.3c-0.2,6,10.6,17.3,10.6,17.3c-10,0.6-23.3-13.8-23.3-13.8c0.9,12.4,15.1,22.3,15.1,22.3
		c-2.6,0.7-23.3-12.9-26.1-14.3c2.9,12.3,16,23.5,16,23.5c-3.2,1.4-12.3-2.3-12.3-2.3c7.1,15.2,23,13.8,23,13.8
		c0,2.3-20.9,0.4-20.9,0.4c6.2,6.8,21.6,8,21.6,8c-3.8,1.8-15.6,1.3-15.6,1.3c1.9,2.8,6.6,4.7,8.6,6.5c-2.5,0.7-8.3,5.1-13.6,10.2
		c-5.3,5.1-10.9,21-20.6,19.6c-6.2-0.1-17.3-15.7-2.2-40.7C253.9,292.8,254.8,288.6,255.8,275.5"/>
	<path id="XMLID_9_" class="st0" d="M400.1,113.1H205.4l-94,88.3l5.3,46.1l0.7-0.2c12.9-4.1,26.3-12.4,40-24.9
		c5.2-3.6,11-5.9,17.3-6.9c2.5-2.7,5.4-5.3,8.7-7.7l4.8-19.5l218.6-0.5l2.6,33.7l75.7,3.7l-1.1-31L400.1,113.1z"/>
	<path id="XMLID_10_" class="st0" d="M407.8,450.1l-220.2-1.6l-4.2-52.3c-1.9,0-3.6-0.1-5-0.3c-4.8-0.5-9.2-4.3-9.2-4.3
		c0-0.1,6.5-1.2,11.6-4.4c1-0.6,1.9-1.2,2.6-1.8v-7.7c-0.9-0.1-1.8-0.3-2.8-0.5c-2.6-0.4-4.7-2.2-4.7-2.2s-0.5,0.9-2,4.3
		c0,0-1.7-2.3-2.8-5.5s-1.4-8.3-1.4-8.3c0.3-10.2,3.1-17.9,8.6-23.4c1.6-1.6,3.3-2.9,5.1-4v-4.9c-1.8-0.3-3.7-0.5-5.6-0.4
		c-10.6,0.1-19.7,5.4-25.7,16c-3.4,7.5-5.1,14-5.1,14c-0.3,0-2-8.2-2.2-16.6c-0.5-11.6,7.8-24.6,18-30.9c7-4.6,13.6-7.1,20.5-7.6
		v-1.2c-4-4.1-8.3-7.7-13.4-8.8c-5.7-1-11.2,1.2-15.1,6.1c-1.5,2.3-2.4,4.3-2.7,6.3c-0.1,0.6-0.2,1.2-0.3,1.9
		c-0.4,2.7-0.8,6-2.3,9.5c-4.5,8.4-11.6,9.7-15.3,8.6c-9.7-3.7-10.6-13.1-9.8-17.6l1.8-9.3l5.9,7.4c0,0,2,2.3,4.7,2.3
		c1.3-0.4,5.1-1.9,5.3-7c0.1-3.1,3-12.4,8.3-18.9c8-10,18.1-15.2,27.1-13.8c2.1,0.3,4,0.9,5.8,1.5v-29.6c-2.9,3.7-8.8,11.6-11,13.4
		c-0.1,0.1-8.4,5.9-11.4,7.8c-3.1,1.8-11.5,3.7-13.8,4s-6.5,0.2-6.5,0.2c2.5-2.7,5.7-6.8,5.7-6.8s4-5.1,8.1-11.1
		c0,0-1.7,1.4-13.1,5.9c-7.5,2.3-17.6,2.8-24.8-2.4l-3,178.4l88.8,94.1h197.6l83.5-84.8V414l-75.7-0.5L407.8,450.1L407.8,450.1z"/>
	<path id="XMLID_11_" class="st1" d="M394.5,354.6c-0.3,0.1-1.6,0.9-1.5,0.9c-0.1,0.4,2.8,1.3,3.1,1.2c0.2-0.1-0.1-2-0.2-2.4
		C395.8,353.9,394.8,354.4,394.5,354.6"/>
	<path id="XMLID_12_" class="st1" d="M330.5,253.2c1.3,5.8,7.6,6.2,7.6,6.2c-2.8-1.3-6.5-8.8-5.4-14.9
		C332.6,244.4,329.3,247.2,330.5,253.2"/>
	<path id="XMLID_13_" class="st1" d="M218.3,272c-2.2-4.8-2.9-4.2-2.9-4.2s-3.8,7-6,14.7c-2.3,6.8-2.1,16.7-1.3,22
		c2.2,9.3,2.1,12.7,7.5,20.8c-0.3-5.8-3-19.9-1.1-28.5C216.4,288,221.8,278,218.3,272"/>
	<path id="XMLID_14_" class="st1" d="M213.6,212.1c-1.9-2.3-5.1-4-6.6-4c-2.6-0.2-6.3,2-7.9,3.5c-1.6,1.6-4.2,4.6-3.7,5.7
		c1,1.4,6.1,0.1,10.7,0.2c4.4,0.1,8.9,1.6,9.7,0.2C216.1,216.9,215.4,214.4,213.6,212.1"/>
	<path id="XMLID_15_" class="st1" d="M236.3,255.5c-1.3-5.1-3.3-9.9-5.9-14.4c-0.4-0.6-1.4-1.8-2-0.6c-1.2,3.4-3.2,6.6-4.8,9.7
		c-0.4,0.6-0.7,1.5-0.1,2c2,1.3,6.9,6.5,8.6,17.2c1.7,10.7-0.7,21.5-0.7,21.5S240.3,275.5,236.3,255.5"/>
	<path id="XMLID_26_" class="st1" d="M342.5,399.4c-2.1,1.3-3.7,3.1-6,2.3c-4.7-1.9-9.1-1.3-9.1-1.3s-5.2-0.7-5.6-1.8
		c-0.4-1.1,0.5-1.5,0.7-2.4c0.3-1.1-0.1-2,0.5-2.6s3-0.6,4.7-1.6c1.4-0.8,2.5-1.9,3.4-2.8c0.3-0.3-0.1-0.1,1.8,1.3
		c2.5,1.9,9,4.9,14.6,6.1C347.1,396.9,343.5,398.8,342.5,399.4 M369.2,237.7c-0.8,3.5-3,3.7-4.3,7.2c0,0-3-2.2-3.5-6.3
		c-0.4-3-0.4-6.2,0.7-9.6c1-3.4,6.4-8,6.4-8s-0.7,3.8-0.6,7.1C368,231.4,370.1,231.9,369.2,237.7 M357.4,238.3
		c0.1,1.3,1.1,3.6,1.1,3.6l-0.7,0.7c-2.1-5.6-3.4-10.9-3.8-13.1c-0.1-0.4,4.6-3.6,4.6-3.6l-0.4,1.1
		C357.2,230.7,356.9,234.5,357.4,238.3 M284.3,247.7c-1.1-0.7-3.3-3.9-3.2-7c0-0.4,3.4-5.3,4.1-7.1c0.3,1.4,0.8,3.4,0.9,4.7
		C286.2,239.7,284.6,246,284.3,247.7 M279.7,250.9c0,0-5.5-2.8-7.5-4.9c-2-2.1-3.8-6.2-2.6-10.6c1.2-4.4,5-5.6,6.1-9
		c0.6-2.7-0.7-6.1-0.7-6.1s4.1,3,5.5,8.7c1.4,5.8-4.5,8-4.6,12.3C275.8,246.9,279.7,250.9,279.7,250.9 M268.2,279.5l-7.2-3
		c0-0.3,0.3-6.8,0.4-9.2C264.3,275.4,268.2,279.5,268.2,279.5 M269.7,294l-10.2-0.9l7.6,8.3c0.6,0.7,1.8,1.6,1.8,1.6l-2-0.1
		c0,0,3.6,4.9,5.1,6.7c1.6,1.9,3.1,3.1,4.8,4.4c-2.9,2.2-6,4.9-8.5,7.3c-2,1.9-3.8,4.7-5.7,7.6c-3.3,5.1-7.9,11.3-11.9,10.8
		c-0.5-0.1-2.3-1.2-3.8-4.2c-1.7-3.6-4.7-13.7,5.2-30c6.1-10.4,7.7-15.9,8.7-26.8l3.5,7.4C267.9,292.5,269.7,294,269.7,294
		 M183.4,362c1.6-1.7,3.5-3.4,5.6-4.5c-1.8,2.2-3.3,4.4-4.5,6.5c-0.4,0.7-0.8,1.3-1.2,1.8c-1.4,2-2.9,3.2-3.5,3.6
		c-0.7,0.5-1.8,0.3-1.9,0.4C178,369.8,180,365.7,183.4,362 M218.8,387.3c1.2-0.1,2.5-0.3,3.6-0.6c-0.1,0.3-0.3,0.6-0.5,0.8
		c-0.4,0.4-4.3,2.7-5.2,3.3C217,390.4,218.4,388,218.8,387.3 M462.6,368.1c-4.7-0.4-17.9-2.7-29.8-6.4l-4.1-1.3
		c3-1.3,4.6-4.2,5.7-6.1c0.3-0.6,2.2-4,2.5-4.7c0.3-0.6-1.8-0.6-1.2-1.3c0.5-0.1,0.9-0.3,1.4-0.6c3.2-1.7,1.7-3.7,2.7-4.5
		c0.4-0.3,0.7-0.6,0.9-0.9c2.1-2.7,0.7-7.1-0.2-9.4c-1.1-2.7-3.6-4.7-3.6-4.7c0.6-0.2,1.3-0.4,1.8-0.6c2.9-0.9,5.6-1.8,7.4-3.1
		c1.6-1.2,2.3-3.1,2.3-3.1c0.2-0.1,0.4-0.2,0.6-0.3c3.1-1.4,9.5-4.3,11.7-13.6l1.6-7.1l-7,1.9c-18.7,5.1-30.3,6.7-45.9,6.8
		c-17.7,0.2-34.5-2.4-34.5-2.4c2.5-1.7,9.7-6.2,13.1-7.5c3-1.1,8.3-2.5,11-2.2c0,1.7,0.3,3.4,1,5c1.5,3.2,4.3,5.3,7.3,5.4
		c0.1,0,10.5,1.5,18.4-6.5c0.8-0.8,1.1-1.4,1.7-1.3c2.1,0.4,3.5,0.5,4,0.5l16.3-0.4l-6.3-5.2l11.9,4.9l-6.5-11.1
		c-3-5.2-5.1-6.5-7.7-7.8c-0.4-0.2-4.4-1.2-4.4-2.1c0-1.1-0.2-2.6-0.9-4c-2.5-6-5.8-9.9-10.9-12.4c-3.7-1.8-6.9-2.5-10.5-2.1
		c-6.5,0.7-8,3.5-8.9,6.7c-2.3,0-4.7,0.3-8.6-1.1s-16.7-23.7-16.9-24c0,0-0.6,3.7-1.6,8.7c-0.9-1.2-4.1-6-4.1-6c1-1.5,2-4,2.5-6.6
		c0.7-4.4,0-6.7-0.8-8.8c-0.3-0.8-0.4-1.1-0.4-1.5c-0.1-2.8,2.6-18.1,2.6-18.1s-9.6,8.2-12.6,10.8c-2.4-0.6-7.7-1.9-9.5-1.9l0.4-4.8
		l0.8-7.4l-6.8,2.9c-6.8,2.9-9.4,10.8-10.3,15.2c-0.7-0.9-1.4-1.9-1.4-1.9c-1.7-2-3.1-3.1-4.2-4c-1-0.7-2.3-2.4-2.6-2.7
		c-0.2-0.3-1.6-5.2-1.6-11.9c-0.1-2.5-0.4-7.3-0.4-7.3s-7.8,12.9-8,13.2c-0.6,1.5-1.2,3.8-1.2,3.8s-2.8-3.3-5.3-5.3
		s-12.3-8.2-12.3-8.2l6.9,14.3c2.4,4.6,1.7,8,1.7,8c-3.4-3.3-7.2-6.2-7.4-6.3l-11.7-8.8l5,13.7c0.9,2.4,1.2,5.2,1.3,7.8
		c-2.5-2-6.5-4-6.9-4.2c0,0-4.1-1.7-6.7-2.7c-2-3.3-4.5-5.4-4.8-5.6l-12-8.7L272,221c0.4,0.9,0.7,2.6,0.6,3.1
		c-0.2,0.6-0.9,1.3-1.7,2.1c-1.5,1.5-3.5,3.6-4.5,7.1c-1.6,6,0.3,11.5,4.5,15.7l1.5,13.4c-3.4-1.8-11.6-6.3-11.6-6.3
		c-0.8-5.4-2.5-10.7-4.8-15.7c-4-9.8-11.4-19.3-21.8-23.6c-1.6-5.5-4.3-9.7-8-12.9c-4.4-3.8-10-5.9-16.3-6.2
		c-5.1,0.1-10.3,1.4-15.1,3.5c-4.1,1.7-7.9,4-11.4,6.5c-3.3,2.4-6.2,5-8.7,7.7c-6.3,0.9-12.1,3.3-17.3,6.9
		c-13.7,12.5-27.1,20.9-40,24.9l-0.7,0.2l-7.6,1.9c1.5,2.3,6.9,6.4,6.9,6.4c0.2,0.2,0.5,0.3,0.7,0.4c7.2,5.1,17.3,4.7,24.8,2.4
		c11.4-4.5,13.1-5.9,13.1-5.9c-4.2,6.1-8.1,11.2-8.1,11.2s-3.3,4.1-5.7,6.8c0,0,4.2,0.1,6.5-0.2c2.3-0.3,10.7-2.2,13.8-4
		c3.1-1.9,11.3-7.7,11.4-7.8c2.2-1.8,8-9.7,11-13.4c1-1.3,1.7-2.1,1.8-2c1.4,3,4,6,6.2,7.6c0.3,0.2,1.9,1.2,3.5,2.2
		c1.9,1.2,3.9,2.5,4.3,2.8c-1.1,3.9-2.8,10.8-4.3,16.4c-1.1,4.1-1.9,7.4-2.3,8.4c-2.5-2.4-5.4-4.4-9.1-5.8c-1.7-0.7-3.7-1.2-5.8-1.5
		c-9-1.4-19.1,3.8-27.1,13.8c-5.3,6.5-8.3,15.8-8.3,18.9c-0.2,5-4,6.6-5.3,7c-2.7,0-4.7-2.3-4.7-2.3l-5.9-7.4l-1.8,9.3
		c-0.8,4.5,0.1,13.9,9.8,17.6c3.7,1.1,10.8-0.2,15.3-8.6c1.5-3.4,1.9-6.8,2.3-9.5c0.1-0.7,0.2-1.3,0.3-1.9c0.3-2,1.2-3.9,2.7-6.3
		c3.8-4.9,9.4-7.1,15.1-6.1c5.1,1.1,9.4,4.7,13.4,8.8c0.3,0.4,0.7,0.7,1,1.1c-0.3,0-0.7,0.1-1,0.1c-6.9,0.5-13.5,3-20.5,7.6
		c-10.3,6.3-18.5,19.3-18,30.9c0.1,8.4,1.8,16.6,2.2,16.6c0,0,1.7-6.5,5.1-14c6-10.6,15.2-15.9,25.7-16c1.9-0.1,3.8,0.1,5.6,0.4
		c2.1,0.4,4.2,1,6.3,1.7c-2.1,0.9-4.2,1.9-6.3,3.2c-1.8,1.1-3.5,2.4-5.1,4c-5.5,5.5-8.3,13.2-8.6,23.4c0,0,0.4,5.1,1.4,8.3
		c1.1,3.2,2.8,5.5,2.8,5.5c1.4-3.4,2-4.3,2-4.3s2.1,1.7,4.7,2.2c1,0.2,1.9,0.4,2.8,0.5c2.6,0.4,4.7,0.5,6.4,0.5
		c-2.1,2.9-3.4,4.9-6.4,7.2c-0.8,0.6-1.6,1.2-2.6,1.8c-5.1,3.1-11.6,4.3-11.6,4.4c0,0,4.3,3.8,9.2,4.3c1.4,0.1,3.2,0.3,5,0.3
		c3.6,0.1,7.8-0.4,11.4-2.1c0.8-0.4,1.6-0.8,2.3-1.4c0,0,0.3,2.2-2.3,5.1c-0.4,0.5-0.9,0.9-1.5,1.4l1.5,0.2l4,0.5
		c2.2,0.5,8.6-0.9,13.1-3.4c-0.3,0.7-0.6,1.5-0.7,2.4c-0.3,1.8-1.3,5.3-2.1,8.1c-1.7,5.8-2.6,12.3-2.6,12.3s8.4-1.8,12.4-4.8
		c2.2-1.6,4.8-3.6,6.6-4.5c2.5-1.3,3.8-3.6,4.6-6.1c0,0,3.3-0.5,4.2-0.8c-1.7,4-3.4,6.6-3.4,6.6l-9.3,14l14.9-7.7
		c0.3-0.2,7.5-3.9,12.4-11.1c0.5-0.7,0.9-1.3,1.3-1.9c0,0.3-1.2,10-1.2,10l7.9-5.4c0.3-0.2,1.2-0.9,2.2-2.1l3.5,0.3
		c2.7,0.2,6.7-1.4,8.3-6.2c5.1-0.3,16.3,1.2,18.4,3.9c4.3,5.6,6.3,6.8,9,8c2.2,1.1,5.6,1.8,8.3,2.1c1.6,0.2,3.2,0.4,5,0.8
		c3,0.5,10.5,3.6,10.6,4.3c0,1.6-0.9,5.6-5.9,14.7c-0.8,1.4-1.2,2.3-4.6,8.5c0,0,1.3-0.2,2.9-0.6c4.1-5.3,14-21,10.2-25.5
		c-2.7-1.8-9.8-5-13.5-5.6c-4-1-8.5-0.8-11-2c-2.5-1.3-3.8-1.2-8.4-7.2s-25.9-6.5-25.6-4.6c-0.5,5.4-4.2,5.1-4.2,5.1
		s1.3-8.9-3.8-8.7c0.1,0.1,0.3,0.6-0.8,4.6c-1.4,4.9-3.9,6.7-3.9,6.7s0.5-3.8-1-8c-1.3-3.6-0.7-3.4-2.2-5.5c-0.3,2-1.5,5.5-5.9,11.9
		c-4.4,6.3-10.8,9.7-10.8,9.7s2.5-3.8,4.6-9.6c2.1-5.8,0.6-10.3,0.6-10.3s-0.9,2.5-3.5,4.7s-4.4,2.4-4.4,2.4c1.3-2.6,3-7,2.8-11
		c-0.4-0.5-1.1-0.2-1.6,0c-1.7,1-3.3,0.8-4.9,3.4c-1.6,2.5-0.5,12.4-4.6,14.5c-4,2.1-11.1,8.3-11.5,7.7c-0.5-0.6,3-10,3.6-14.3
		c0.6-4.2,8.9-6.8,10.6-9.2c1.7-2.4,3.1-7.8,2.4-8.9c-0.7-1-5.8,1.8-10.4,1.8c-2.1,0.2-4.2,6.4-6.2,8.2c-3.5,3.2-12,4.8-12.2,4.3
		c8-6.9,6.9-11.6,6.9-11.6c-4.5,0.8-7.6,4.9-12,6.4c-4.8,2.1-17.1,2.3-17,1.8c1.3-0.8,2.8-1,4.1-1.7c5.9-1.9,9.5-6.6,12.7-11.2
		s5-7,16.7-6.9c1.3,0.3,7.9-6.7,6.1-8.2c-2.6-1.1-7.1,0.3-7.9,0.2c-3.2,0.6-7.9,6.2-10.6,7.4c-6.6,2.4-8.9,2.6-15.9,1.5
		c-0.2-0.2,3.7-1.7,6.5-7.2c2.8-5.4,8.9-11.6,15-15.5l0.1-0.3c-1.1-0.9-3-0.5-4.4-0.6c-10.8,0.8-20.6,8.9-25.2,18.5
		c-1-0.3-0.4-1.7-0.7-2.5c0.2-7.7,1.9-15,7.3-20.3c5.4-5.4,12.4-7.4,19.3-9.4c0.3-0.3,0.3-0.6,0-0.8c-7.1-3.4-14.5-7-23.1-6.5
		c-12.1,0.2-23.4,7.6-28.4,18.7c-0.6,0.3-0.4-0.6-0.6-1c1.2-10.9,7-21.2,16.6-27.1c6.4-4.2,13.3-7.3,21.6-7.1c2.6,0,4.9,0.6,7.3,0.8
		c0.4-0.2,0.2-0.7-0.1-0.9c-6.6-7.1-13.2-16.2-23.1-18.3c-7.7-1.4-14.7,1.6-19.4,7.6c-1.8,2.7-3.1,5.3-3.6,8.2
		c-0.5,2.9-0.7,6.6-2.3,10.3c-3.2,5.9-8.1,6.7-10.1,6.1c-8.5-3.2-6.7-12.6-6.7-12.6s3.4,4.2,8.7,3.9c0,0,8.6-1.8,9-11.2
		c0-1.9,2.5-10.3,7.3-16.2c5.9-7.5,14.7-13.5,23-12.2s12.8,5.9,17.5,11.8c0.5,0.3,0.7-0.4,0.8-0.8c2.2-11,8.2-32.3,8.8-33.9
		c-0.5-1.7-8.1-5.8-10.1-7.2s-4.5-4.6-5.1-6.9c-0.7-2.3-0.1-7.2-0.1-7.2s1.8,3.7,9.4,6.9c3.4,1.5,10.8,2.4,10.8,2.4l3.8-8.7
		c0,0,1.6-3.4,2.6-5l-1.3-0.7c-4.7-2.9-19.4,2.5-27.5,3.4c-3.2,5.7-8.9,15.6-16.6,23.7c-3.2,3-4.5,4.5-9.1,7.4
		c-4.6,2.9-9,4.2-9.8,4.4c-0.8,0.2-3.2,1.6-4,0.6c6.6-4.5,12.1-8.6,13.1-13.9c1-5.3,4-10.9,5.6-13.8c-0.4-0.3-2,1.9-3.6,3
		c-8,6.3-12.9,8-22,11.7c-6.8,2.1-15.5,2.2-21.2-2.2c-0.1-0.2-0.1-0.6,0-0.8c15.3-4.8,28.8-14.3,41-25.4c4.9-3.4,10.4-5.5,16.4-6.3
		l0.8-0.3c8.4-8.9,18.9-16.2,32.9-17.1c4.9,0.2,9.5,1.9,13.3,5.1c3.9,3.3,5.9,7.8,7,12.4c1.1,0.9,2.5,1.4,3.6,2
		c8.3,4.4,14.5,12.1,17.8,20.4c4.7,10,5.7,19.4,4.7,32.6c-1,13.2-1.9,17.3-8.3,28.2c-15.1,25-4,40.6,2.2,40.7
		c9.7,1.4,15.3-14.4,20.6-19.6c5.3-5.1,11.1-9.5,13.6-10.2c-2.1-1.8-6.7-3.7-8.6-6.5c0,0,11.8,0.5,15.6-1.3c0,0-15.3-1.2-21.6-8
		c0,0,20.9,1.9,20.9-0.4c0,0-15.8,1.5-23-13.8c0,0,9.1,3.7,12.3,2.3c0,0-13.2-11.2-16-23.5c2.8,1.4,23.5,15,26.1,14.3
		c0,0-14.2-9.8-15.1-22.3c0,0,13.3,14.4,23.3,13.8c0,0-10.7-11.3-10.6-17.3c0.2-6,2.2-9.1,2.1-13.3c-0.2-4.3-2-9.7-2-9.7
		s3.5,1.4,6,3.7s4.5,6.4,5.5,7.3c0.7-0.7,2.7-11.7-0.3-20c0,0,3.5,2.6,6.7,5.8c3.2,3.1,4.8,9.3,4.8,9.3s5.5-11.2,0.7-22
		c0,0,2.5,3,3.8,4.2c4.1,4.6,5.1,8.6,5.1,14.1s-2.9,9.3-1.7,12.4c0,0,0.8-1.2,3.5-5.7s3.1-9.1,1.9-13.1c-1.2-4.1-1.8-5.1-1.8-8.2
		c-0.1-3,1.4-5,1.7-6.6c0.1-0.2-0.1,6.5,1.9,8.8c2,3.1,3.9,3.2,6.9,6.7s3.3,8.3,3.3,8.3s1.8-3,5.3-5.9c0.4-4,2.5-12.1,8.1-14.5
		c-0.9,8.4-0.6,10.3-0.6,10.3s1.5-0.4,3.3-0.7s3.8,0.3,3.8,0.3s-2.7,1.6-3.5,2.5s-2.6,3.1-2.6,3.1c0.3,1.5,0.8,6.4,3.8,14.4
		s5.1,9.4,8.5,14.5c0.1-0.1-4.1-10.1,0.4-11.8c0,0,1.3,7.5,6.7,12.3c0,0-0.7-5.3-0.2-9.7c0,0,5.2,8.7,7.4,8.1c0,0,1.7-2.2,1.6-5.5
		c1.2,2.1,7.8,16.7,14.9,18.9c4.2,2,10.6,1.1,12.5,1.4s3.8,0.4,3.8,0.2c-0.9-1-2.3-2-1.9-4s2.5-2.7,4.8-3c2.3-0.2,4.7,0,8,1.7
		c3.4,1.7,6.5,4.3,8.9,10.4c1,1.8,0.2,4.4,0.9,5c1.1,0.8,3.6,1.6,5,2.3c2.6,1.6,4.1,1.4,7.4,7c-5.3-2.2-10.8-1.8-10.8-1.8
		s1,1.5,2.8,2.5c-0.5,1-4.2-0.7-4.4-0.5c0.1,1.8,2.6,2.7,6.6,4.8l-6,0.2c0,0-1.8-0.1-4.6-0.7c0,0-2.5,1.3-4,2.8
		c-7.1,7.2-13.5,5.3-15,5.2c-3.5-0.1-6.4-6.3-2.1-11.5c0,0-14.4,1.9-19,3.6s-13.9,7.9-13.9,7.9s0.6-5.1-0.7-4.8
		c-1.8,0.8-4.6,2.4-5.1,4.7c-0.5,2.3,0.1,4.8,1.6,5.9c3.9,2.6,25.4,4.5,41,4.5s27.6-1.7,46.9-7c-2.2,9.5-9.7,10.1-11.3,11.8
		c-1.7,1.7-0.1,1.6-1.6,2.6c-2.5,1.8-10.7,3.3-12.1,4.9c-1.5,1.7-1.4,2.1-1.4,2.1s0.5,0.1,1.2,0.5c0.7,0.5,4.6,4.3,5.3,5.9
		c0.6,1.5,0.8,5.5,0.2,6.3c-0.7-0.5-1.5-1-1.5-1c-0.4,0.6,0.1,4.8-0.8,5.2c-0.2-1.1-1.2-1.4-1.6-1.4c-0.8,0.3,0.5,2.1-1.4,5
		c0.1-1.7-1.1-3.8-1.6-4.7c-0.5-0.9-3.9-3-5.4-3.4s-5.8,0-5.8,0s-3.6,2.1-4.2,3.8c-0.6,1.8,1.5,5.3,2.4,5.6
		c0.9,0.3,8.3,1.4,11.5,0.6c0.5,0,2.2-1,2.7-1.6c-1.2,2.8-2.2,7.6-5.6,7.6s-10.2-0.1-14.9-1.4c-2.4-1.4-3.6-2.9-5.2-5.1
		c-0.9-0.5,0,8.4,0.6,8.7c5.3,1.8,15.8,5,23.7,7.1c7.9,2.2,26.3,5.7,31.8,6.1c6.7,1.8-19.5,7.7-19.7,8.1c0.9,0.7,2.1,0.3,3,1.4
		c3.7,10.4-19.4,6.4-23.9,7.5l-0.2,0.2c1.1,0.9,4,1.8,4,1.8c-4.2,4.2-20.9,5.1-29.9,4.5s-22.4-4.4-22.4-4.4c0.3,0.6,4,3.6,1.9,3.7
		s-9.4,0.1-15.6-0.6c-6.1-0.7-18.4-4.8-21.9-7.4s-4.3-2.9-5.5-2.6c-1.1,0.4-2.6,2.5-4.6,3.7s-4.6,1-5.7,1.8c-1,0.8-0.8,2.3-1.5,5
		c-0.7,2.6-1.7,4.6-1.6,5.4s4.6,2.8,4.6,2.8l5,1.3c0,0,6.5-1,9.2,1.4c4.6,1,8.6-2.8,11.9-4.3s6.3-3.6,8.5-3.6s14.1,9,14.8,10.5
		c0.7,1.5,3,15.1,1.1,14.6c-0.4-0.9-1.3-0.6-1.3-0.6s0.1,1.8-0.9,2.2c-0.1-0.5-1.2-0.9-1.2-0.9s-1.1,4.7-5.5,4.6
		c1.3-4.5,0.3-5.9,0.3-5.9s-2.6,1.8-5.2,0.2c3.4-1.2,2.2-5.3,2.2-5.3s0.2-2.8-3.6-3.2c-3.8-0.5-7.6,0.6-9,2.1
		c-1.4,1.4-1.5,6.3-0.4,8.3s1.4,2.3,3,3.4c1.7,1.1,2.4,1.8,4.5,1.6c2.1-0.2,3.1-0.3,4.8-1.5c1,2.6-2.8,4.7-2.8,4.7
		c-4.2,2.8-12.9,0-14.8-3.6c-1.8-3.6-2.3-9.6-5-12c-0.6-0.8-4.8-1-4.8-0.3c-1.1,13-10.2,20.7-16.7,24.2c2.1-0.4,4.7-1,6.3-1.7
		c3-1.3,2.2-1.1,5-2.9s9.1-10.1,9.7-13.5c0.1-0.8,1.8,6.2,2.8,8c1.5,2.9,5.1,5.4,9.6,6.6c4.4,1.1,8.6,0.7,11.5-1.3l3.7-3.6l2.9-0.7
		c4.4-1,5.2-4.7,5.5-4.6c0.8,0.2,2.2,0.6,2.4,0.5l1.8-2.1c3.5-4.1-0.8-19.1-0.8-19.2c-0.5-1.1-4-4.4-7.7-7.2c2.6,0,5.4,0.1,6.3,0
		c2.1-0.1,3.8-2.1,3.8-2.1c4.8,1.1,11.1,2.4,16.2,2.7c6.6,0.5,27,0.4,33.3-5.7c0,0,0.3-0.9,0.8-0.9c7.7,0.1,16,0,19.6-4.9
		c1.1-1.6,1.4-5.8,1.4-5.8c13.9-3.8,17.5-5.5,17.6-9.7C466.9,372.2,466.6,369.2,462.6,368.1"/>
	<path id="XMLID_27_" class="st1" d="M423.1,338.2c-2.2-0.3-4.5,1.5-4.5,1.5s3.5-0.1,4.4,0.2c0.9,0.3,4.1,1.7,6,3.7
		c0.5,0.5,0.8,0.9,1.2,2.1c0.4-1.6,0.1-2.6-0.3-3.1C429,341.3,425.2,338.5,423.1,338.2"/>
	<path id="XMLID_28_" class="st1" d="M418.7,332.5c0.8-0.2,7.6-0.3,8.7,0.5s6.2,4.5,6.7,6.3c0.3-1.8,0.3-2.9-0.4-3.8
		c-0.8-1.4-4.2-4.7-5.3-5.4c-1-0.7-12.3-1-13.9,0.1s-6.5,6.2-6.5,6.2s-4.5,4.5-5.6,4.8s-1.1,0.2-1.7,0.4c-0.6,0.2,1,8,1.5,8
		c0.6,0,2.3-1.3,2.9-0.8c0.7,0.5,1.6,1.8,1.6,1.8s2.4,2.4,3.6,3.5c0.3,0.4,9.7,1.6,14.1,1.5c0.8,0,2.4-3.1,2.4-3.1
		c-2.4,1.5-11.7,0-12.8-0.4c-1.1-0.4-3.8-5.5-3.5-7.5s5.3-5.3,5.3-5.3s2.5-1.8,3.3-2.1c1.4-0.6,3.3-0.6,3.3-0.6s1.7,0.2,3.2,0.7
		s6.1,3.9,6.6,5.9c0.4-1.8,0.4-3.5-0.3-3.9c-0.8-1.2-4.7-4.7-5.7-5.2s-8.6-0.4-8.7-0.6C417.5,333.3,417.9,332.6,418.7,332.5"/>
	<path id="XMLID_29_" class="st1" d="M398.9,342c-0.9-0.2-2.9,0.7-4.5,1c-1.3,0.2-2.4,2.2-2.7,2.9c-0.3,0.7,0.6,1.8,1.1,3.5
		c0.4,1.8-0.2,4,0.5,4s1.5-1.3,2.7-1.7c1.2-0.4,3.5-0.6,4.2-0.9c0.6-0.3,0-2.2-0.2-3.7C399.8,345.7,399.8,342.2,398.9,342"/>
	<path id="XMLID_30_" class="st1" d="M398.2,357.3c-0.3,1,3.5,1.8,4.2,1.4c0.6-0.3-0.1-5.4-0.3-6.5c-0.2-1.1-3.5,0.1-4.3,0.4
		C396.8,353,398,357.1,398.2,357.3"/>
	<path id="XMLID_31_" class="st1" d="M390.8,354.3c0.6-3.7-0.1-7.1-1.4-7.2c-1.5-0.3-9.9,1.3-10.3,2
		C378.7,349.9,390.5,355.2,390.8,354.3"/>
	<path id="XMLID_32_" class="st1" d="M319.4,404.2c-1.9-0.9-3.4-2.3-4.2-2.3c-0.8,0-4.4,5.2-4.3,5.9c0.1,0.7,3.8,1.4,6,2.3
		s5.2,2.3,5.9,2.3s3-5.4,2.2-6.4C324.5,405.2,321.2,405.1,319.4,404.2"/>
	<path id="XMLID_33_" class="st1" d="M330.5,416.5c0,0-2.3,0.6-3.7-0.1c1.6,6.9-8.1,20.8-8.1,20.8
		C321.1,436.6,329.7,428.7,330.5,416.5"/>
	<path id="XMLID_34_" class="st1" d="M334.7,414.7c0.8,0.3,3.2-0.3,4.9,3.4c1.8,3.2,2.7,9.8,4.5,11.3s1.9,2,6.3,2.9
		c4.2,0.4,6-0.2,6.2-1.3c-5.1,1-7.6-1.3-7.6-1.3s-2.7-1.7-3.7-4s-1.4-6.2-0.7-7.8c0.6-1.6,1.2-3.5,3.4-4.3c1.5-0.6,3.5-1.4,6.1-1.4
		s5.1,0,7.1,2.2c0.7,1,0.9,3,0.9,3.5c0.3,2.6-0.8,3.8-0.8,3.8s2.2,0.4,2.7-1.8c0.7,1.8,1,2.8,1.1,6.3c0,0,3.4-2.8,2.3-6.7
		c0,0-1-5.5-3.1-8c-2-2.4-7.1-4.8-9-4.9c-1.8-0.1-8.1,3.4-8.7,2.6s6.9-5.2,9.5-5.1c2.6,0.2,8,4.4,9.6,6.2c1.7,2.3,2.9,7.2,3.2,11.1
		c3.4,0.3,1.3-10-0.4-12.2c-1.1-1.3-10.7-9.3-13.5-8.8s-11.5,5.8-13.9,7c-2.7,1.2-5.4,0.3-5.9,0.5c-0.6,0.2,0.5,1.8,0,3.8
		C334.6,413.4,333.9,414.4,334.7,414.7"/>
	<path id="XMLID_35_" class="st1" d="M332.3,414.7c1-0.4,1.8-5.5,1.4-7.1c-0.3-1.6-5.9-1.8-6.9-1.3c-0.7,0.1-0.9,2.5-1.3,3.7
		c-0.6,1.8-1.7,2.9-1.2,3.5C325.1,415.3,330.1,415.5,332.3,414.7"/>
	<path id="XMLID_36_" class="st1" d="M431.3,288.3c1-0.1,3.8,0.3,5.1,0.5c1.3,0.1,3.3,0.9,3.3,0.9s-0.6-1.9-4.3-3.8
		c-1.8-0.9-3.9-2.1-5.2-1.8c-1.3,0.3-3.9,4-4.4,5.5s-0.4,4.6,2.3,5.5c3,0.7,4.8,0.4,4.8,0.4s-3.9-0.6-5.3-4
		C426.9,289.2,430.2,288.4,431.3,288.3"/>
	<path id="XMLID_37_" class="st2" d="M185.2,243.3c-0.1-0.1-0.8,0.7-1.8,2v29.6c3.7,1.4,6.6,3.5,9.1,5.8c0.3-1,1.2-4.3,2.3-8.4
		v-19.2c-1.6-1-3.2-1.9-3.5-2.2C189.2,249.3,186.6,246.3,185.2,243.3"/>
	<path id="XMLID_38_" class="st2" d="M490.7,189.6l-85.9-83.4H200.7l-95.4,92.7v240.2l95.4,92.7h204.1l85.9-83.4V408h-89.5v35.3
		H194.8v-43.9l-1.5-0.2c0.6-0.5,1.1-1,1.5-1.4v-3.7c-3.6,1.7-7.8,2.1-11.4,2.1v58.2h229.2v-35.3h66.7v24.7l-79.2,76.9H205.5
		l-88.8-86.2V256.1c-0.2-0.2-0.5-0.3-0.7-0.4c0,0-5.4-4.1-6.9-6.3l7.6-1.9v-44l88.8-86.2h194.7l79.2,76.9v24.7h-66.7v-35.3H183.4
		v24.3c3.5-2.5,7.4-4.8,11.4-6.5v-6.7h206.4V230h89.5L490.7,189.6L490.7,189.6z"/>
	<path id="XMLID_39_" class="st3" d="M184.4,307.7c-0.3-0.4-0.7-0.7-1-1.1v1.2C183.7,307.7,184.1,307.7,184.4,307.7"/>
	<path id="XMLID_40_" class="st3" d="M189.7,334.9c-2.1-0.7-4.2-1.3-6.3-1.7v4.9C185.4,336.9,187.5,335.8,189.7,334.9"/>
	<path id="XMLID_41_" class="st3" d="M183.4,385.4c3-2.3,4.3-4.3,6.4-7.2c-1.7,0-3.8-0.1-6.4-0.5V385.4z"/>
	<path id="XMLID_42_" class="st3" d="M183.4,362v3.8c0.4-0.6,0.8-1.1,1.2-1.8c1.1-2.1,2.7-4.3,4.5-6.5
		C186.9,358.6,185,360.3,183.4,362"/>
	<path id="XMLID_43_" class="st2" d="M188.4,214.3c-1.6,0.8-3.8,2.1-6.9,5.1c-4.2,3.7-8.2,11.8-8.9,13s-9,14.3-9.5,20.1
		c-1.3,7.2-5.4,9.5-5.4,9.5c4.2-2,11.1-9.2,14.7-14.1c5.3-6.7,8.7-13.5,12.8-21.1c2-3.5,6.2-10.5,9-13.6
		C195.2,212.1,190,213.5,188.4,214.3"/>
	<path id="XMLID_44_" class="st2" d="M222.2,244.5c2.9-4.8,5-10,5.4-15.9c-0.3-3.5,0.1-7.1-1.6-10.2c-2.7-5.9-4.5-7.8-7-9.6
		c-2.6-1.8-8.9-3.7-8.8-2.5c-0.2,1.2,6.9,1,9.3,13.4c1,5.7-0.6,7.7-3,13c-1.2,2.1-2.2,4.3-3,6.6c-6.5,14.8-11.6,30.2-14.5,46.6
		c-1.1,3-1,13.4-0.4,16.5c2.7,13,6.8,20.7,14.1,31.7c4.3,6.8,15.2,13.3,25,15.4c-20.6-12.3-23.4-20.2-23.4-20.2s-16-25-5.6-52.9
		C212.6,265.7,216.8,254.8,222.2,244.5"/>
	<path id="XMLID_45_" class="st2" d="M192.9,220.7c-0.9,0.6-1.7,1.5-3,3.4c-0.1,0.3-2.5,3.8-2.2,4.1c8.2,0.2,20.1-6.3,27.9-1.6
		c0.8-0.2,0.7-2.3,0.8-2.9c-0.2-1,0.2-2.5-1-3c-3.3-0.5-7-0.7-10.5-0.8C201.9,220.1,193.8,220.1,192.9,220.7"/>
	<path id="XMLID_46_" class="st2" d="M168.4,232.2c1.1-1,1.9-3.7,3.1-5.7c0,0,0.7-0.9-1-0.8c-3.5,0.2-8.1,3.4-12.8,6.6
		c-8.4,7.9-17.6,14.9-27.8,19.1c-1.3,0.8-2.9,0.9-4,1.7c7,0.3,13.2-2,19.2-4.7C154.1,244.5,166.4,234.5,168.4,232.2"/>
	<path id="XMLID_47_" class="st2" d="M211.6,338.3c0,0-7.8-15-10.9-18.6c-3.1-3.6-13.8-5.1-21.4-2.8c-7.6,2.3-12.1,4.5-19.3,11
		c-1,1.3-2.8,2.7-3.2,4.4l1.1-0.6C167.8,324.6,182.7,320,211.6,338.3"/>
	<path id="XMLID_48_" class="st2" d="M363.3,229.5c-0.8,1.9-1.2,4.5-0.6,9c0.5,3.4,1.9,4.3,1.9,4.3c1-2.7,3.6-3,3.6-6.7
		c0.1-3.4-0.8-3.7-1.3-6.9c-0.4-2.3,0.1-5.2,0.1-5.2S364.1,227.6,363.3,229.5"/>
	<path id="XMLID_49_" class="st2" d="M336.3,237.7c-1.7,2.7-2.4,7.9-1.9,11.4c0.6,3.5,3.1,8.6,5.1,9.4c2,0.8,3.5,0.1,6.1,1
		c2.7,0.9,5.5,1.7,5.5,1.7c-2.2-2-8.3-6.9-8.9-9.4c-0.1-0.2-1.5-4.2-0.8-10.5c0.8-6.9,8.3-16.1,8.3-16.1s-5.6,2.4-8.2,5.4
		C338.7,233.2,336.8,236.8,336.3,237.7"/>
	<path id="XMLID_50_" class="st2" d="M204.6,251.4c0.6-1.9,1.1-3.1,2.1-5.1c0.7-0.8-6.5-1.8-10.3-3.5c-3.4-1.5-6.3-4.6-6.3-4.6
		s0.1,1.4,0.4,2.5c0.4,1.5,2.5,3.5,4,4.8C196.4,247.3,204.4,252.1,204.6,251.4"/>
	<path id="XMLID_51_" class="st3" d="M344.2,221.4c-0.8,2-1.4,5.3-1.4,5.3c1.3-1,2.2-1.5,3.7-2.1c0,0-0.2-1.3-0.3-2.9
		c0-1.6,0.3-3.8,0.3-3.8S345,219.4,344.2,221.4"/>
	<path id="XMLID_52_" class="st2" d="M415.8,266.9c-3.5-0.9-6.7-0.9-7.1,1.6c-0.4,2.4,2.5,4,2.5,4s3.7,0.2,8.3,3
		c4.6,2.8,7.1,5.6,7.1,5.6c0-1.6-0.2-3.6-0.8-5C424.5,272.4,419.2,267.7,415.8,266.9"/>
	<path id="XMLID_53_" class="st2" d="M423.7,280.7c-1-1-5.6-4.4-6.9-4.2c-1.4,0.3-7.5,5.1-7.5,5.5c-0.2,0.8,0.8,2.5,1.6,3.4
		c0.7,0.8,1.9,1.8,2.9,1.7c1-0.2,2.4-1.6,2.6-1.9c0.3-0.4-0.3-0.2-0.8-0.4c-2.1-0.4-2.2-3.9,0.3-5c1.5-0.7,4-0.5,6,2.4
		c1.3,1.7,3.5,2.8,3.9,2.9c0.5,0.1,1.2-0.9,1.1-1.4C426.5,282.9,424.6,281.8,423.7,280.7"/>
	<path id="XMLID_54_" class="st2" d="M404.5,300.3c1,1.9,2.6,2.2,5.7,2.1c5.3,0.2,10.9-6.6,13.5-7.6c1.1-0.7,0.9-1.8,0.4-2.4
		s-7-0.8-9.1-0.7c-2.2,0.1-7.1,0.5-8.5,1.4C405.7,293.5,403.4,298.4,404.5,300.3"/>
	<path id="XMLID_55_" class="st2" d="M165.6,290.6c13.9-0.1,23.4,11,32.1,20.5l0.1-0.5c-0.8-2.7-7.3-29.8-23.5-29.9
		c-8.2,0.1-15.6,6-19.7,13.1l0.4,0.1C158.2,292.1,161.6,290.6,165.6,290.6"/>
	<path id="XMLID_56_" class="st2" d="M417.2,290.2c2.7,0.1,5.1,0.6,5.9,0c0.9-0.6,0.3-1.2,1.7-3.2c1.5-2-2.9-0.5-6.1-1.4
		c-0.7-0.2-2.4,1.4-3.7,2.5c-3.1,1.8-4.3-1.1-4.8-0.7c-0.5,0.3-2.3,2.6-1.7,3C409.1,290.7,414.5,290.1,417.2,290.2"/>
	<path id="XMLID_57_" class="st2" d="M442.3,316.8c3.3-1.3,4-2.4,4.3-4.7c-4.3,1.2-23.5,4.7-32.5,5.1c-9.5,0.2-19,0.1-28.3-0.6
		c-5.1-0.4-19-4.2-17.7-1.6c2,3.5,8.7,10.3,9.5,15c0.8,4.8-0.2,11.4-0.8,16.4c0.5,1.1,8.5-1.5,10.9-1.8c2.5-0.9,2.3-2.8,4.7-4.2
		c1.6-0.6,6.8-1.6,9.3-1.7c0.6,0.3,4.4-3.5,5-4.6c0.7-0.7-6,0.3-8.3-0.1c-1.6-0.1,0.1-1.6,1-1.6c0.8,0,8,0.7,8.7,0.3
		c0.7-0.5,4.3-3.6,3.3-4s-5.7,0.2-6.9-0.2c-1.2-0.4-0.1-1.2,1.4-1.2c1.6,0,15.9,0.5,18.2,0.2c1.8,0,4.5-2,5.1-4
		c0.4-1.1-10.5-0.5-13.1-0.4c-2.6,0.2-13.5,0.5-20.5,0l-0.6-0.4c-0.1-0.2,0-0.4,0.2-0.4C409.4,322.6,429.6,320.2,442.3,316.8"/>
	<path id="XMLID_58_" class="st2" d="M270.6,237.7c-0.6,7.3,5.9,10.3,5.9,10.3s-2.3-3.5-1.8-7c1-5,4.6-6.9,4.8-10
		c0.2-3.1-2.6-7.6-2.6-7.6s0.7,2.1-0.7,5C274.7,230.9,271,232.3,270.6,237.7"/>
	<path id="XMLID_59_" class="st2" d="M136.5,319.9c-3.2,0.2-6.4-1.7-6.4-1.7s1.3,5.9,6.4,6.2c4.9-0.1,7.9-5.3,8.7-9.5
		C145.2,314.8,142.3,319.5,136.5,319.9"/>
	<path id="XMLID_60_" class="st2" d="M285,379c2.2-3.5-1-7-5.8-11.7c-2.3-3.1-8-5.2-9.5-11.9c-2.9-10.6,11.6-33.7,19.6-33.6
		c-3,5.5-0.7,12.3-0.7,12.3s1.2-8.1,7.6-13.5c8.3-8.4,18.7-12.6,21.7-14c-2.8-0.2-3.5-0.1-4-1.1c-1-1.8,2-7.9,12.2-10.9
		c-4.1,1.9-7.7,3.4-8.9,6.7c-1,2.5,0.4,3.5,0.4,3.5s2.4-2.3,4-3.4s5.9-1.9,5.9-1.8c0.4,0.8,0.1,1.5-0.4,2.3
		c-0.5,0.7-1.8,0.7-2.9,2.5c-0.6,1.1-1,3.1-0.4,3.8c0.6,0.7,3.2,0.2,4.6-1.3c1.8-2.8,1.4-1.7,1.9-4.9c0.6-3.7,3.4-4.5,3.4-4.5
		s-0.5,6.5,0.6,7.6c0.6-3.5,2.4-3.3,2.4-3.3s-0.1,6.2,1.4,6.8c0.2-3.4,2.3-3.1,2.3-3.1s0.4,5.4,1.4,5.8c0.4-1.8,1.6-3.6,1.6-3.6
		s1.3,4.7,2.2,5.4c0.6-1.2,2.3-3,2.3-3s0.7,8.1,6.1,11c-1.9-12.3-0.7-13.2,1-13.9c0,0,1.1,11,12.7,17.1c0,0-3-5.7-4.1-9.4
		c-1.1-3.6-2.9-12,0.3-15.2c0.9-1.1-4.2,0.6-1.9-0.7c2.3-1.3,11.3-4.8,11.8-4.1c0.6,0.8,0.1,3.1-0.1,3.9c0,0,6.5-4.3,10.6-5.5
		s20.6-3.2,20.6-3.2c0.7,0,4.3-3.6,4.2-4.6c-0.1-1-2.1-3.2-1.9-3.8c0.4-1.4,9.5-6.7,6.4-6.6c-8.9-1.2-18.5-0.3-24.2-3.4
		c-6.7-3.6-8.1-9.6-10.5-13.8c0.5,1.4-1.9,3.4-1.9,3.4s-5-3.3-6.4-5.8c1,2.7,0,5.9,0,5.9c-7.5-4.7-8.1-7.9-8.1-7.9
		c-0.3,1.1,2,8.6,2,8.6s-7.4-3.8-12.4-14.9c-2.1-3.8-4.6-15.5-4.6-15.5c-3,4.7-3.4,6.3-3.4,6.3s-2.5,9,0.7,14.5
		c2.5,3.7,8.5,8.4,10,8.9c3.5,2.5,0.7,2.2,0.7,2.2s-10-2.9-12.7-3c-2.8-0.1-4.1,0.7-7.9-0.4s-6.7-5.6-6.4-10.1
		c0.3-5.5,2.3-6,2.9-8.1c2-3.4,2.6-10.6-0.9-14.8c-1.1-1.4-2.9-3.2-5.7-4.8c1.1,3.6,1.5,4.7,1.3,7c-0.4,5.5-0.6,7.7-5,14
		c-7,7,6.2,19.9,6.2,19.9s-7.1-6.3-10.6-11.1c-3.7-6.4,0.4-17.5,0.1-21.3c-0.4-3.8-1.1-6.9-1.1-6.9s-0.2,7.8-1.9,11.1
		c-1.6,3.4-2.6,6.1-2.9,9.6c-0.6,7.5,1.6,13.1,1.6,13.1c-3.4-3.8-5.4-15.1-5.3-20.4c0.1-5.9-4.2-9.5-4.2-9.5s0.3,3.8-0.1,7.7
		c-0.3,3.9-1.3,4.5-1.7,10c-0.8,5.4,11.5,19.9,11.5,19.9s-8.8-6.1-12.1-15.6c-1-4.2-8.7-14.2-8.7-14.2s1.2,1.8,0.9,5.7
		c-0.3,3.8-2.7,7.4-1.3,12.4c2.4,5,11.1,19.8,25.5,21.2c-7.5,4.1-29.9-5.7-34.5-7.7c2.2,4.6,20.9,17,34.9,19.4
		c-10.6,4.6-37.5-8.8-48.1-15.9c7.1,10.1,18,18.5,18,18.5c-2.9,2.2-12.9,0.6-12.9,0.6c5,6.9,26,7.2,26,7.2
		c-1.6,5.3-18.5,4.8-18.5,4.8c8.9,4.4,17.8,3,17.8,3c-0.8,2.1-1.8,3.6-6,4.4c-6,1.4-12.9,0.8-12.9,0.8l8.1,3.9c0,0-10.9,7-16.9,12.9
		s-12.4,21.3-18.5,19.9c-4.5,1.6-8.7-0.2-10.2-2.3c-1.5-2.1-6.2-8.2-6.7-13.8c-0.5-5.5,2.2-19.9,7.1-27.2c4.8-7.4,8.7-12.2,9-36.6
		c-0.6-17.3-7.4-30.1-15.1-36.4c-1.8-1.8-5.4-4.4-6.3-4.6c-1-0.2-0.1,2.8-0.4,4.6c-0.2,2-1.2,3.9-0.5,4.7c1.3,2.1,4.8,2.6,9,19.5
		c4.9,26.4-7,36.3-7.2,46c-1.9,9.9-1.3,17.9-0.6,23.7c-6.1-13.5-3.7-28.2-1.6-40.9c2-12.7-4.3-26-7.1-27.9c-0.5-0.3-1.3-0.9-1.7,0
		c-1.4,3.1-2.8,5.2-3.7,8.5c11.5,12.6,1.6,25.4,0,34.6c-1.6,9.1,1.9,27.2,4.2,31.1c2.2,3.8,14.9,20.2,30.1,21.1
		c-5.8,2.9-8.8,3-14.4,1.6c-18.3-4.6-26.7-13-32.3-12.8c-7.2,0.2-10,1.3-12.9,2.4s-6.1,2.6-8.7,5.5c-2.6,2.9-4.3,5.9-4.8,9
		c0,0,3.5-4.3,9.8-7.4c11-4.2,16.3-3.7,24,1.3c6.4,2.5,16,12.6,25.3,10.4c0.3-0.1,4.9,0,4.8,0.5c0,0.3-4.6,1.2-4.8,1.3
		c-7.4,1.3-14.9-3.1-22.4-7.2c-2.1-1.1-6.4-3.7-8.3-3.1c-1.9,0.6-7,3.8-10.7,8.2c-3.7,4.3-6.6,10.2-6.6,10.2
		c5.8,1.1,6.7,0.3,17.3-8.5c3.7-1.8,11.5-1.6,18.8,1.6c0.5,0.8,0.8,1.8-0.2,2.6c-3.6,0.1-4.6-0.8-6.7,0.6c-2.1,1.5-2.4,5.6-1.8,5.3
		c1.3,0.3,3.5-1.8,9.3-1.3c3.1,0.8-9.1,4.3-13.1,4.5c-8.9-0.2-11.2-0.5-14.4,2.6c-3.2,3-4.7,6.7-7.7,10.1c1.8-0.2,9.8-5.3,11.5-6.1
		c1.8-0.8,12.2,0,18.8-1.5c6.6-1.4,9.8-3.3,11.4-4.8c0,0-0.5,4.6-3.3,10.8c0.1,0.5,11.2-9.7,12-11.8c-0.3,0.6-2.8,6.5-0.5,13.5
		c0.7,5.4,1.7,5.7,0.2,14.3c5.4-5.2,8.3-12.6,8.5-17.5c0.2-5-0.7-10.3,0.6-15.5c0.9-3.7,4.3-9.8,4.5-9.7c-0.4,2.1-3.3,7-3.5,13.3
		c-0.1,6.2,2.4,15.7,3.9,16.9c0.8,0.6,2.2-2.4,1.6-4.5c-0.6-5.6-1.4-13.8,0-14.5c0.6,0.2,2.8,2.6,3.3,6c1.3,2.8,0,5.3,2.1,7.4
		c0.1-0.1,1.4-2.2,1.6-6.2s-1-5.8-1.5-7.6c-0.5-1.8-0.6-9.3-0.6-9.3s6.3,4.8,8.7,5.8C273,368.1,282.2,374.8,285,379"/>
	<path id="XMLID_63_" class="st2" d="M279,358.3c-1.6-1-2.6-2.9-2.6-2.9s3.2,2.4,6.1,2.4C282.6,357.8,280.7,359.3,279,358.3
		 M363.5,362.2c5.9,2.3,19.1,6.4,26.9,8.5s17.5,4.2,27.1,5.4c9.6,1.3,15.5,2.5,27.2,0.5c1.1,0,8.7-1.5,4.6-2.4s-17.9-3.5-22.9-4.8
		c-5.1-1.3-20.2-5.1-33.4-9.9c-16.7-5.8-24.9-12.3-31.6-18.2c-7-5.7-14.2-17.2-22.4-22.9c-8.1-5.8-10.5-8.3-14.7-7.9
		s-7.7,4.1-10.7,6.3c0,0,1.3-3,2.8-4.9c0,0-12.5,4.4-19.5,13.3c-3.9,4.8-6.1,10.3-8.3,16.2c-2-2.9-4-10-3.1-14.6
		c-1.5-0.6-6.3,5.1-6.9,8.6s3.5,8.7,3.5,8.7c-4.2-1.1-6.1-5.3-6.1-5.3s-1.4,2.7-0.8,5.5c0.7,2.7,3.8,5.9,3.8,5.9
		c-2.8,1.5-5.9-3-5.9-3s-2.2,6.6,0.2,10.3c6.3,6.4,9.1,8.2,14.1,15.7c2.4,3.4,5.8,4.3,5.5,11.9c-0.8,13.8,3,11.7,3,11.7
		s-0.5-5.1,1-5.4c0,0,1.1,5,3.2,8s5.5,6.1,8,5.6c2.6-0.5,2.9-2,4.3-4.2c2.1-3.3,1.1-13.6,1.3-14.4c0.2-0.8,3.7-1.6,0.6-3.2
		c-2.5-1.3-3.8-3-3.6-4c0,0,5.6,2.7,5.6-1.9c0.6-4.3-4.2-5.3-5.5-6.4c-6.1-5-11-13.8-12.7-13.8c0,0-2.2,0.3-2.6-1
		c-0.3-1.3,2.1-1.9,4-0.3s4.3,5.3,7.9,8.5c3.5,3.2,5.4,4.6,7.9,4.6c0,0-3.2-2.4-2.4-4.6c0,0,4.2,5.3,6.7,7.1
		c2.6,1.8,8.3,3.2,8.3,3.2c-0.8,1.5-5.4,0-5.4,0s13.1,10.3,21.2,13.8c8,3.5,17.9,4.6,21.9,3.4s-4.3-2-6.5-3.1
		c-5.3-2.1-9.3-3.9-17.4-8.4c-8.1-4.4-14.7-12.4-14.7-12.4s9.1,5.9,14.3,5.5c-0.2,1.2-3.5,1.4-3.5,1.4s2.3,1.7,12.3,6
		c9.9,4.4,19.6,6.8,32.1,10.1c12.5,3.3,24,2.9,29.5,0.7c-7.1-0.3-21.8-4.6-31.7-7.7c-12.2-4.2-21.8-8.7-29.1-13.2
		c-1.4-0.7-0.9-2.2,0.4-1.7c1.4,0.5,4.5,1.8,12.3,5c7.9,3.2,24.8,7.8,37.8,9.8c9.8,2.1,27.2,2.5,34.1,2.6c8.2,0,4.8-3.2,2.9-3.4
		c-1.9-0.2-21.2-2.4-36-5.3c-14.9-2.9-30.2-8.7-40.1-12.9C360.9,363.8,361.3,361.5,363.5,362.2"/>
	<path id="XMLID_64_" class="st0" d="M183.4,362c-3.4,3.7-5.4,7.8-5.4,7.8c0.1-0.1,1.2,0.1,1.9-0.4c0.6-0.4,2-1.6,3.5-3.6V362z"/>
	<path id="XMLID_65_" class="st0" d="M343.6,355.3c-5.8-1.9-8.4-4.6-8.4-4.6s0.7,2.5,2.8,4.1c2.4,2,11,5.5,13.4,5.5s3.2-4,3.2-4
		C350.6,358.3,349.4,357.3,343.6,355.3"/>
	<path id="XMLID_66_" class="st0" d="M334.4,330.7c1.1,0.5,4-0.3,4-0.3c-2.3-0.3-3.1-1.1-4.6-2.4c-2.3-2-3.1-4.3-3.1-4.3
		s-0.5,2.6,0.2,3.8C330.6,327,331.8,329.6,334.4,330.7"/>
	<path id="XMLID_67_" class="st0" d="M318.1,335.4c-3.8-1.6,1.2,1,1.4,3.6c0.2,2.6,1.3,3.1,4,4.8s-1.2-1.4-1.1-4.3
		S319.6,336,318.1,335.4"/>
	<path id="XMLID_68_" class="st0" d="M332.8,342.9c1.9,0.6,5-2.4,5-2.4c-3.6,0.5-3.7-0.1-7.7-3s-5.6-6.3-5.6-6.3s-0.3,4.2,0.8,5.9
		C325.1,336.7,328.7,341.6,332.8,342.9"/>
	<path id="XMLID_69_" class="st0" d="M313.3,345.4c0,0,1.3,1.3,1.4,2.3s0.8,1.8-1.4,1.9c-2.3,0.1-10.9-3-10.9-3s8.4,5.8,12.5,6
		c4.3-0.3,1.8-4.6,1.3-5.8c-0.5-1.2,2.3-1.2,2.3-1.2S313.9,343.9,313.3,345.4"/>
	<path id="XMLID_70_" class="st0" d="M279,358.3c1.6,1,3.5-0.5,3.5-0.5c-2.9,0-6.1-2.4-6.1-2.4S277.4,357.4,279,358.3"/>
	<path id="XMLID_71_" class="st0" d="M348.7,339.9c-0.7,0.6-0.8,4.9,6.3,8.3c6,2.9,11.3,2.5,11,1.2c0,0-5.9-1.2-9.8-3.3
		C352.2,343.9,348.7,339.9,348.7,339.9"/>
	<path id="XMLID_72_" class="st0" d="M363.4,283.5c-2.9,1.7-6.4,4.4-9.9,5.6s-15.6,2.7-15.6,2.7c6.6,0.5,13.7,3.9,13.7,3.9
		s-2.6,3.1-6.2,6.4c0,0,7.8-3.1,12-6.3c3.6-2.6,9.3-11.5,10-12.8C367.3,282.2,364.2,282.9,363.4,283.5"/>
	<path id="XMLID_73_" class="st0" d="M333.6,278.4c4.1,0.2,10-2,10-2s-7.3,0.2-7.4-1.2c-0.1-1.4,1.9-3.1,4.5-4.4
		c2.7-1.4,9.4-3.1,9.4-3.1s-9.3,0.2-13.6,2.1c-3.4,1.5-9.7,5.7-9.4,7C327.4,278,329.5,278.2,333.6,278.4"/>
	<path id="XMLID_74_" class="st0" d="M335,333.1c-2.9-1.2,0.8,1.2,1.1,2.8c0.3,1.6,1,2.4,3.1,3.7c2,1.3-0.6-1.4-0.8-3.3
		C338.1,334.4,336.2,333.6,335,333.1"/>
	<path id="XMLID_75_" class="st0" d="M289.8,367.3c-2.1-0.6-2.7-2.1-2.7-2.1s0.7,2.6,1.3,3.1c0.6,0.5,1.6,0.8,2.1,0.6
		c0.9,0,2.4-2.3,2.4-2.3S291.9,367.9,289.8,367.3"/>
	<path id="XMLID_76_" class="st0" d="M326.2,358.3c-0.4,2.4,0.8,3.2,4.2,4.8c2.2,1.1,4.5,2.6,7.7,0c0,0-2.2-0.1-6.1-1.5
		C328,360.4,326.2,358.3,326.2,358.3"/>
	<path id="XMLID_77_" class="st0" d="M304.9,393.4c2.8-0.2,0.4-5.6,0.4-5c0.1,0.6,0.2,3.3-1.3,3.4s-5.4-2.6-5.4-2.6
		S302.3,393.2,304.9,393.4"/>
	<path id="XMLID_78_" class="st0" d="M344.4,277c0,0,1.7,1.3,1.7,2.8s-2.4,6.1-2.4,6.1s7.2-2.6,12.5-5.2c4.8-2.3,10.6-5.6,10.4-9
		c0,0-7.8,3.4-12.6,4.5C349.2,277.3,344.4,277,344.4,277"/>
	<path id="XMLID_79_" class="st0" d="M293.3,375.2c0,0,1.6,4.2,4.2,4.9c2.8,0.5,1.2-6.5,1.1-5.9s-0.1,4.4-1.6,4.2
		C295.5,378.1,293.3,375.2,293.3,375.2"/>
	<polygon id="XMLID_80_" class="st0" points="454.2,505.4 457.8,505.4 457.8,516.4 459.1,516.4 459.1,505.4 463,505.4 463,504.1 
		454.2,504.1 	"/>
	<polygon id="XMLID_81_" class="st0" points="470,514.1 466.9,504.1 464.7,504.1 464.7,516.4 466.1,516.4 466.1,505.9 469.4,516.4 
		470.7,516.4 474,505.9 474,516.4 475.3,516.4 475.3,504.1 473.2,504.1 	"/>
	<path id="XMLID_82_" class="st1" d="M220.2,303.5c-0.5,14.6,6.1,16.7,6.1,16.7c-4-12-2.7-28.7,1.1-39.6
		C227.4,280.6,220.7,288.9,220.2,303.5"/>
	<path id="XMLID_83_" class="st1" d="M243.5,293.6c3-4.7,5.3-12.8,5.3-25.8c0-12.9-4.7-27.5-13.2-33.4c7.7,11.9,12.5,34.3,5.8,51
		c-0.8,2-10.3,18.9-6.1,26.5C237.2,304.2,239.8,299.2,243.5,293.6"/>
	<path id="XMLID_84_" class="st1" d="M164.9,286.3c8-1.4,14.2,0.2,22.6,6.6c0,0-5.5-9.4-13-10C168.8,282.7,164.9,286.3,164.9,286.3"
		/>
	<path id="XMLID_85_" class="st1" d="M169.4,323.5c8.5-2,20.8-2.8,27.8,1.1c0,0-3.5-5.9-10.3-6C180.1,318.4,169.4,323.5,169.4,323.5
		"/>
</g>
</svg>
