<?xml version="1.0" encoding="utf-8"?>
<!-- Generator: Adobe Illustrator 21.0.2, SVG Export Plug-In . SVG Version: 6.00 Build 0)  -->
<svg version="1.1" id="Layer_1" xmlns="http://www.w3.org/2000/svg" xmlns:xlink="http://www.w3.org/1999/xlink" x="0px" y="0px"
	 viewBox="0 0 600 640" style="enable-background:new 0 0 600 640;" xml:space="preserve">
<style type="text/css">
	.st0{fill:#33435F;}
	.st1{fill:#FFFFFF;}
	.st2{fill:#98B6E0;}
</style>
<g id="Layer_3">
	<g>
		<path class="st0" d="M439.6,318.8c0.1,14.7,0.5,27.1,1.8,39.6c0.3,3.1,0.3,3.1,3,1.7c10.3-5.1,20.3-10.7,30.4-16.2
			c1.6-0.9,2.4-0.9,3.6,0.7c14.6,20.4,29.3,40.8,44,61.1c1,1.4,0.9,2.1-0.6,3c-17.1,10.4-34,21.1-51.9,30.1c-2.2,1.1-2.2,2-1.1,3.9
			c4.7,8.4,9.2,16.9,13.8,25.3c0.8,1.5,1,2.3-0.9,3.1c-23.9,9.8-47.7,19.6-71.5,29.5c-1.7,0.7-2.7,0.6-4-0.9
			c-7.6-8.9-15.3-17.6-22.8-26.5c-1.4-1.6-2.7-1.8-4.6-1.4c-25.7,5.6-51.7,7.9-77.9,7c-20.6-0.7-41-2.6-61.2-6.6
			c-2.6-0.5-5.3-0.9-7.8-1.7c-1.8-0.5-2.5,0.2-3.2,1.7c-4.6,9.7-9.4,19.4-13.9,29.1c-0.7,1.5-1.2,1.7-2.7,1.1
			c-25.2-10.5-50.4-20.9-75.7-31.3c-1.7-0.7-2.1-1.3-1.1-3c4.8-8.7,9.6-17.5,14.3-26.3c2.1-4,2.1-3.1-1.4-5.4
			c-20-13.2-37.2-29.3-50.3-49.4c-12.7-19.5-20.8-40.6-21.8-64.1c-0.9-20.4,4.3-39.5,13.3-57.6c12.7-25.5,31.7-45.4,54.9-61.5
			c3.2-2.2,6.5-4.4,9.8-6.4c1.4-0.9,1.6-1.7,0.9-3.2c-4.2-9.3-9.2-18.1-13.8-27.1c-1.6-3-1.6-3.1,1.6-4.2
			c23.5-8.2,47-16.4,70.4-24.7c1.8-0.6,2.4,0.1,3.2,1.2c5.9,7.9,11.9,15.8,17.7,23.8c1.5,2.1,2.9,2.7,5.5,2.2
			c28.5-5.5,57.3-7.4,86.3-6.5c18.9,0.6,37.6,3,56,7.1c2,0.4,2.9,0,3.8-1.8c4.5-8.8,9.9-17.1,14.9-25.6c0.8-1.3,1.5-1.3,2.8-0.9
			c24.1,8.5,48.3,17,72.5,25.4c2.4,0.8,2.2,1.6,1.3,3.4c-4.9,9.3-10,18.5-14.3,28c-1,2.1-0.7,3.1,1.4,4.3
			c16.7,9.7,31.9,21.5,46.7,33.8c6.3,5.2,12.7,10.4,19.1,15.5c1.6,1.2,1.8,1.8,0.3,3.4c-18,19.1-36,38.2-53.9,57.4
			c-1.1,1.2-1.8,1.2-3.1,0.3c-10-6.9-20-13.7-30-20.4c-0.6-0.4-1-1.2-1.8-0.9c-0.8,0.3-0.4,1.3-0.4,1.9
			C439.9,300.2,439.7,310.6,439.6,318.8z M427.3,320.7c0-17.4,1.1-34.7,3.3-51.9c0.3-2.6,1-2.3,2.8-1.2
			c12.5,8.5,25.1,16.9,37.6,25.4c1.5,1,2.3,1.2,3.7-0.3c11.8-12.7,23.7-25.4,35.6-38c3.5-3.8,3.5-3.8-0.6-7.1
			c-19.6-16.2-39.3-32.1-62-43.9c-1.4-0.8-1.3-1.5-0.8-2.8c3.6-9.5,7.8-18.7,12.7-27.6c1-1.8,0.9-2.5-1.2-3.3
			c-16.5-5.7-32.9-11.5-49.3-17.3c-2-0.7-2.8-0.2-3.7,1.4c-4.8,7.9-9.4,16-13.3,24.4c-0.9,1.9-1.8,2.3-3.8,1.8
			c-15.4-4.2-31.1-6.9-47-8.2c-36.3-3-72.2-0.8-107.8,7c-1.9,0.4-2.9,0-4-1.5c-5.9-8-11.8-15.8-17.7-23.8c-0.9-1.2-1.6-1.7-3.2-1.1
			c-16.5,5.9-33,11.7-49.6,17.4c-2,0.7-2,1.4-1.1,3c4.7,8.4,8.6,17.2,12.2,26.1c0.8,1.9,0.4,2.8-1.4,3.7
			c-10.9,5.8-21,12.7-30.5,20.6c-18.8,15.8-33.6,34.5-42.7,57.5c-6.7,17-9.6,34.6-6.4,52.8c4.6,26.1,17.1,48.1,35.1,67.1
			c11.7,12.5,25.2,22.8,40.1,31.3c1.9,1.1,2.6,2,1.5,4.3c-4.3,8.5-8.5,17-13.3,25.3c-0.9,1.7-1.2,2.5,1,3.4
			c17.4,7,34.7,14.2,52,21.4c1.7,0.7,2.4,0.5,3.2-1.2c4.2-9.1,8.6-18.2,12.8-27.3c0.8-1.6,1.4-2.2,3.3-1.7c22,5.7,44.5,8.6,67.2,9.8
			c31,1.7,61.6-0.7,91.7-8c1.6-0.4,2.4,0,3.4,1.1c7.3,8.5,14.7,16.9,22,25.5c1.4,1.6,2.4,2,4.4,1.2c16.8-7,33.7-14,50.6-20.9
			c1.9-0.8,1.9-1.4,1-3c-4.7-8.3-9.1-16.7-13.3-25.3c-0.8-1.5-0.9-2.3,1-3.2c17.6-8.3,34.3-18,50.9-28.2c1.9-1.2,1.8-1.9,0.6-3.6
			c-9.9-13.6-19.7-27.2-29.5-41c-1.4-1.9-2.3-1.9-4.2-0.9c-11.8,6.6-23.8,12.8-36.1,18.5c-2,0.9-2.6,0.7-3-1.6
			C428.4,358.3,427.4,339.5,427.3,320.7z"/>
		<path class="st1" d="M427.3,320.7c0.1,18.8,1.1,37.5,4.4,56.1c0.4,2.2,0.9,2.5,3,1.6c12.3-5.7,24.3-11.9,36.1-18.5
			c1.9-1.1,2.8-1,4.2,0.9c9.7,13.7,19.6,27.4,29.5,41c1.2,1.6,1.3,2.4-0.6,3.6c-16.5,10.2-33.3,19.9-50.9,28.2
			c-1.8,0.9-1.7,1.7-1,3.2c4.2,8.6,8.5,17,13.3,25.3c0.9,1.6,0.9,2.3-1,3c-16.9,6.9-33.7,13.8-50.6,20.9c-2,0.9-3.1,0.4-4.4-1.2
			c-7.3-8.5-14.7-17-22-25.5c-1-1.1-1.8-1.5-3.4-1.1c-30.2,7.3-60.8,9.7-91.7,8c-22.7-1.2-45.2-4.1-67.2-9.8c-2-0.5-2.6,0.1-3.3,1.7
			c-4.2,9.1-8.6,18.2-12.8,27.3c-0.8,1.7-1.5,1.9-3.2,1.2c-17.3-7.2-34.7-14.4-52-21.4c-2.3-0.9-2-1.8-1-3.4
			c4.7-8.3,9-16.8,13.3-25.3c1.1-2.2,0.5-3.1-1.5-4.3c-14.8-8.5-28.3-18.8-40.1-31.3c-18-19.1-30.5-41-35.1-67.1
			C86.1,315.5,89,298,95.7,281c9-23,23.9-41.7,42.7-57.5c9.4-7.9,19.6-14.8,30.5-20.6c1.7-0.9,2.2-1.8,1.4-3.7
			c-3.6-8.9-7.5-17.7-12.2-26.1c-0.9-1.6-0.9-2.3,1.1-3c16.6-5.7,33.1-11.5,49.6-17.4c1.6-0.6,2.3-0.1,3.2,1.1
			c5.9,7.9,11.9,15.8,17.7,23.8c1.1,1.5,2.1,1.9,4,1.5c35.6-7.8,71.5-10,107.8-7c15.9,1.3,31.6,4,47,8.2c2,0.6,2.9,0.2,3.8-1.8
			c3.9-8.4,8.5-16.4,13.3-24.4c1-1.6,1.8-2.1,3.7-1.4c16.4,5.9,32.8,11.7,49.3,17.3c2.2,0.7,2.3,1.4,1.2,3.3
			c-5,8.8-9.1,18.1-12.7,27.6c-0.5,1.2-0.6,2,0.8,2.8c22.6,11.9,42.4,27.7,62,43.9c4.1,3.4,4.1,3.4,0.6,7.1
			c-11.9,12.7-23.8,25.3-35.6,38c-1.4,1.5-2.2,1.3-3.7,0.3c-12.5-8.5-25.1-16.9-37.6-25.4c-1.7-1.2-2.4-1.4-2.8,1.2
			C428.4,286,427.3,303.3,427.3,320.7z M420.8,320.8c-0.2-12.6,0.4-24.4,1.5-36.1c0.8-8.9,1.9-17.8,3.1-26.7
			c0.3-2.2,0.9-2.6,2.8-1.4c5.5,3.6,11.1,7.1,16.6,10.7c8.7,5.8,17.3,11.6,25.9,17.5c1,0.7,1.6,0.9,2.6-0.2
			c3.5-3.9,7.1-7.7,10.7-11.5c6.2-6.6,12.4-13.2,18.7-19.8c1.3-1.3,1.1-2.2-0.3-3.2c-3.6-2.9-7.2-5.8-10.8-8.7
			c-15.9-13.1-32.8-24.7-51.1-34.2c-1.8-0.9-2.3-1.7-1.6-3.7c3.3-9.1,7-18.1,11.5-26.7c0.8-1.6,0.9-2.4-1.1-3
			c-12.5-4.3-25-8.7-37.5-13.1c-1.6-0.6-2.5-0.3-3.4,1.2c-4.7,7.9-9,16-12.7,24.4c-0.9,2.1-1.8,2.3-3.8,1.7
			c-15.6-4.6-31.6-7.4-47.8-9.1c-12.5-1.3-25.1-1.7-37.8-1.4c-10.7,0.3-21.3,0.6-31.9,1.7c-14.7,1.5-29.2,3.6-43.6,7.2
			c-2,0.5-3,0-4.2-1.6c-5.7-7.8-11.5-15.4-17.2-23.1c-1-1.3-1.9-1.7-3.5-1.1c-12.5,4.4-25,8.8-37.5,13.1c-1.9,0.6-2,1.3-1.2,3
			c4.1,8.4,7.9,16.9,11,25.7c0.7,2.1,0.2,2.7-1.5,3.5c-14.8,7.4-28.4,16.6-40.5,27.9c-13.5,12.5-24.5,27-32.2,43.8
			c-4.9,10.7-8.2,21.8-9.2,33.5c-1.5,17.5,2.3,34.1,9.8,49.9c7.9,16.8,19.1,31.2,32.8,43.6c10.5,9.5,21.9,17.5,34.3,24.3
			c3.8,2.1,3.8,2,2,6c-3.7,8.1-7.8,16-12,23.8c-0.8,1.5-0.9,2.3,0.9,3c13.2,5.4,26.3,10.8,39.5,16.2c1.9,0.8,2.8,0.4,3.6-1.5
			c4.2-8.6,8.3-17.2,12-25.9c0.9-2.2,2-2.5,4.2-1.9c24.2,7,49,10,74.1,11c15.8,0.6,31.6,0.4,47.4-1.3c13.7-1.5,27.2-3.9,40.6-7.2
			c3.5-0.9,5.4,0.2,7.5,2.7c6.5,7.7,13.1,15.2,19.6,22.9c1.4,1.6,2.6,1.9,4.6,1.1c13.2-5.5,26.4-11,39.7-16.4
			c1.9-0.8,1.2-1.7,0.6-2.8c-4-7.1-7.6-14.5-11.1-21.9c-2.7-5.5-2.6-5.6,2.9-8.2c0.2-0.1,0.5-0.2,0.7-0.4
			c15.5-7.4,30.6-15.6,45.2-24.7c2.9-1.8,2.9-1.7,1-4.3c-7.2-10-14.5-20-21.6-30.1c-1.3-1.9-2.4-2-4.3-0.9
			c-12.5,7-25.3,13.3-38.5,19.1c-2.4,1.1-3,0.3-3.5-1.8c-2.4-10.9-3.9-21.8-4.9-32.9C421,341.9,420.5,331,420.8,320.8z"/>
		<path class="st2" d="M420.8,320.8c-0.3,10.2,0.2,21.2,1.1,32.1c0.9,11.1,2.5,22,4.9,32.9c0.5,2.2,1.1,2.9,3.5,1.8
			c13.1-5.8,26-12.1,38.5-19.1c1.9-1.1,3-1,4.3,0.9c7.1,10.1,14.4,20.1,21.6,30.1c1.9,2.6,1.8,2.5-1,4.3
			c-14.6,9.1-29.7,17.3-45.2,24.7c-0.2,0.1-0.5,0.2-0.7,0.4c-5.5,2.6-5.6,2.6-2.9,8.2c3.6,7.4,7.1,14.8,11.1,21.9
			c0.6,1.1,1.3,2-0.6,2.8c-13.3,5.4-26.5,10.8-39.7,16.4c-2,0.8-3.2,0.5-4.6-1.1c-6.5-7.7-13.2-15.2-19.6-22.9
			c-2.1-2.4-3.9-3.6-7.5-2.7c-13.4,3.3-26.9,5.7-40.6,7.2c-15.8,1.7-31.6,1.9-47.4,1.3c-25.1-1-49.9-4-74.1-11
			c-2.2-0.6-3.3-0.3-4.2,1.9c-3.7,8.8-7.8,17.3-12,25.9c-0.9,1.8-1.7,2.2-3.6,1.5c-13.1-5.5-26.3-10.9-39.5-16.2
			c-1.8-0.7-1.7-1.6-0.9-3c4.2-7.9,8.3-15.7,12-23.8c1.8-4,1.8-3.9-2-6c-12.4-6.7-23.9-14.8-34.3-24.3
			c-13.7-12.5-24.9-26.9-32.8-43.6c-7.5-15.8-11.3-32.4-9.8-49.9c1-11.7,4.4-22.8,9.2-33.5c7.7-16.8,18.7-31.3,32.2-43.8
			c12.1-11.3,25.7-20.5,40.5-27.9c1.7-0.8,2.2-1.4,1.5-3.5c-3.1-8.8-6.9-17.3-11-25.7c-0.8-1.7-0.7-2.3,1.2-3
			c12.5-4.3,25-8.6,37.5-13.1c1.7-0.6,2.5-0.2,3.5,1.1c5.7,7.7,11.5,15.4,17.2,23.1c1.2,1.6,2.2,2.1,4.2,1.6
			c14.3-3.6,28.9-5.7,43.6-7.2c10.6-1.1,21.3-1.4,31.9-1.7c12.6-0.3,25.2,0.1,37.8,1.4c16.2,1.6,32.2,4.5,47.8,9.1
			c2,0.6,2.9,0.4,3.8-1.7c3.6-8.4,8-16.5,12.7-24.4c0.9-1.5,1.8-1.8,3.4-1.2c12.5,4.4,25,8.8,37.5,13.1c2,0.7,1.9,1.5,1.1,3
			c-4.5,8.6-8.1,17.6-11.5,26.7c-0.7,2-0.2,2.8,1.6,3.7c18.3,9.5,35.2,21.1,51.1,34.2c3.6,2.9,7.1,5.9,10.8,8.7
			c1.3,1.1,1.5,1.9,0.3,3.2c-6.3,6.6-12.5,13.2-18.7,19.8c-3.6,3.8-7.3,7.6-10.7,11.5c-1,1.1-1.6,0.9-2.6,0.2
			c-8.6-5.9-17.2-11.7-25.9-17.5c-5.5-3.6-11.1-7.1-16.6-10.7c-1.9-1.2-2.4-0.8-2.8,1.4c-1.3,8.9-2.3,17.8-3.1,26.7
			C421.2,296.4,420.6,308.2,420.8,320.8z M375.7,371c-1.8-16-2.9-31.7-3.1-47.5c-0.2-17.1,0.4-34.1,2-51.1
			c1.1-12.1,2.5-24.2,5.1-36.1c0.5-2.5-0.1-3.4-2.4-4.1c-20.5-6.7-41.6-9-63-9.3c-6.9-0.1-13.8,0.3-20.8,0.8
			c-10.5,0.7-20.8,2-31.2,3.9c-3,0.6-3,0.7-1.2,3.2c17.6,23.1,35.2,46.2,52.9,69.3c10.1,13.1,20.9,25.7,31.9,38
			c8.2,9.1,16.3,18.3,24.5,27.5C372.2,367.3,374,369.2,375.7,371z M243.8,277.9c0.6,8.4,0.8,16.6,1,24.7c0.4,18.5,0.2,37-1.9,55.4
			c-1.6,14.3-3.9,28.5-7.5,42.4c-0.6,2.1,0,2.8,2.1,3.3c20.3,4.9,40.9,7.2,61.7,7.9c14,0.5,27.9,0.3,41.8-1
			c3.7-0.3,7.3-0.8,11.6-1.3C315.3,365.9,277.3,323.8,243.8,277.9z M196.7,320.4c0.4-14.9-0.7-29.8-2.2-44.7
			c-0.6-6.2-1.7-12.3-2.5-18.4c-0.2-1.5-0.6-1.9-2-0.9c-12.3,8.6-23,18.6-31.3,31.3c-10.8,16.6-12.2,34.1-5.5,52.5
			c6.7,18.3,19,32.1,35,42.8c2.5,1.7,2.9,1.6,3.4-1.6c1.6-9.1,3.1-18.2,3.8-27.4C196.5,342.8,197,331.6,196.7,320.4z"/>
		<path class="st1" d="M375.7,371c-1.7-1.9-3.5-3.7-5.2-5.6c-8.2-9.2-16.3-18.4-24.5-27.5c-11.1-12.3-21.9-24.8-31.9-38
			c-17.7-23.1-35.3-46.2-52.9-69.3c-1.9-2.5-1.8-2.6,1.2-3.2c10.3-1.9,20.7-3.1,31.2-3.9c6.9-0.5,13.9-0.9,20.8-0.8
			c21.4,0.3,42.5,2.6,63,9.3c2.3,0.8,3,1.6,2.4,4.1c-2.6,11.9-4,24-5.1,36.1c-1.6,17-2.2,34.1-2,51.1
			C372.8,339.3,373.9,355,375.7,371z M271,232.6c31.2,40.9,60.9,82,96.2,118.7c0.4-1,0.1-2,0.1-2.9c-0.6-6.7-0.9-13.5-1-20.3
			c-0.5-29.8,0.8-59.5,6.3-88.8c0.3-1.4-0.2-1.9-1.5-2.2c-6.1-1.6-12.2-3.3-18.4-4.4c-21.8-3.9-43.7-4.1-65.7-2
			C281.8,231.2,276.7,231.9,271,232.6z"/>
		<path class="st1" d="M243.8,277.9c33.5,45.9,71.5,88,108.8,131.4c-4.2,0.5-7.9,1-11.6,1.3c-13.9,1.3-27.9,1.5-41.8,1
			c-20.8-0.7-41.4-2.9-61.7-7.9c-2.1-0.5-2.6-1.2-2.1-3.3c3.6-13.9,5.9-28.1,7.5-42.4c2.1-18.4,2.3-36.9,1.9-55.4
			C244.6,294.5,244.5,286.3,243.8,277.9z M251.4,298.1c0,4.2-0.1,7.5,0,10.9c0.6,29.4-1.5,58.5-8.2,87.2c-0.6,2.6,1,2.3,2.3,2.6
			c28.2,6,56.8,7.4,85.5,5.9c2.6-0.1,5.2-0.4,8.3-0.6C309.6,369,278.8,335.5,251.4,298.1z"/>
		<path class="st1" d="M196.7,320.4c0.3,11.2-0.2,22.4-1.1,33.6c-0.8,9.2-2.2,18.3-3.8,27.4c-0.6,3.1-0.9,3.2-3.4,1.6
			c-16-10.7-28.4-24.4-35-42.8c-6.7-18.4-5.3-35.9,5.5-52.5c8.2-12.7,19-22.7,31.3-31.3c1.4-1,1.8-0.6,2,0.9
			c0.8,6.1,1.9,12.3,2.5,18.4C196.1,290.6,197.1,305.5,196.7,320.4z M186.5,373.6c5.3-35.7,4.8-70.8,0.3-106.4
			c-0.8,0.5-1.2,0.7-1.5,1c-8.1,6.7-15.3,14.1-20.9,23c-4.2,6.6-7.4,13.6-8.3,21.5c-1.3,11.4,1.4,22.1,6.3,32.3
			C167.9,356.3,176.1,365.5,186.5,373.6z"/>
		<path class="st0" d="M271,232.6c5.7-0.7,10.8-1.4,15.9-1.9c22-2,43.9-1.8,65.7,2c6.2,1.1,12.3,2.7,18.4,4.4
			c1.2,0.3,1.7,0.8,1.5,2.2c-5.5,29.4-6.8,59-6.3,88.8c0.1,6.8,0.4,13.5,1,20.3c0.1,0.9,0.4,1.9-0.1,2.9
			C331.8,314.6,302.1,273.5,271,232.6z M293.6,242.4c20.1,25.7,38.6,51.8,60.1,75.9c0.1-0.6,0.2-0.8,0.2-1c0.1-23.1,1-46.1,4.8-68.9
			c0.3-1.6-0.6-1.9-1.8-2.2c-5.5-1.1-11-2.2-16.5-2.9C325,241.3,309.6,241.3,293.6,242.4z"/>
		<path class="st0" d="M251.4,298.1c27.4,37.4,58.2,70.9,87.9,105.9c-3,0.2-5.7,0.5-8.3,0.6c-28.7,1.4-57.3,0-85.5-5.9
			c-1.3-0.3-3,0-2.3-2.6c6.8-28.7,8.8-57.8,8.2-87.2C251.4,305.6,251.4,302.3,251.4,298.1z M313.6,393c-16.9-19.8-33.8-38.9-50-58.8
			c-0.2,0.5-0.3,0.8-0.3,1c-0.5,17.4-2.4,34.6-5.7,51.7c-0.3,1.7,0.5,1.9,1.8,2.1c7.4,1.2,14.8,2.2,22.2,2.8
			C292.1,392.7,302.6,393.2,313.6,393z"/>
		<path class="st0" d="M186.5,373.6c-10.4-8.1-18.6-17.2-24.1-28.6c-4.9-10.2-7.6-20.9-6.3-32.3c0.9-7.9,4.1-14.9,8.3-21.5
			c5.6-8.9,12.8-16.4,20.9-23c0.3-0.3,0.7-0.5,1.5-1C191.3,302.7,191.8,337.8,186.5,373.6z M177.2,345.8c1-17.2,1.2-34-0.1-51.2
			C164.7,310,165.3,327.7,177.2,345.8z"/>
	</g>
</g>
</svg>
