<?xml version="1.0" encoding="utf-8"?>
<!-- Generator: Adobe Illustrator 21.0.2, SVG Export Plug-In . SVG Version: 6.00 Build 0)  -->
<svg version="1.1" id="Layer_1" xmlns="http://www.w3.org/2000/svg" xmlns:xlink="http://www.w3.org/1999/xlink" x="0px" y="0px"
	 viewBox="0 0 600 640" style="enable-background:new 0 0 600 640;" xml:space="preserve">
<style type="text/css">
	.st0{fill:#1F3C76;}
	.st1{fill:#FEFDFE;}
	.st2{fill:#C1C6CB;}
	.st3{fill:#BF3043;}
</style>
<g id="dUKEh7_1_">
	<g>
		<path class="st0" d="M272.3,135.9c2.5,0,5,0,7.4,0c0.2,0.2,0.4,0.5,0.6,0.5c11.7,1.2,20.4,7,26.1,17.1c3.3,5.8,7.9,7.9,14.7,7.2
			c14-1.4,28-1.6,41.5,3.7c2.7,1.1,3.8,0.1,4.4-2.4c1.7-6.9,6.5-10.8,13.3-11.6c6.7-0.9,13.1,0.5,18.5,5c4.1,3.4,7.1,7.7,10.4,11.8
			c2.8,3.6,6.2,6.4,10.3,8.4c2.2,1.1,4.3,2.4,6.3,3.9c2.9,2.2,2.7,5.3-0.4,7.2c-0.6,0.4-1.4,0.7-2,1.1c-0.9,0.7-2.8,0.7-2.8,2.1
			c0,1.7,1.4,2.9,2.9,3.6c1.3,0.6,2.7,1,4,1.4c5.1,1.5,10.2,3.2,14.9,5.7c4.7,2.5,8.9,5.6,11.6,10.3c4.4,7.8,0.6,15.7-8.2,17.2
			c-1.1,0.2-2.2-0.1-3.3,0.8c3.2,2.6,6.4,5.2,9.6,7.8c1,0.8,2.1,0.7,3.2,0.4c11.3-2.6,19.6,3.1,21.4,14.6c0.5,3,0.7,6,1.1,9.8
			c3.2-6.8,2.4-13.1,1.2-19.6c7,2.1,11.6,6.4,14.2,12.9c1.6,3.9,2.6,8,3.3,12.1c0.2,1.4,0.7,1.8,2.1,2.1c7,1.5,10.5,5.3,11.4,12.5
			c0.2,1.8,0.1,3.6,0.4,5.4c1.2,6.4-2.3,10.2-7,13.5c-2,1.4-4.2,2.7-6.6,3.4c-3,0.8-4.2,2.7-4.8,5.6c-1.7,8.5-6.5,14.7-14.3,18.5
			c-1.9,0.9-3.9,1.7-6,2.6c0.9,0.6,1.6,0.4,2.4,0.4c21.1,0,42.2,0,63.3,0c0.7,0,1.5-0.2,2.2-0.3c0,0.6,0,1.1,0,1.7
			c-0.9,0.6-0.8,1.6-1.1,2.5c-8.6,28.1-17.2,56.2-25.8,84.3c-3.5,11.3-6.8,22.6-12.2,33.2c-7.7,15.2-20.4,24.8-35.8,31.2
			c-16.8,7-34.5,9.9-52.5,11.5c-3.2,0.3-6.4,0-9.4,1.1c-14.5,0-29,0-43.5,0c-0.5-1-1.5-0.5-2.3-0.6c-12.4-1.1-24.6-2.8-36.7-5.7
			c-11.5-2.8-22.6-6.2-32-13.8c-12.4-9.9-18.6-22.3-15.6-38.6c1.7-9.5,4.6-18.7,7.6-27.8c0.8-2.4,0.7-3.2-2.3-3.2
			c-13.8,0.1-27.7-0.1-41.5-0.1c-1.8,0-2.8-0.3-2.9-2.4c-0.1-2.2-0.7-4.5-1-6.9c-6.8,3.4-13.8,5.8-21.1,7.4
			c-27.4,6-54.9,6.3-82.4,1.6c-19.4-3.3-37.8-9.6-53.7-21.9c-11.2-8.7-19.4-19.2-22.8-33.2c-0.4-1.8-0.2-3.8-1.4-5.4
			c0-5.3,0-10.7,0-16c0.7-0.4,0.5-1.2,0.6-1.8c1.4-9.3,4-18.2,8.8-26.3c11.2-18.8,27.2-32.5,46.6-42.3
			c29.1-14.7,60.3-20.3,92.6-19.9c7,0.1,13-1.1,18.8-4.6c1.3-0.8,2-1.5,2.3-3.1c2.3-14.8,6.7-28.9,16.2-40.9c0.8-1,0.5-1.5-0.2-2.3
			c-2.5-2.8-5-5.6-6.6-8.9c-1.9-3.9-1-5.3,3.2-5.1s8.1,1.4,11.9,2.9c1.5,0.6,2.8,0.6,4-0.3c1.6-1.1,3.2-2.2,5.1-3.6
			c-3.8-1.8-7.1-3.4-10.1-5.6c-3.5-2.6-5.9-6-7.5-9.9c-1.7-4.1,0.7-7.4,5.1-7.5c3.1-0.1,6.1,0.3,9.1,0.5c5.4,0.3,10.7-0.1,13.8-5.5
			C267,141.7,269.2,138.4,272.3,135.9z M471.3,308c-12.9,0.8-24.6-3.5-36.2-8.3c-10.7-4.5-21.8-6.1-33.3-4.2
			c-6.4,1.1-12.8,2.2-19.2,3.3c-0.9,0.2-2.2,0.4-2.6-0.6c-0.4-1.1,0.7-1.9,1.6-2.4c2.9-1.7,5.9-3.1,9-4.2c5.1-1.9,10.3-3.6,15.9-3.1
			c17.1,1.5,34,4.4,50.3,10.3c6.7,2.4,13.5,4.6,20.9,4c7.7-0.7,14.6-4.3,21.8-6.5c3.8-1.1,6-4.4,6.2-8.5c0.1-2.3-0.3-4.8-0.7-7.1
			c-1-5.7-6.1-8.5-11.4-6c-4.9,2.3-9.7,4.6-15.2,5.5c1,0.7,2,1.1,3,1.6c1.2,0.7,3.6,0.7,2.9,2.7c-0.5,1.7-2.6,1.6-4.3,1.5
			c-0.6,0-1.3-0.3-1.9-0.5c-12.3-5.2-25.2-6.3-38.4-6.3c-6.5,0-12.9,1.5-19.4-0.1c-9-2.2-17.6-0.8-26.1,2.4
			c-8.3,3.1-14.7,9.1-21.4,14.6c-1.9,1.6-3.6,3.4-5.7,4.8c-7.7,5-15.3,4.3-22.7-0.8c-0.4,0.9,0,1.5,0.2,2.3
			c1.8,7.7,4.6,15.1,7.8,22.3c2.3,5.1,2.6,10.4-0.3,15.4c-1,1.8,0.1,2.2,1.3,2.6c4.7,1.7,9.4,1.9,14.3,0.9c9.8-2,19.3-5.3,29.5-4.7
			c7,0.4,13.8-1.1,20.6-3c7.3-2,13.4-5.4,16.5-12.8c0.6-1.3,1.6-2.4,3-2.9c0.4-0.2,0.9-0.4,1.3,0s0.2,0.9,0,1.3
			c-0.9,1.7-1.7,3.4-2.6,5.1c-0.7,1.2-0.3,1.7,1,1.8c4,0.4,7.9,0.3,11.4-1.6c8.7-4.7,16.1-11.1,22.7-18.4
			C471.2,308.3,471.3,308.2,471.3,308C471.7,308,471.5,308,471.3,308z M289.6,362.2c-3.7,0.4-4.3,0-4.6-3.8
			c-0.3-2.7-0.5-5.5-0.6-8.2c-0.1-1.2-0.4-2-1.7-2.6c-15-6.2-28.1-15-37.4-28.6c-1.1-2.9-3.1-3.7-6.2-3.7c-16.5,0.2-33,0.1-49.5,0
			c-2.3,0-3.5,0.5-4.3,3c-2.9,9.8-5.9,19.5-9.1,29.2c-0.9,2.6-0.1,3,2.3,3c11.7-0.1,23.5-0.1,35.2,0c0.9,0,2.1-0.5,2.9,0.7
			c-3.4,4-7.6,6.7-12.4,8.5c-15,5.9-30.2,5.4-45.4,0.8c-4.8-1.5-8.1-4.8-10.2-9.4c-1.6-3.5-2.3-7.3-2.2-11.1
			c0.2-15.6,6.3-29,15.8-41.1c2.6-3.3,5.9-6,9.6-8c13.5-7.4,27.8-7.8,42.5-5.1c5.3,1,10.1,3.3,15.1,5.7c-0.7-1.6-1.4-3.2-2.1-4.9
			c-3-8-5-16.1-5.8-24.6c-0.3-3.7-0.2-7.6-1.5-11.2c-3-2.3-6.3-3.9-10.1-4c-18.4-0.9-36.6,0.5-54.7,3.9
			c-21.3,3.9-41.5,10.6-59.2,23.6c-13.3,9.8-25.1,21-31.9,36.4c-10.7,24.6-7.8,52.9,20,71c9.5,6.2,19.8,10.6,30.7,13.8
			c19.9,5.9,40.2,7.1,60.8,6.4c21.5-0.8,42.3-4.1,61-15.7c1.5-0.9,1.7-0.2,1.9,1.1c0.4,3.1,1,6.2,1.4,9.3c0.2,2,1,2.7,3.1,2.7
			c12.2-0.1,24.4-0.1,36.6,0c2,0,2.8-0.7,3.4-2.5c2.9-9.7,5.8-19.3,8.8-29c0.8-2.5,1.8-5,2.2-8.1C292.3,360.5,291,361.4,289.6,362.2
			z M389.4,345.4c-1.8,0-3.3,0.9-4.6,2c-3.5,2.8-7.2,5.4-11.4,6.9c-1.5,0.6-1.5,1.4-1.3,2.6c0.6,3.8,0.9,7.5,0.5,11.4
			c-0.6,5.6-3.1,6.8-7.8,3.7c-4.2-2.8-7.7-6.6-10.9-10.4c-1.1-1.3-2.2-1.8-3.9-1.6c-4.6,0.5-9.3,0.4-14,0.5
			c-9.6,0.1-18.9-1.5-28.1-4.1c-2.3-1.6-3.4-1-4.3,1.8c-5.2,16.9-10.6,33.6-15.7,50.5c-3,9.8-7,19.4-8.4,29.7
			c-1.4,10.5,0.5,19.9,8.7,27.4c5.1,4.7,10.7,8.6,16.9,11.5c16.3,7.5,33.7,10.2,51.4,11.4c20.5,1.4,41,1.3,61.4-1
			c16.1-1.9,31.8-5.1,46.7-11.8c16.2-7.3,27.9-18.3,33.6-35.9c10.6-33,21-66.1,31.3-99.3c0.8-2.6-0.4-2.5-2.3-2.5
			c-20.4,0-40.8,0.1-61.2,0c-2.7,0-3.9,0.7-4.8,3.4c-8.9,29.4-17.8,58.7-27,88c-3.8,12-11.8,20-24.5,22.2c-8.6,1.5-17.3,0.9-26,0.1
			c-2.9-0.3-5.8-1-8.5-2.2c-8.2-3.6-11.1-10.1-8.5-18.7c8.6-27.7,17.2-55.3,25.8-83c0.3-0.9,1.2-2.1,0.4-2.9c-0.8-0.7-2,0.1-3,0.2
			C389.7,345.1,389.5,345.3,389.4,345.4z M259.9,281.6c2.4-8,7-13.7,13-18.4c5.2-4,10.6-7.8,16-11.6c7.8-5.5,15.7-10.8,23.5-16.2
			c1.5-1,3.4-2.1,3.1-4.1c-0.4-3.1,1.3-5.1,3-7.1c1.5-1.8,3.1-3.6,4.7-5.4c1.8-1.9,1.5-3.2-0.6-4.5c-1.9-1.2-3.9-2.5-5.6-4
			c-6.1-5.3-9.9-11.5-8.1-20.1c2.4-11.8,9.8-17.5,21.5-16c10.8,1.4,20.4,6.1,29.3,12.1c10.8,7.2,19.5,16.8,29,25.5
			c4.1,3.7,7.8,7.9,12.8,10.5c2.8,1.4,4.3,0.6,4.8-2.4c0.1-0.7,0-1.8,0.9-1.9c1.2-0.1,1.5,1,1.8,1.9c0.7,2.6-0.7,4.6-2.3,6.4
			c-1.5,1.8-3.4,2.4-5.6,1.7c-3.2-1-6.2-2.4-9-4.3c-8.8-6.1-17.5-12.2-26-18.8c-6.6-5.2-13.4-10.1-21-13.7
			c-5.7-2.8-11.6-4.8-18.2-4.3c-5.3,0.4-8.6,3.8-8.7,9.1c-0.1,4,1.3,7.5,3.9,10.5c2.1,2.5,4.6,4.6,7.1,6.6c2,1.5,2.2,3.2,0.6,5.2
			s-3.4,3.8-5.3,5.6c-1.3,1.1-2.5,2.3-3.7,3.6c-0.4,0.4-1.1,1-0.6,1.7c0.4,0.7,1.1,0.7,1.8,0.5c3.2-1.1,6.5-1.4,9.8-0.7
			c1,0.2,2.1-0.1,3.1-0.5c3-1,3.4-2.6,1.5-5.1c-3.5-4.6-3.3-13.1,0.3-17.4c0.7-0.8,1.7-1.4,0.8-2.6c-0.8-1.2-1.8-1.9-3.4-1.6
			c-1.3,0.3-2.2,1-3.1,1.9c-0.5,0.5-1.1,0.8-1.8,0.4c-0.7-0.4-0.7-1.1-0.6-1.8c0.3-4.9,5-8.6,9.9-7.7c5.4,1,10.1,3.4,14.4,6.6
			c7.5,5.4,14.8,11.1,22.4,16.4c7.5,5.2,13.7,12.6,23.5,14.1c1.9,0.3,2.7,2.7,2.5,4.4c-0.3,2-2.3,1-3.6,1c-4.2,0-8.4-0.2-12.2,2.2
			c-1.6,1-2,1.8,0,3c3.3,2,6.9,2.5,10.6,3.1c2,0.3,4.2,0.1,6.9,1.3c-7,1.4-13.2,1.1-19.3-0.5c-7.4-1.9-13.3-6.4-19.5-10.6
			c-3.9-2.6-7.4-5.6-11.7-7.7c-3.7-1.9-7-1.5-10.5,0.8c-6.2,4.2-9.5,10.2-11.8,17.1c-1.7,5.3-3.1,10.6-4.5,15.9
			c-0.6,2.3-2,3.3-4.3,3.3c-1.3,0-1.8-0.5-1.2-1.7c4.5-9.7,4.9-20.6,9.8-30.1c-1.1-0.6-1.9-0.1-2.8,0.1c-4.6,1.2-8.7,3.4-12.6,6
			c-10.7,7-21.2,14.3-31.4,22c-5.7,4.3-10.6,9.3-14.9,15c-4,5.3-5.5,11.1-3.5,17.7c3,9.8,7.3,19,12.8,27.7c3,4.8,7,7.7,12.9,7.5
			c0.7,0,1.3,0.2,2,0.3c6.5,1.2,11.6,4.8,15.8,9.6c3,3.5,6.9,4.9,11.3,5.5c5.7,0.8,11.4,0.7,17.1,0.6c10-0.2,16-9.8,11.4-18.8
			c-7.2-14.1-10.7-29.1-12-44.7c-1.1-13.4,2.5-25.9,8-37.9c0.4-0.9,1.3-1.7,0.8-2.9c-1.2,0.2-1.7,1.2-2.6,1.8
			c-0.4,0.2-0.7,0.8-1.2,0.3c-0.2-0.2-0.3-0.7-0.3-1c-0.2-4.9,6.1-9.7,10.7-8.3c3.2,1,6.1,2.6,8.8,4.6c10.2,7.4,20.3,14.8,31.2,21.3
			c1.6,1,3.2,2.1,4.9,3c2.7,1.4,3.7,0.8,3.8-2.2c0.1-2.2-0.2-4.4,0-6.6c0.1-1.7-1-4.1,0.9-4.9c1.9-0.8,3.7,1,5.3,2.2
			c0.4,0.3,0.7,0.6,1.1,1c3.5,3.4,5.8,7.6,7.5,12c0.6,1.5,1.4,2.1,2.9,2c2.9-0.1,5.8-0.5,8.5,0.4c5.1,1.6,9.3-0.2,13.4-3
			c1.4-1,2.4-2.1,2.4-3.9c0-0.5-0.3-1.2,0.4-1.5c0.8-0.4,1.2,0.4,1.6,0.9c2.1,2.3,4.8,3.4,7.9,3.6c6,0.3,12-0.4,18,0.8
			c1.9,0.4,3-0.6,3.2-2.7c0.6-4.8-0.5-9.1-3.8-12.7c-4.9-5.3-10.9-7-17.9-6.1c-1.6,0.2-2.8,0.5-3.8-1.7c-2.8-6.4-10-9.8-16.8-8.7
			c-8.8,1.4-17.1,4.4-25.7,6.8c-1,0.3-2,0.9-3.5,0.5c2.2-2.3,4.6-3.7,6.8-5.3c3.5-2.5,5.2-5.9,5.4-10.2c0.2-5.8-2.7-9.8-6.9-13.1
			c-7.6-6-15.3-12-23-18c-0.8-0.6-2.1-1.1-1.5-2.4c0.5-1,1.8-1,2.8-1.1c1.4,0,2.5,0.8,3.7,1.4c5.3,3.1,9.9,7.1,14.3,11.4
			c2.1,2.1,4.3,4.2,7.9,5.1c-2.7-5.4-6.5-9.6-8.2-15c3.5,1.4,5.7,4.2,7.6,7.1c1.6,2.5,2.9,5.1,4,7.9c6.3,15.6,20.7,19,31.4,17
			c2.2-0.4,4.3-1.3,4.5-4c0.4-5.2-0.7-9.7-5.4-12.6c-8.5-5.2-17.2-9.9-27.6-9.8c-1.3,0-2.8-0.1-3.6-1.4c0.6-1.3,2.3-0.1,2.3-1.5
			c0-0.5-0.6-1.2-1.1-1.5c-5.9-4.2-11.6-8.7-18.6-11.1c-16.1-5.5-32.2-10.8-48.5-15.3c-9.9-2.8-19.8-1.9-29.7,0.6
			c-1,0.3-2.1,0.5-1.8,2c0.1,0.8,1.3,1.9,0,2.5c-1.1,0.5-1.9-0.6-2.7-1.3c-1.3-1.1-2.5-2.3-3.6-3.6c-3.8-4.6-7.9-9.1-11.4-14
			c-5.4-7.5-13.2-10-21.6-11.3c-2.1-0.3-3.9,0.3-4.8,2.2c-3,6.7-9.4,10-14.2,14.9c-0.5,0.5-1.2,1.3-2.4,0.9c0.2-0.5,0.3-0.9,0.6-1.2
			c1.6-2.2,0.6-2.7-1.6-2.6c-3,0.2-5.9-0.3-8.8-1c-1.2-0.3-2.8-1-3.7,0.5c-0.8,1.3-0.2,2.6,0.5,3.8c3.4,5.8,8.3,9.8,15,10.9
			c5.7,1,11.4,1.1,17.1,0c4.8-0.9,9.1-2.8,11.6-7.4c0.5-0.9,1-1.8,1.7-2.7c0.5-0.8,1.2-1.8,2.2-1.4c0.9,0.3,1,1.4,0.9,2.2
			c-0.4,2.6,1,3.7,3.2,4.6c2.3,0.9,4,2.6,4.3,5.3c0.1,0.7,0,1.4-0.7,1.7c-0.6,0.3-1.1-0.3-1.4-0.7c-1.4-1.4-2.9-2.5-4.5-3.5
			c-1.7-0.9-3.2-1-4.4,0.9c-1.4,2-3.3,3.6-5.5,4.5c-3.1,1.2-2.9,2.9-2,5.4c1.9,5.1-0.8,9.4-2.8,13.7c-0.5-2.8-0.7-5.6-1.1-8.3
			s-1.3-3.2-3.9-2.2c-3.9,1.5-6.3,4.6-7.9,8.3c-4.7,10.3-10.3,20-16,29.7c-2.6,4.4-4.2,8.8-1,13.6c0.6,1,0.8,2.1-0.3,2.7
			c-2.5,1.3-0.9,2.4,0.2,3.4c3.3,2.9,6.7,5.7,10,8.5c2.6,2.3,4.7,5,6.1,8.2c1.3,2.9,1.3,5.1,0,6.9c-0.2-0.4-0.5-0.7-0.6-1
			c-1-5.7-5.1-9-9.6-11.9c-2.6-1.6-3.9-0.6-3.7,2.4c0.2,2.8,1,5.4,1.7,8.1C253.2,267.8,255.7,274.7,259.9,281.6z M395.7,445.7
			c1.7,0,3.4,0,5.1,0c12.4-0.4,23.1-7.8,26.5-18.7c9.7-31.3,19.2-62.6,28.9-93.8c0.7-2.2-0.1-2.2-1.8-1.9c-5,1-10,1.8-15,1.4
			c-3.7-0.3-6.7,0.2-9.6,2.7c-1.4,1.2-3.3,1.9-5,2.6c-6.4,2.7-13.1,4-19.9,4.6c-2.3,0.2-3.7,0.8-4.6,3.5
			c-8.7,28.7-17.5,57.4-26.4,86c-1.8,5.9-0.3,8.9,5.4,11.1C384.7,445.4,390.2,445.7,395.7,445.7z M227.1,308.3
			c-2.4-1.7-1.9-3.5-0.4-5.1c1.4-1.5,1.1-2.4-0.3-3.7c-3.1-2.9-6.7-5-10.8-6.1c-11.5-3.1-23-2.7-34.4,0.7c-6.5,2-11.7,5.9-15.5,11.6
			c-6,9-10.1,18.8-11.8,29.4c-1.6,9.5,2,16.2,9.8,19.3c2.1,0.8,2.7,0.3,3.3-1.7c3.7-12.3,7.6-24.5,11.4-36.8c0.8-2.5,0.9-6,2.7-7.3
			c1.7-1.3,5.1-0.5,7.8-0.5C201.6,308.3,214.4,308.3,227.1,308.3z M390.5,263.3c-4.8-2.7-10.1-4.5-14.1-8.2c-1.5-1.4-2.6-1.3-4,0.3
			c-3,3.4-5.6,2.9-7.7-1.1c-0.4-0.7-0.6-1.4-1-2.1c-2.1-4.3-3.9-4.5-7.1-1c-0.4,0.5-0.8,1-1.2,1.6c-2.9,4.3-2.9,4.3-6.6,0.6
			c-2.2-2.2-4.1-2.1-5.3,0.8c-4,9.6-4.2,19.5-2.2,29.5c1.2,5.9,6.6,7.9,12.1,5.3c1.9-0.9,3.4-2.4,5.1-3.6c4.8,8.6,6.3,8.9,14.2,3.3
			c1-0.7,2-1.4,3-2.2c4.3-3,8.4-6.4,13.5-7.8c4.9-1.3,8.1-3.8,8.7-9.1c0-0.1,0.1-0.2,0.1-0.3c0.1-1,1.3-2.2-0.2-3s-3.2-1.6-4.7,0.1
			c-0.9,1-1.8,2-2.7,3c-2.6,2.8-4.8,5.9-7.9,8.2c-2.8,2.1-3.9,1.8-5.6-1.1c-0.9-1.6-1.9-3.1-2.9-4.6c-2.7-3.7-3.5-3.7-6.1-0.1
			c-1.4,2-2.6,4.2-4.2,6.1c-2.6,3-4.3,3-6.6-0.2c-2-2.7-3.6-5.6-5.4-8.4c-1.5-2.3-2.4-2.4-4-0.2c-1.2,1.6-2.4,3.4-4.3,4.7
			c-0.4-1.6-0.4-2.7,0-3.9c1.1-3.1,2.8-5.8,4.8-8.4c1.5-1.9,2.6-1.4,3.6,0.4c1.5,2.6,3.1,5.3,4.6,7.9c3.1,5.2,3.2,5.2,6.9,0.3
			c1.9-2.5,3.4-5.3,6-7.2c3-2.1,4.9-1.7,6.3,1.7c1,2.3,1.5,4.7,2.4,7c0.9,2.5,2.7,3.1,4.5,1.2C385.1,269.8,387.7,266.5,390.5,263.3z
			 M255.3,285.6c-0.8-1.6-1.3-2.6-1.8-3.5c-4-7.1-7.1-14.6-8.2-22.7c-0.3-2.2-0.9-4.3-1.4-6.4c-0.2-0.9-0.4-1.8-1.7-1.3
			c-5.1,2.2-10.1,1.1-15.1-0.3c-2.1-0.6-2.5,0-2.4,1.9c0.6,14.2,4,27.6,10.5,40.3c0.8,1.6,1.5,1.6,2.8,0.6c2.4-1.9,4.9-3.6,7.3-5.5
			C248.1,286.6,250.9,284.7,255.3,285.6z M262.8,303.4c-1,2.9-3.5,3.7-6,4.3c-3.6,0.9-7.3,1.2-11.1,1.1c-1.8,0-2.3,0.5-1.4,2.1
			c0.6,1.1,1.2,2.2,1.9,3.2c8.8,14,22,22.7,36.5,29.8c1.5,0.8,2,0.2,2.2-1.3c0.6-3.4,1.3-6.9,3.1-10.2c-5,0-9-1.5-12.1-5.2
			c-4.7-5.5-8.3-11.6-10.7-18.4C264.6,307,264.3,305.1,262.8,303.4z M394.4,175.5c-0.8-3.8-1.6-7-3.6-9.9c-0.4-0.6-1.4-1.5-0.3-2.2
			c0.8-0.5,1.7,0.3,2.1,1.1c1.1,2.2,2.2,4.4,3.3,6.6c1.6,3,3.2,6.1,6.3,7.9c2.8,1.7,5.5,3.5,8.2,5.2c2.5,1.6,5.1,2.6,8.1,1.6
			c1.7-0.5,4.1-0.7,4.3-2.7c0.2-2-2.2-2.4-3.7-3.1c-7-2.9-12.8-7.3-16.2-14.1c-3.7-7.3-9.4-11-17.6-11.6c-9-0.7-11.9,2.4-14.5,10.7
			c-0.4,1.3-0.4,2.8,1.3,3.4C379.4,170.8,386.7,173.1,394.4,175.5z M254.6,200.7c-5,0-9-1.6-11.7-5.2c-1.9-2.6-2.9-1.8-4.4,0.3
			c-7.6,10.6-11.5,22.7-13.7,35.4c-0.3,1.8,0.5,1.8,1.9,1.5c4.4-1,8.8-1.9,13.3-0.7c1,0.3,1.4-0.3,1.3-1.2c-0.7-6,1.8-10.9,4.8-15.8
			C249,210.4,251.6,205.7,254.6,200.7z M350.7,347.2c-5.6,0.5-10.6,1.2-15.6,1.4c-10.1,0.3-20.3,0.6-29.1-6.2
			c-0.6,1.7-1,3.4-2.2,4.7c-1.7,2-0.8,2.7,1.2,3.5c13.9,5.9,28.6,5.8,43.3,5.6c1.8,0,2-0.8,1.5-2.4
			C349.2,351.7,349,349.5,350.7,347.2z M359.1,225.7c0.5-3.1,0.5-6.2,2.8-8c2.6-2,1.4-3.1-0.4-4.2c-4.8-3.1-9.7-6.1-14.5-9
			c-5-3.1-6.9-2.2-8.3,3.7c-0.4,1.6-0.5,3.2-0.3,4.8s0.3,3.2,0.2,4.8c-0.3,3.1,0.9,4.6,4.1,3.8C348.8,220,354.1,221.2,359.1,225.7z
			 M488.1,305.4c-5,0.5-9.9,0.9-13.1,4.6c-3.8,4.4-8.1,8.2-12.8,11.8c-1.1,0.9-2.2,1.8-3.2,2.8c-0.4,0.4-0.8,1-0.7,1.5
			c0.1,0.8,1,0.8,1.6,0.7c6.4-0.4,12.7-1.1,18.2-4.8C484.2,318.2,486.4,312.2,488.1,305.4z M245,304.1v0.1c2.2,0,4.4,0,6.6,0
			c8,0.1,9.1-1.5,6.7-9.7c-0.2-0.6-0.5-1.2-0.8-1.8c-1.9-2.9-4.4-3.8-7.3-2.3c-5.6,3-10.6,6.9-15.3,11.3c-0.6,0.6-1.4,1.2-1,2.2
			c0.4,0.9,1.4,0.7,2.3,0.7C239.1,304.5,242.1,304.3,245,304.1z M241.9,241c0-4.6-1.8-6.4-6.5-6c-5.5,0.5-10.8,2.1-15.9,4
			c-1.7,0.7-4.6,1-4.5,2.7c0,1.5,3,1.4,4.6,1.9c4.7,1.5,9.1,3.9,14,4.5C239.7,249,241.8,247.2,241.9,241z M289.3,357.3
			c4.4-3.8,8.2-7.5,11.1-12.1c3.8-6.1,3.5-7.5-2.7-11.1c-4.4-2.6-6.7-1.6-8.3,3.2C287.2,343.8,288,350.2,289.3,357.3z M481.5,276.3
			c5.3-0.1,9.5-2.9,10-7.2c0.8-6.5-0.9-12.4-5.2-17.5c-0.5-0.5-1-1.4-1.8-1c-0.7,0.4-0.4,1.4-0.3,2.1c0.9,3.8,0.1,7.3-1.8,10.7
			c-1.7,3-3,6.3-3.4,9.9C478.8,275.6,479.2,276.9,481.5,276.3z M258.1,190c0.2-2.2-0.9-3.7-2.7-4.6c-5.7-2.7-11.6-4.8-17.7-6.4
			c-0.5-0.1-1.2-0.4-1.6,0.1c-0.4,0.5,0,1.1,0.3,1.6c3.6,4.8,7.3,9.6,11.4,13.9c1.9,1.9,4.5,2.9,7.1,1.7
			C257.5,195.2,257.9,192.6,258.1,190z M403.4,252.7c-0.8,7.2-1.1,14.1-4,20.5c-0.1,0.2,0,0.4-0.1,0.6c-0.2,1.3,0.2,2,1.7,1.8
			c3-0.3,5.8-0.9,8.6-1.8c2.5-0.8,3.2-2.4,2.4-4.9c-1.4-4.1-3.4-7.9-5.3-11.7C406,255.8,405.5,254.1,403.4,252.7z M367.6,363.4
			c0-4.7-1.5-9.2-2.6-13.7c-0.2-0.8-0.7-1.4-1.4-1.7c-1.7-0.7-7.6,1-8.8,2.5c-0.9,1.1-1,2.3-0.3,3.5c2.8,4.7,6.1,9,10.4,12.4
			c1.6,1.3,2.6,0.9,2.7-1.2C367.6,364.5,367.6,363.9,367.6,363.4z M469.5,267.2c-1.5,0.2-3.1,0.3-4.7,0.5c-4.3,0.6-5.3,2-5.3,6.5
			c0,1.4,0.4,2,1.9,2c3.2,0.2,6.4,0.7,9.4,2c1.5,0.7,2.6,0.1,3.4-1.2c1.5-2.5,1.4-5.1,0.3-7.6C473.6,267.3,471.4,267.6,469.5,267.2z
			 M261,185.3c3.7-4,7.1-7.9,12.5-9.3c-3.8,0.1-7.6,0.5-11.1-0.7c-4.5-1.5-6.8,1.1-9.5,3.9C256,181,259.5,181.6,261,185.3z
			 M439.1,275.1c3.8-0.1,7.6-1,11.3-0.5c5.1,0.7,5.2,0.7,5.1-4.7c0-0.6-0.1-1.3-0.2-2.2c-2,0.8-3.9,0.6-5.9,0.6
			C444.9,268.5,440.6,269.6,439.1,275.1z M426,275.6c3.1,0,5.5,0.2,7.8-0.5c1.2-0.4,2.8-0.4,2.6-2.3c-0.3-1.9-1.6-2-3.2-1.7
			c-3.4,0.6-6.7,1.2-9.9-0.7c-1.4-0.8-3-0.3-4.3,0.6c-1.3,0.8-1.4,2.2-1.1,3.6c0.1,0.6,0.3,1.4,1.3,1.1
			C421.7,274.8,424.2,276,426,275.6z M417.3,228.4c0.3,0.7-0.5,2.3,1.4,2.6c1.4,0.2,6.8-1.9,6.9-2.5c0-0.1,0-0.2-0.1-0.3
			c-0.8-2.1-1.7-4.3-3.7-5.6c-2.4-1.6-3.5-1-4,1.8C417.7,225.7,417.5,226.9,417.3,228.4z M367.6,227c2.5,0.1,5-2.1,4.9-4.1
			c-0.1-1.7-1-2.9-2.8-3c-2.4-0.1-4.8,2.1-4.8,4.3C364.9,226.2,366.2,226.7,367.6,227z M379.7,345.1c-3.7,0.6-6.7,1-9.6,1.7
			c-2,0.5-0.5,1.8-0.4,2.8c0.1,0.9,0.3,2.1,1.8,1.4C374.3,349.6,377,348,379.7,345.1z"/>
		<path class="st1" d="M307.9,356.3c9.2,2.6,18.5,4.2,28.1,4.1c4.7,0,9.3,0,14-0.5c1.7-0.2,2.8,0.3,3.9,1.6
			c3.2,3.9,6.7,7.6,10.9,10.4c4.7,3.1,7.1,1.9,7.8-3.7c0.4-3.8,0.1-7.6-0.5-11.4c-0.2-1.2-0.2-2.1,1.3-2.6c4.2-1.6,7.9-4.1,11.4-6.9
			c1.4-1.1,2.8-2,4.6-2c-0.2,0.6-0.3,1.3-0.5,1.9c-8.6,27.6-17.2,55.3-25.7,82.9c-3,9.6,0.7,17.8,9.7,22c1.9,0.9,3.9,1.6,5.9,2.1
			c8,2.1,16.3,1.8,24.5,1.6c17.5-0.5,29.6-9.9,34.8-26.6c8.7-28.4,17.4-56.8,26.1-85.2c0.5-1.5,0.8-2.6,2.9-2.6
			c18.6,0.1,37.2,0.1,55.8,0c2.2,0,2.3,0.8,1.7,2.5c-10.2,32.7-20.1,65.5-31.1,98c-3.7,10.9-10.6,19-20.1,25.1
			c-10.2,6.5-21.4,10.3-33.1,13c-17.8,4.2-35.9,5.7-54.2,5.8c-20.1,0.2-40-0.6-59.7-5.2c-12.3-2.9-23.8-7.4-33.6-15.7
			c-7.4-6.3-11.1-13.9-10.1-23.6c0.4-3.6,0.9-7.2,2-10.6C292.5,405.9,300.2,381.1,307.9,356.3z"/>
		<path class="st1" d="M220.2,250.7c1.3,3.6,1.1,7.5,1.5,11.2c0.8,8.5,2.8,16.7,5.8,24.6c-10.1-5-20.9-6.3-32-5.8
			c-12,0.6-23.5,3.4-32.2,12.1c-13.7,13.7-21,30.3-20.2,49.9c0.4,9.7,4.6,17.8,14.5,21c15.7,5.1,31.6,5.4,47.4-0.4
			c8.4-3.1,14.7-8.8,19.8-16.6c-1.3,0-2.3,0-3.2,0c-12.7,0-25.4,0-38.1,0c-2.4,0-3.2-0.2-2.3-2.9c2.5-7.2,4.7-14.5,6.8-21.8
			c0.7-2.3,1.6-3.1,4.1-3c17.7,0.1,35.5,0,53.2,0c9.4,13.6,22.4,22.4,37.4,28.6c1.3,0.6,1.6,1.3,1.7,2.6c0.2,2.7,0.4,5.5,0.6,8.2
			c0.4,3.8,0.9,4.2,4.6,3.8c-3.2,10.7-6.4,21.3-9.6,32c-0.5,1.7-1.7,1.2-2.8,1.2c-10.3,0-20.6-0.1-30.9,0.1c-2.3,0-3.1-0.6-3.3-2.9
			c-0.5-4.7-1.3-9.3-2.1-14.5c-3.8,3.4-7.3,6.1-11.3,8.1c-9.5,4.9-19.6,8-30,9.7c-19.8,3.3-39.7,3.3-59.6,1
			c-17.9-2.1-35.1-7.1-50.7-16.4c-12.2-7.2-21.9-16.7-25.4-31c-4.3-17.5-0.4-33.7,9.8-48.3c10.4-15,24.6-25.8,40.7-33.9
			c22.1-11.1,46-14.9,70.4-16.8C196.5,249.5,208.4,250.1,220.2,250.7z"/>
		<path class="st2" d="M259.9,281.6c-4.2-6.9-6.7-13.8-8.8-21c-0.8-2.6-1.6-5.3-1.7-8.1c-0.2-3.1,1.1-4,3.7-2.4
			c4.5,2.8,8.6,6.1,9.6,11.9c0.1,0.3,0.3,0.6,0.6,1c1.2-1.7,1.2-4,0-6.9c-1.4-3.2-3.5-5.9-6.1-8.2c-3.3-2.9-6.7-5.6-10-8.5
			c-1.1-1-2.7-2-0.2-3.4c1.2-0.6,1-1.8,0.3-2.7c-3.2-4.8-1.6-9.2,1-13.6c5.7-9.7,11.4-19.4,16-29.7c1.7-3.6,4-6.7,7.9-8.3
			c2.6-1,3.5-0.5,3.9,2.2s0.6,5.5,1.1,8.3c2-4.3,4.7-8.6,2.8-13.7c-0.9-2.6-1.2-4.3,2-5.4c2.2-0.8,4.1-2.4,5.5-4.5
			c1.2-1.9,2.7-1.8,4.4-0.9c1.7,0.9,3.2,2.1,4.5,3.5c0.4,0.4,0.8,1,1.4,0.7c0.7-0.3,0.8-1,0.7-1.7c-0.3-2.7-2-4.3-4.3-5.3
			c-2.2-0.9-3.6-2-3.2-4.6c0.1-0.8,0-1.9-0.9-2.2c-1.1-0.4-1.7,0.7-2.2,1.4c-0.6,0.8-1.2,1.7-1.7,2.7c-2.5,4.7-6.8,6.5-11.6,7.4
			c-5.7,1.1-11.4,1-17.1,0c-6.7-1.2-11.6-5.1-15-10.9c-0.7-1.2-1.3-2.5-0.5-3.8c0.9-1.4,2.4-0.7,3.7-0.5c2.9,0.7,5.8,1.2,8.8,1
			c2.2-0.1,3.2,0.4,1.6,2.6c-0.3,0.3-0.4,0.8-0.6,1.2c1.2,0.3,1.9-0.4,2.4-0.9c4.8-4.9,11.2-8.3,14.2-14.9c0.9-2,2.7-2.6,4.8-2.2
			c8.5,1.4,16.3,3.8,21.6,11.3c3.5,4.9,7.5,9.4,11.4,14c1.1,1.3,2.3,2.5,3.6,3.6c0.8,0.7,1.6,1.7,2.7,1.3c1.3-0.6,0.2-1.6,0-2.5
			c-0.3-1.5,0.8-1.7,1.8-2c9.8-2.5,19.8-3.3,29.7-0.6c16.3,4.6,32.4,9.9,48.5,15.3c7,2.4,12.7,6.9,18.6,11.1c0.5,0.4,1.2,1,1.1,1.5
			c-0.1,1.3-1.8,0.2-2.3,1.5c0.8,1.3,2.2,1.4,3.6,1.4c10.4-0.1,19.1,4.6,27.6,9.8c4.7,2.9,5.9,7.5,5.4,12.6c-0.2,2.7-2.3,3.6-4.5,4
			c-10.7,1.9-25.1-1.4-31.4-17c-1.1-2.8-2.3-5.4-4-7.9c-1.9-2.9-4.2-5.6-7.6-7.1c1.6,5.4,5.5,9.6,8.2,15c-3.6-0.8-5.8-3-7.9-5.1
			c-4.4-4.3-9-8.3-14.3-11.4c-1.1-0.7-2.3-1.5-3.7-1.4c-1,0-2.3,0-2.8,1.1c-0.6,1.3,0.8,1.8,1.5,2.4c7.7,6,15.4,12,23,18
			c4.2,3.3,7.1,7.3,6.9,13.1c-0.2,4.3-1.8,7.7-5.4,10.2c-2.2,1.6-4.6,3-6.8,5.3c1.5,0.3,2.5-0.3,3.5-0.5c8.5-2.4,16.9-5.4,25.7-6.8
			c6.7-1.1,13.9,2.4,16.8,8.7c1,2.2,2.2,1.9,3.8,1.7c7-0.9,13.1,0.8,17.9,6.1c3.3,3.6,4.3,7.9,3.8,12.7c-0.2,2-1.3,3.1-3.2,2.7
			c-6-1.2-12-0.5-18-0.8c-3-0.2-5.7-1.3-7.9-3.6c-0.4-0.5-0.8-1.2-1.6-0.9c-0.7,0.3-0.4,1-0.4,1.5c0.1,1.8-0.9,3-2.4,3.9
			c-4.1,2.7-8.3,4.6-13.4,3c-2.8-0.9-5.7-0.5-8.5-0.4c-1.6,0.1-2.3-0.5-2.9-2c-1.7-4.5-4-8.7-7.5-12c-0.3-0.3-0.7-0.7-1.1-1
			c-1.6-1.2-3.4-3-5.3-2.2s-0.8,3.2-0.9,4.9c-0.1,2.2,0.1,4.4,0,6.6c-0.1,3-1,3.6-3.8,2.2c-1.7-0.9-3.2-2-4.9-3
			c-10.8-6.4-21-13.9-31.2-21.3c-2.7-2-5.6-3.6-8.8-4.6c-4.7-1.4-10.9,3.4-10.7,8.3c0,0.3,0.1,0.8,0.3,1c0.5,0.4,0.8-0.1,1.2-0.3
			c0.9-0.6,1.4-1.6,2.6-1.8c0.5,1.2-0.4,2-0.8,2.9c-5.5,12-9,24.5-8,37.9c1.2,15.6,4.7,30.6,12,44.7c4.6,8.9-1.4,18.5-11.4,18.8
			c-5.7,0.1-11.4,0.2-17.1-0.6c-4.4-0.6-8.3-2.1-11.3-5.5c-4.2-4.9-9.3-8.4-15.8-9.6c-0.7-0.1-1.3-0.4-2-0.3
			c-5.9,0.2-9.9-2.7-12.9-7.5c-5.5-8.7-9.7-17.9-12.8-27.7c-2-6.6-0.6-12.4,3.5-17.7c4.3-5.7,9.2-10.7,14.9-15
			c10.2-7.7,20.8-14.9,31.4-22c3.9-2.6,8-4.8,12.6-6c0.9-0.2,1.8-0.7,2.8-0.1c-4.9,9.5-5.3,20.4-9.8,30.1c-0.6,1.3-0.1,1.7,1.2,1.7
			c2.3,0,3.7-1,4.3-3.3c1.4-5.3,2.7-10.7,4.5-15.9c2.3-6.9,5.6-12.9,11.8-17.1c3.4-2.3,6.7-2.7,10.5-0.8c4.2,2.1,7.8,5.1,11.7,7.7
			c6.1,4.2,12.1,8.7,19.5,10.6c6.1,1.6,12.3,1.9,19.3,0.5c-2.7-1.1-4.9-0.9-6.9-1.3c-3.7-0.6-7.3-1.1-10.6-3.1c-1.9-1.2-1.6-2,0-3
			c3.8-2.3,8-2.2,12.2-2.2c1.3,0,3.3,1,3.6-1c0.2-1.7-0.6-4.1-2.5-4.4c-9.8-1.5-16-9-23.5-14.1c-7.6-5.2-14.9-10.9-22.4-16.4
			c-4.4-3.2-9.1-5.6-14.4-6.6c-4.9-0.9-9.5,2.8-9.9,7.7c0,0.7-0.1,1.4,0.6,1.8c0.7,0.4,1.3,0.1,1.8-0.4c0.9-0.8,1.9-1.6,3.1-1.9
			c1.5-0.3,2.6,0.3,3.4,1.6s-0.2,1.9-0.8,2.6c-3.7,4.3-3.8,12.8-0.3,17.4c1.9,2.5,1.5,4.1-1.5,5.1c-1,0.3-2.1,0.7-3.1,0.5
			c-3.4-0.7-6.6-0.4-9.8,0.7c-0.7,0.2-1.4,0.2-1.8-0.5c-0.4-0.8,0.2-1.3,0.6-1.7c1.2-1.2,2.4-2.4,3.7-3.6c1.9-1.7,3.7-3.5,5.3-5.6
			c1.5-1.9,1.3-3.7-0.6-5.2c-2.6-2-5.1-4.1-7.1-6.6c-2.5-3-3.9-6.5-3.9-10.5c0.1-5.3,3.4-8.7,8.7-9.1c6.5-0.5,12.4,1.5,18.2,4.3
			c7.6,3.7,14.4,8.6,21,13.7c8.4,6.6,17.2,12.7,26,18.8c2.8,1.9,5.8,3.3,9,4.3c2.2,0.7,4.1,0,5.6-1.7c1.6-1.9,3-3.8,2.3-6.4
			c-0.2-0.9-0.6-2.1-1.8-1.9c-0.9,0.1-0.8,1.2-0.9,1.9c-0.5,3.1-2,3.9-4.8,2.4c-5-2.6-8.7-6.7-12.8-10.5c-9.5-8.7-18.2-18.3-29-25.5
			c-8.9-6-18.5-10.7-29.3-12.1c-11.7-1.5-19.1,4.2-21.5,16c-1.7,8.6,2,14.8,8.1,20.1c1.7,1.5,3.6,2.8,5.6,4c2.2,1.3,2.4,2.7,0.6,4.5
			c-1.7,1.7-3.2,3.5-4.7,5.4c-1.7,2-3.4,4-3,7.1c0.3,2-1.7,3.1-3.1,4.1c-7.8,5.4-15.7,10.8-23.5,16.2c-5.4,3.8-10.8,7.6-16,11.6
			C266.9,267.8,262.3,273.6,259.9,281.6z M431.8,233.5c-0.7,0.1-1.9,0.1-3,0.5c-5.3,1.7-10.5,3.5-15.7,5.2c-0.8,0.3-1.6,0.7-2.3,1.2
			c-0.9,0.7-2,1.4-1.7,2.7c0.2,1.2,1.4,1.4,2.4,1.7c3.1,0.7,6.1,1.6,9.2,2.1c6,1,11.8,2.2,15.5,7.8c1.1,1.6,3.3,2.3,5.1,0.8
			c3.9-3.1,5.4-7.3,5-12.2c-0.4-4.4-2.8-7.3-7.1-8.7C436.9,234,434.5,233.8,431.8,233.5z M291.8,284c0.1,0.9,0.3,1.8,0.4,2.7
			c0.1,0.8,0.1,1.7,0.9,1.9c0.9,0.2,1.6-0.6,2-1.3c0.9-1.8,1.6-3.6,2.4-5.5c5.7-14.1,11.8-27.9,23.6-38.2c0.7-0.6,1.5-1.4,0.8-2.4
			s-1.9-0.8-2.9-0.4c-2.9,1.3-5.3,3.4-7.4,5.7c-6.6,7.4-11.8,15.9-16.1,24.8C293.7,275.3,292.3,279.5,291.8,284z M341.7,166.6
			c-0.7,0-1.5-0.1-1.7,0.6c-0.2,0.8,0.5,1.1,1.2,1.4c0.3,0.2,0.7,0.3,1.1,0.4c4.6,1.6,8.9,3.8,12.6,7.1c1.2,1.1,2.5,2.1,3.9,2.8
			c1.1,0.6,2.7,1.4,3.6,0s-0.3-2.7-1.2-3.7c-0.3-0.3-0.8-0.6-1.2-0.8c-3.5-1.9-7-3.8-10.6-5.6C346.9,167.6,344.4,166.8,341.7,166.6z
			 M296.5,218c3.5-2.1,5.2-5.1,3.8-9.1c-1.7-5-4-9.9-3.8-15.4c0-0.8-0.4-2.1-1.6-2c-1.1,0.1-0.9,1.2-1,2.1c-0.7,4.9,1,9.2,3.5,13.3
			c1.8,3,1.7,5.9,0.2,8.9C297.2,216.5,296.9,217.3,296.5,218z M459.1,251.5c1.4-0.4,2.7-0.9,2.5-2.6c-0.2-1.7-1.3-2.7-3.1-2.7
			c-1.6,0-2.6,0.9-2.4,2.5C456.2,250.6,457.6,251.1,459.1,251.5z M424.5,254.9c-0.2-1.4-1.1-2.4-2.6-2.5c-1.6-0.1-2.8,1-2.8,2.6
			c0,1.5,1,2.5,2.5,2.6C423.3,257.6,424.2,256.6,424.5,254.9z M466.3,249.9c-1.5,0.4-2.7,1.2-2.9,3c-0.1,1.1,0.4,1.9,1.6,1.8
			c1.7-0.1,2.8-1.3,3.1-2.9C468.3,250.6,467.5,250,466.3,249.9z M413,247.7c-1.2,0.3-2.6,0.6-2.6,2.2c-0.1,1.3,1,1.8,2.2,1.7
			c1.4-0.1,2.8-0.5,2.8-2.2C415.3,248.1,414,247.9,413,247.7z M396.5,253.1c-0.1-1.1-0.6-1.9-1.7-2c-1.3-0.1-2.1,0.7-2.3,2
			c-0.1,1.1,0.4,1.8,1.6,1.9C395.5,255.1,396.1,254.2,396.5,253.1z"/>
		<path class="st2" d="M471.6,308.3c-6.6,7.4-14,13.7-22.7,18.4c-3.6,1.9-7.5,2-11.4,1.6c-1.3-0.1-1.7-0.6-1-1.8
			c0.9-1.7,1.7-3.4,2.6-5.1c0.2-0.4,0.4-0.9,0-1.3s-0.9-0.2-1.3,0c-1.4,0.5-2.4,1.5-3,2.9c-3.1,7.4-9.2,10.7-16.5,12.8
			c-6.7,1.9-13.5,3.4-20.6,3c-10.2-0.6-19.8,2.7-29.5,4.7c-4.9,1-9.7,0.8-14.3-0.9c-1.2-0.4-2.3-0.8-1.3-2.6
			c2.9-5,2.6-10.3,0.3-15.4c-3.3-7.2-6.1-14.6-7.8-22.3c-0.2-0.7-0.6-1.4-0.2-2.3c7.4,5.1,15,5.8,22.7,0.8c2.1-1.3,3.8-3.2,5.7-4.8
			c6.7-5.5,13.1-11.5,21.4-14.6c8.5-3.2,17.1-4.6,26.1-2.4c6.5,1.6,12.9,0.1,19.4,0.1c13.1,0.1,26.1,1.1,38.4,6.3
			c0.6,0.3,1.3,0.5,1.9,0.5c1.6,0.1,3.7,0.2,4.3-1.5c0.6-2-1.7-2-2.9-2.7c-0.9-0.5-2-0.9-3-1.6c5.5-0.9,10.3-3.2,15.2-5.5
			c5.3-2.5,10.3,0.3,11.4,6c0.4,2.3,0.9,4.7,0.7,7.1c-0.2,4.1-2.5,7.4-6.2,8.5c-7.3,2.2-14.1,5.8-21.8,6.5c-7.4,0.6-14.2-1.5-20.9-4
			c-16.3-5.9-33.1-8.8-50.3-10.3c-5.6-0.5-10.7,1.1-15.9,3.1c-3.1,1.2-6.2,2.5-9,4.2c-0.9,0.5-2,1.3-1.6,2.4c0.4,1,1.7,0.7,2.6,0.6
			c6.4-1.1,12.8-2.2,19.2-3.3c11.5-2,22.6-0.3,33.3,4.2c11.6,4.9,23.3,9.1,36.2,8.3C471.4,308.1,471.5,308.2,471.6,308.3z"/>
		<path class="st3" d="M307.9,356.3c-7.7,24.8-15.4,49.6-23.2,74.4c-1.1,3.5-1.6,7-2,10.6c-1,9.7,2.6,17.4,10.1,23.6
			c9.8,8.3,21.3,12.8,33.6,15.7c19.6,4.6,39.6,5.4,59.7,5.2c18.2-0.1,36.4-1.6,54.2-5.8c11.6-2.7,22.9-6.6,33.1-13
			c9.6-6.1,16.4-14.1,20.1-25.1c11.1-32.4,21-65.3,31.1-98c0.5-1.7,0.5-2.5-1.7-2.5c-18.6,0.1-37.2,0.1-55.8,0
			c-2.1,0-2.4,1.1-2.9,2.6c-8.7,28.4-17.4,56.8-26.1,85.2c-5.2,16.7-17.3,26.1-34.8,26.6c-8.2,0.2-16.4,0.5-24.5-1.6
			c-2-0.5-4-1.2-5.9-2.1c-9-4.3-12.7-12.5-9.7-22c8.5-27.6,17.1-55.3,25.7-82.9c0.2-0.6,0.3-1.3,0.5-1.9c0.2-0.1,0.3-0.2,0.5-0.3
			c1-0.1,2.2-1,3-0.2c0.9,0.8-0.1,2-0.4,2.9c-8.6,27.7-17.2,55.3-25.8,83c-2.6,8.5,0.3,15.1,8.5,18.7c2.7,1.2,5.6,2,8.5,2.2
			c8.7,0.8,17.4,1.3,26-0.1c12.7-2.2,20.8-10.1,24.5-22.2c9.2-29.3,18.1-58.7,27-88c0.8-2.7,2-3.5,4.8-3.4c20.4,0.1,40.8,0.1,61.2,0
			c1.8,0,3.1-0.1,2.3,2.5c-10.3,33.1-20.7,66.2-31.3,99.3c-5.7,17.6-17.4,28.6-33.6,35.9c-14.9,6.7-30.6,9.9-46.7,11.8
			c-20.4,2.4-40.9,2.5-61.4,1c-17.7-1.2-35.1-3.9-51.4-11.4c-6.3-2.9-11.8-6.9-16.9-11.5c-8.3-7.5-10.2-16.9-8.7-27.4
			c1.4-10.3,5.5-19.8,8.4-29.7c5.1-16.9,10.6-33.6,15.7-50.5C304.5,355.2,305.6,354.7,307.9,356.3z"/>
		<path class="st3" d="M220.2,250.7c-11.8-0.6-23.6-1.2-35.4-0.2c-24.4,1.9-48.3,5.7-70.4,16.8c-16.1,8.1-30.3,18.9-40.7,33.9
			c-10.2,14.6-14.1,30.8-9.8,48.3c3.5,14.3,13.2,23.7,25.4,31c15.6,9.3,32.8,14.3,50.7,16.4c19.9,2.3,39.8,2.3,59.6-1
			c10.5-1.8,20.6-4.9,30-9.7c4-2.1,7.6-4.7,11.3-8.1c0.8,5.2,1.6,9.8,2.1,14.5c0.2,2.3,1,3,3.3,2.9c10.3-0.1,20.6,0,30.9-0.1
			c1,0,2.3,0.4,2.8-1.2c3.2-10.7,6.4-21.3,9.6-32c1.4-0.8,2.7-1.6,4.4-2.6c-0.4,3.1-1.4,5.5-2.2,8.1c-2.9,9.7-5.9,19.3-8.8,29
			c-0.5,1.9-1.4,2.6-3.4,2.5c-12.2-0.1-24.4-0.1-36.6,0c-2.1,0-2.9-0.7-3.1-2.7c-0.3-3.1-0.9-6.2-1.4-9.3c-0.2-1.3-0.4-2.1-1.9-1.1
			c-18.7,11.6-39.5,15-61,15.7c-20.6,0.7-41-0.5-60.8-6.4c-10.8-3.2-21.1-7.6-30.7-13.8c-27.7-18-30.7-46.4-20-71
			c6.7-15.4,18.5-26.6,31.9-36.4c17.7-13,37.9-19.7,59.2-23.6c18.1-3.3,36.3-4.7,54.7-3.9C213.9,246.9,217.2,248.4,220.2,250.7z"/>
		<path class="st1" d="M227.1,308.3c-12.7,0-25.5,0-38.2,0c-2.7,0-6-0.8-7.8,0.5c-1.7,1.3-1.9,4.8-2.7,7.3
			c-3.8,12.2-7.7,24.5-11.4,36.8c-0.6,2-1.2,2.5-3.3,1.7c-7.8-3.1-11.3-9.9-9.8-19.3c1.8-10.7,5.8-20.4,11.8-29.4
			c3.8-5.7,8.9-9.6,15.5-11.6c11.4-3.4,22.9-3.8,34.4-0.7c4.1,1.1,7.7,3.2,10.8,6.1c1.4,1.3,1.7,2.2,0.3,3.7
			C225.3,304.7,224.7,306.5,227.1,308.3z"/>
		<path class="st3" d="M245.2,319c-17.7,0-35.5,0.1-53.2,0c-2.4,0-3.4,0.7-4.1,3c-2.1,7.3-4.4,14.6-6.8,21.8
			c-0.9,2.7-0.1,2.9,2.3,2.9c12.7-0.1,25.4,0,38.1,0c0.9,0,1.9,0,3.2,0c-5,7.8-11.4,13.4-19.8,16.6c-15.7,5.9-31.6,5.5-47.4,0.4
			c-9.8-3.2-14-11.3-14.5-21c-0.8-19.6,6.5-36.2,20.2-49.9c8.7-8.7,20.2-11.5,32.2-12.1c11.1-0.6,21.9,0.8,32,5.8
			c0.7,1.6,1.4,3.2,2.1,4.9c-5-2.4-9.8-4.7-15.1-5.7c-14.7-2.7-29-2.4-42.5,5.1c-3.7,2-7,4.7-9.6,8c-9.5,12-15.6,25.5-15.8,41.1
			c-0.1,3.8,0.6,7.6,2.2,11.1c2.1,4.6,5.4,8,10.2,9.4c15.2,4.6,30.4,5.1,45.4-0.8c4.7-1.9,9-4.6,12.4-8.5c-0.8-1.2-2-0.7-2.9-0.7
			c-11.7,0-23.5-0.1-35.2,0c-2.4,0-3.2-0.4-2.3-3c3.2-9.7,6.2-19.4,9.1-29.2c0.7-2.4,1.9-3,4.3-3c16.5,0.1,33,0.1,49.5,0
			C242.1,315.3,244.1,316.1,245.2,319z"/>
		<path class="st1" d="M390.5,263.3c-2.8,3.3-5.5,6.5-8.3,9.6c-1.8,1.9-3.6,1.4-4.5-1.2c-0.8-2.3-1.4-4.8-2.4-7
			c-1.4-3.3-3.3-3.7-6.3-1.7c-2.7,1.8-4.2,4.7-6,7.2c-3.7,4.9-3.8,4.9-6.9-0.3c-1.5-2.6-3.1-5.3-4.6-7.9c-1-1.8-2.1-2.3-3.6-0.4
			c-2,2.6-3.7,5.3-4.8,8.4c-0.4,1.2-0.5,2.3,0,3.9c2-1.4,3.1-3.1,4.3-4.7c1.7-2.2,2.5-2.2,4,0.2c1.8,2.8,3.5,5.7,5.4,8.4
			c2.3,3.2,4,3.2,6.6,0.2c1.6-1.9,2.8-4.1,4.2-6.1c2.6-3.7,3.5-3.7,6.1,0.1c1.1,1.5,2,3,2.9,4.6c1.8,3,2.8,3.2,5.6,1.1
			c3.1-2.3,5.3-5.4,7.9-8.2c0.9-1,1.8-2,2.7-3c1.5-1.6,3.2-0.9,4.7-0.1s0.3,2,0.2,3c0,0.1-0.1,0.2-0.1,0.3c-0.6,5.3-3.8,7.8-8.7,9.1
			c-5.1,1.4-9.2,4.8-13.5,7.8c-1,0.7-2,1.4-3,2.2c-7.8,5.7-9.4,5.3-14.2-3.3c-1.7,1.2-3.2,2.7-5.1,3.6c-5.5,2.6-10.9,0.6-12.1-5.3
			c-2-9.9-1.8-19.9,2.2-29.5c1.2-2.8,3.1-3,5.3-0.8c3.7,3.7,3.7,3.7,6.6-0.6c0.4-0.5,0.8-1.1,1.2-1.6c3.2-3.6,5-3.3,7.1,1
			c0.3,0.7,0.6,1.4,1,2.1c2.2,4,4.7,4.5,7.7,1.1c1.4-1.6,2.5-1.7,4-0.3C380.5,258.8,385.7,260.6,390.5,263.3z"/>
		<path class="st3" d="M255.3,285.6c-4.3-0.9-7.1,0.9-9.9,3.1c-2.4,1.9-4.9,3.6-7.3,5.5c-1.3,1-2,1-2.8-0.6
			c-6.5-12.7-9.9-26.1-10.5-40.3c-0.1-1.9,0.3-2.5,2.4-1.9c5,1.4,10,2.5,15.1,0.3c1.2-0.5,1.5,0.4,1.7,1.3c0.5,2.1,1.1,4.3,1.4,6.4
			c1.1,8.2,4.2,15.6,8.2,22.7C254,283.1,254.4,284,255.3,285.6z"/>
		<path class="st3" d="M262.8,303.4c1.4,1.7,1.8,3.6,2.4,5.4c2.4,6.8,6,12.9,10.7,18.4c3.1,3.7,7.1,5.2,12.1,5.2
			c-1.8,3.3-2.5,6.8-3.1,10.2c-0.3,1.5-0.7,2-2.2,1.3c-14.5-7.1-27.6-15.8-36.5-29.8c-0.7-1-1.2-2.1-1.9-3.2c-1-1.6-0.4-2.1,1.4-2.1
			c3.7,0.1,7.4-0.2,11.1-1.1C259.3,307,261.8,306.3,262.8,303.4z"/>
		<path class="st2" d="M394.4,175.5c-7.7-2.4-15-4.7-22.3-7c-1.7-0.5-1.7-2.1-1.3-3.4c2.6-8.3,5.5-11.4,14.5-10.7
			c8.2,0.6,13.9,4.3,17.6,11.6c3.4,6.9,9.2,11.3,16.2,14.1c1.5,0.6,3.8,1.1,3.7,3.1c-0.2,2.1-2.6,2.2-4.3,2.7c-3,1-5.6-0.1-8.1-1.6
			c-2.7-1.7-5.4-3.5-8.2-5.2c-3.1-1.9-4.7-4.9-6.3-7.9c-1.1-2.2-2.2-4.4-3.3-6.6c-0.4-0.8-1.3-1.6-2.1-1.1c-1.1,0.6-0.1,1.5,0.3,2.2
			C392.8,168.5,393.6,171.7,394.4,175.5z"/>
		<path class="st3" d="M254.6,200.7c-3,5-5.6,9.7-8.5,14.3c-3,4.9-5.5,9.8-4.8,15.8c0.1,1-0.2,1.5-1.3,1.2
			c-4.5-1.2-8.9-0.3-13.3,0.7c-1.4,0.3-2.2,0.2-1.9-1.5c2.2-12.7,6.1-24.8,13.7-35.4c1.5-2.1,2.4-2.9,4.4-0.3
			C245.6,199.1,249.6,200.7,254.6,200.7z"/>
		<path class="st3" d="M350.7,347.2c-1.7,2.3-1.5,4.5-0.9,6.6c0.5,1.6,0.3,2.4-1.5,2.4c-14.7,0.2-29.4,0.3-43.3-5.6
			c-2-0.8-2.9-1.6-1.2-3.5c1.1-1.3,1.5-3,2.2-4.7c8.8,6.7,19,6.4,29.1,6.2C340.2,348.5,345.2,347.7,350.7,347.2z"/>
		<path class="st1" d="M359.1,225.7c-5-4.5-10.3-5.7-16.4-4.2c-3.1,0.8-4.4-0.7-4.1-3.8c0.2-1.6,0-3.2-0.2-4.8s-0.1-3.2,0.3-4.8
			c1.3-5.9,3.3-6.7,8.3-3.7c4.9,3,9.7,6,14.5,9c1.8,1.1,2.9,2.3,0.4,4.2C359.6,219.5,359.6,222.6,359.1,225.7z"/>
		<path class="st2" d="M488.1,305.4c-1.7,6.9-3.9,12.8-9.8,16.7c-5.6,3.6-11.9,4.4-18.2,4.8c-0.6,0-1.5,0.1-1.6-0.7
			c-0.1-0.4,0.3-1.1,0.7-1.5c1-1,2.1-2,3.2-2.8c4.6-3.5,8.9-7.3,12.8-11.8C478.3,306.3,483.2,305.8,488.1,305.4z"/>
		<path class="st1" d="M245,304.1c-2.9,0.2-5.9,0.4-8.8,0.6c-0.8,0.1-1.9,0.3-2.3-0.7c-0.4-0.9,0.4-1.6,1-2.2
			c4.6-4.4,9.6-8.3,15.3-11.3c2.9-1.6,5.4-0.7,7.3,2.3c0.4,0.6,0.7,1.2,0.8,1.8c2.4,8.2,1.3,9.8-6.7,9.7c-2.2,0-4.4,0-6.6,0
			C245,304.2,245,304.2,245,304.1z M242.2,299.5c3.9-0.1,7.3-1.6,11.1-4.3C248.6,295.4,245.6,297.7,242.2,299.5z"/>
		<path class="st1" d="M241.9,241c0,6.1-2.1,8-8.3,7.2c-5-0.6-9.4-3-14-4.5c-1.7-0.5-4.6-0.4-4.6-1.9c0-1.7,2.8-2,4.5-2.7
			c5.1-2,10.4-3.6,15.9-4C240,234.6,241.9,236.4,241.9,241z M223.3,241.7c4.5,1.3,9.1,1.8,13.8,1.4
			C232.7,241.2,228,241.5,223.3,241.7z"/>
		<path class="st1" d="M289.3,357.3c-1.3-7.1-2.1-13.5,0.1-20c1.6-4.8,3.9-5.7,8.3-3.2c6.3,3.6,6.6,5,2.7,11.1
			C297.5,349.8,293.7,353.5,289.3,357.3z M290.2,348.2c1.3-2.8,2.2-5.7,3.9-8.3c0.7-1.1,0.5-2.2-0.5-2.8c-1.3-0.8-1.6,0.6-1.9,1.4
			C290.8,341.7,289.9,344.9,290.2,348.2z"/>
		<path class="st1" d="M481.5,276.3c-2.3,0.6-2.7-0.7-2.5-3c0.4-3.6,1.7-6.9,3.4-9.9c1.9-3.4,2.7-6.8,1.8-10.7
			c-0.2-0.7-0.5-1.7,0.3-2.1c0.8-0.5,1.4,0.4,1.8,1c4.3,5.1,5.9,11,5.2,17.5C491.1,273.4,486.8,276.2,481.5,276.3z"/>
		<path class="st1" d="M258.1,190c-0.2,2.5-0.6,5.1-3.2,6.3c-2.6,1.2-5.3,0.2-7.1-1.7c-4.2-4.3-7.8-9.1-11.4-13.9
			c-0.3-0.4-0.7-1-0.3-1.6c0.4-0.5,1.1-0.3,1.6-0.1c6.1,1.5,12,3.6,17.7,6.4C257.2,186.3,258.3,187.8,258.1,190z M243.8,183.3
			c-0.2-0.4-0.6-0.6-0.9-0.3c-0.3,0.4,0.2,0.5,0.4,0.8c3,2.6,5.9,5.5,10.1,6.3C250.9,186.9,247.4,185,243.8,183.3z"/>
		<path class="st1" d="M403.4,252.7c2.1,1.4,2.6,3,3.3,4.5c2,3.8,3.9,7.6,5.3,11.7c0.8,2.5,0.1,4-2.4,4.9c-2.8,1-5.7,1.5-8.6,1.8
			c-1.5,0.2-1.9-0.5-1.7-1.8c0-0.2,0-0.4,0.1-0.6C402.4,266.9,402.6,260,403.4,252.7z"/>
		<path class="st1" d="M367.6,363.4c0,0.6,0,1.1,0,1.7c-0.1,2.1-1.1,2.5-2.7,1.2c-4.3-3.4-7.6-7.7-10.4-12.4
			c-0.7-1.2-0.6-2.3,0.3-3.5c1.2-1.5,7.1-3.1,8.8-2.5c0.8,0.3,1.2,0.9,1.4,1.7C366.1,354.2,367.6,358.6,367.6,363.4z M361.6,360.4
			c0.1,0.2,0.1,0.3,0.2,0.5c0.1-0.1,0.2-0.2,0.3-0.3c-0.1-0.1-0.3-0.2-0.4-0.3c-0.2-2.4-2.1-4.2-2.5-6.5c-0.1-0.8-1-1.3-1.8-0.9
			s-0.5,1.1-0.2,1.7C358.5,356.7,359.8,358.7,361.6,360.4z"/>
		<path class="st1" d="M469.5,267.2c1.9,0.4,4.1,0,5,2.2c1,2.5,1.2,5.2-0.3,7.6c-0.8,1.2-1.9,1.8-3.4,1.2c-3-1.3-6.2-1.8-9.4-2
			c-1.5-0.1-1.9-0.6-1.9-2c0-4.4,1-5.8,5.3-6.5C466.3,267.5,468,267.4,469.5,267.2z"/>
		<path class="st3" d="M261,185.3c-1.5-3.7-5-4.4-8.1-6c2.7-2.8,5-5.5,9.5-3.9c3.5,1.2,7.3,0.8,11.1,0.7
			C268.1,177.4,264.8,181.4,261,185.3z"/>
		<path class="st1" d="M439.1,275.1c1.5-5.4,5.8-6.6,10.4-6.7c2-0.1,3.9,0.2,5.9-0.6c0.1,0.9,0.2,1.5,0.2,2.2c0.1,5.3,0,5.4-5.1,4.7
			C446.6,274,442.9,275,439.1,275.1z"/>
		<path class="st1" d="M426,275.6c-1.8,0.4-4.3-0.8-6.9,0c-1,0.3-1.2-0.5-1.3-1.1c-0.3-1.4-0.2-2.7,1.1-3.6c1.3-0.9,2.9-1.4,4.3-0.6
			c3.2,1.9,6.6,1.3,9.9,0.7c1.6-0.3,2.9-0.2,3.2,1.7c0.2,1.9-1.4,2-2.6,2.3C431.5,275.8,429.1,275.6,426,275.6z"/>
		<path class="st2" d="M417.3,228.4c0.2-1.5,0.3-2.7,0.5-4c0.5-2.8,1.6-3.4,4-1.8c2,1.3,2.9,3.4,3.7,5.6c0,0.1,0.1,0.2,0.1,0.3
			c0,0.6-5.5,2.7-6.9,2.5C416.8,230.8,417.6,229.2,417.3,228.4z"/>
		<path class="st1" d="M367.6,227c-1.4-0.2-2.7-0.8-2.7-2.8c0-2.3,2.4-4.5,4.8-4.3c1.9,0.1,2.7,1.2,2.8,3
			C372.6,224.9,370.1,227,367.6,227z"/>
		<path class="st3" d="M379.7,345.1c-2.8,3-5.4,4.5-8.2,5.9c-1.4,0.7-1.7-0.5-1.8-1.4c-0.1-0.9-1.6-2.3,0.4-2.8
			C373,346.1,376,345.7,379.7,345.1z"/>
		<path class="st2" d="M471.3,308c0.2,0,0.4,0,0.6,0c-0.1,0.1-0.2,0.2-0.3,0.3C471.5,308.2,471.4,308.1,471.3,308z"/>
		<path class="st0" d="M493.2,491.1c0.6-1.6,1.1-3.1,1.7-4.6c0.2-0.6,0.5-1.3,1.4-1.1c0.8,0.2,0.7,0.8,0.7,1.4
			c-0.1,2.4,0.3,4.9-0.3,7.6c-1.4-1.7-0.3-3.4-1.1-4.9c-1,0.9-0.9,2.3-1.4,3.4c-0.3,0.5-0.4,1.1-1.1,1c-0.6,0-0.6-0.6-0.8-1
			c-0.5-1.1-0.5-2.4-1.4-3.4c-0.1,0.2-0.2,0.3-0.3,0.4c-0.4,1.3,0.5,3.9-0.6,3.8c-1.8-0.2-0.5-2.5-0.8-3.8c-0.1-0.6-0.1-1.3,0-2
			c0.2-0.9-0.7-2.4,1-2.5c1.4-0.1,1.2,1.4,1.6,2.3C492.1,488.7,492,490.1,493.2,491.1z"/>
		<path class="st0" d="M484.7,494.1c-0.9-1.4-0.5-3-0.5-4.4c0-1.9,0.2-3.6-2.6-3.8c2.3-0.8,4.3-0.8,6.6-0.1
			C482.6,486.8,487,491.7,484.7,494.1z"/>
		<path class="st0" d="M431.8,233.5c2.8,0.3,5.1,0.5,7.4,1.2c4.3,1.4,6.7,4.4,7.1,8.7c0.4,4.8-1.1,9.1-5,12.2
			c-1.8,1.4-4,0.8-5.1-0.8c-3.7-5.6-9.5-6.8-15.5-7.8c-3.1-0.5-6.1-1.4-9.2-2.1c-1-0.2-2.2-0.5-2.4-1.7c-0.3-1.3,0.8-2.1,1.7-2.7
			c0.7-0.5,1.5-0.9,2.3-1.2c5.2-1.8,10.5-3.6,15.7-5.2C429.9,233.6,431,233.6,431.8,233.5z M425.9,238.6c1.7,1,3.5,0.9,5.3,1
			c4.8,0.3,6.4,1.7,7.5,6.2c0.2,0.8,0.2,1.9,1.3,2c1,0.1,1.5-0.7,1.9-1.5c0.9-1.7,0.8-3.2-0.5-4.7
			C438.3,238.1,430.4,236.6,425.9,238.6z"/>
		<path class="st0" d="M291.8,284c0.5-4.5,1.9-8.6,3.8-12.6c4.3-9,9.5-17.4,16.1-24.8c2.1-2.4,4.5-4.4,7.4-5.7
			c1-0.4,2.2-0.6,2.9,0.4c0.7,1-0.1,1.8-0.8,2.4c-11.8,10.3-18,24.1-23.6,38.2c-0.7,1.8-1.5,3.7-2.4,5.5c-0.4,0.7-1.1,1.6-2,1.3
			c-0.8-0.2-0.8-1.2-0.9-1.9C292.1,285.8,292,284.8,291.8,284z"/>
		<path class="st0" d="M341.7,166.6c2.7,0.3,5.2,1,7.6,2.2c3.5,1.8,7.1,3.7,10.6,5.6c0.4,0.2,0.9,0.5,1.2,0.8
			c0.9,1.1,2.1,2.3,1.2,3.7s-2.5,0.6-3.6,0c-1.4-0.8-2.7-1.7-3.9-2.8c-3.7-3.3-7.9-5.5-12.6-7.1c-0.4-0.1-0.7-0.3-1.1-0.4
			c-0.6-0.3-1.4-0.6-1.2-1.4C340.2,166.5,341,166.6,341.7,166.6z"/>
		<path class="st0" d="M296.5,218c0.4-0.7,0.7-1.5,1.1-2.2c1.5-3,1.6-5.9-0.2-8.9c-2.4-4-4.2-8.3-3.5-13.3c0.1-0.8-0.1-2,1-2.1
			c1.2-0.1,1.7,1.2,1.6,2c-0.3,5.5,2,10.4,3.8,15.4C301.7,213,300,215.9,296.5,218z"/>
		<path class="st0" d="M459.1,251.5c-1.5-0.4-2.9-0.9-3.1-2.8c-0.1-1.7,0.9-2.5,2.4-2.5c1.8,0,2.9,1,3.1,2.7
			C461.9,250.6,460.6,251.1,459.1,251.5z"/>
		<path class="st0" d="M424.5,254.9c-0.3,1.7-1.2,2.8-2.9,2.7c-1.5-0.1-2.6-1.1-2.5-2.6c0-1.6,1.3-2.7,2.8-2.6
			C423.4,252.5,424.3,253.5,424.5,254.9z"/>
		<path class="st0" d="M466.3,249.9c1.3,0.2,2,0.7,1.8,1.9c-0.3,1.6-1.3,2.8-3.1,2.9c-1.2,0.1-1.7-0.7-1.6-1.8
			C463.6,251.1,464.8,250.3,466.3,249.9z"/>
		<path class="st0" d="M413,247.7c1.1,0.2,2.3,0.4,2.3,1.7c0,1.7-1.4,2.1-2.8,2.2c-1.1,0.1-2.2-0.4-2.2-1.7
			C410.4,248.4,411.8,248,413,247.7z"/>
		<path class="st0" d="M396.5,253.1c-0.4,1.2-1,2.1-2.4,1.9c-1.2-0.1-1.7-0.8-1.6-1.9c0.2-1.3,1-2.1,2.3-2
			C395.9,251.2,396.4,252,396.5,253.1z"/>
		<path class="st0" d="M242.2,299.5c3.3-1.8,6.4-4.1,11.1-4.3C249.6,297.9,246.2,299.4,242.2,299.5z"/>
		<path class="st0" d="M223.3,241.7c4.7-0.2,9.4-0.5,13.8,1.4C232.4,243.5,227.8,243,223.3,241.7z"/>
		<path class="st0" d="M290.2,348.2c-0.3-3.3,0.6-6.5,1.5-9.7c0.2-0.8,0.6-2.2,1.9-1.4c0.9,0.6,1.2,1.7,0.5,2.8
			C292.4,342.4,291.6,345.3,290.2,348.2z"/>
		<path class="st0" d="M243.8,183.3c3.6,1.7,7.1,3.6,9.7,6.8c-4.2-0.8-7.1-3.7-10.1-6.3C243.5,183.7,243.6,183.5,243.8,183.3z"/>
		<path class="st0" d="M243.3,183.8c-0.2-0.2-0.7-0.4-0.4-0.8c0.2-0.3,0.7-0.1,0.9,0.3C243.6,183.5,243.5,183.7,243.3,183.8z"/>
		<path class="st0" d="M361.6,360.4c-1.8-1.6-3.1-3.7-4.3-5.8c-0.3-0.6-0.6-1.3,0.2-1.7c0.8-0.4,1.6,0.1,1.8,0.9
			c0.4,2.4,2.3,4.1,2.5,6.5L361.6,360.4z"/>
		<path class="st0" d="M361.7,360.3c0.1,0.1,0.3,0.2,0.4,0.3c-0.1,0.1-0.2,0.2-0.3,0.3c-0.1-0.2-0.1-0.3-0.2-0.5L361.7,360.3z"/>
		<path class="st1" d="M425.9,238.6c4.5-2.1,12.4-0.5,15.4,2.9c1.3,1.5,1.4,3,0.5,4.7c-0.4,0.8-0.9,1.6-1.9,1.5
			c-1.1-0.1-1.1-1.2-1.3-2c-1.1-4.5-2.7-5.9-7.5-6.2C429.3,239.5,427.5,239.7,425.9,238.6z"/>
	</g>
</g>
</svg>
