<svg id="Layer_1" data-name="Layer 1" xmlns="http://www.w3.org/2000/svg" xmlns:xlink="http://www.w3.org/1999/xlink" viewBox="0 0 1400.49 1200"><defs><style>.cls-1{fill:url(#linear-gradient);}.cls-2,.cls-3,.cls-30,.cls-39,.cls-40,.cls-41,.cls-7,.cls-8,.cls-9{fill:none;stroke-miterlimit:10;}.cls-2{stroke:#e6e7e7;stroke-width:23px;}.cls-2,.cls-7,.cls-8,.cls-9{stroke-linecap:round;}.cls-3{stroke:#b4b4b5;}.cls-3,.cls-30,.cls-40,.cls-41,.cls-7,.cls-8,.cls-9{stroke-width:2px;}.cls-14,.cls-37,.cls-4{fill:#dc3a27;}.cls-15,.cls-5{fill:#6c7372;}.cls-10,.cls-42,.cls-6{fill:#049748;}.cls-7{stroke:#049748;}.cls-8{stroke:#dc3a27;}.cls-9{stroke:#6c7372;}.cls-10,.cls-14{font-size:25.14px;letter-spacing:-0.05em;}.cls-10,.cls-14,.cls-32,.cls-33,.cls-34,.cls-48{font-family:OpenSans-Semibold, Open Sans;}.cls-11,.cls-26,.cls-28,.cls-32,.cls-33,.cls-34,.cls-45,.cls-48{font-weight:700;}.cls-12,.cls-15{font-size:19.76px;letter-spacing:-0.05em;}.cls-12,.cls-15,.cls-25,.cls-35,.cls-36,.cls-37,.cls-42,.cls-44,.cls-47{font-family:OpenSans, Open Sans;}.cls-13{letter-spacing:-0.02em;}.cls-16{letter-spacing:-0.08em;}.cls-17,.cls-47,.cls-48{fill:#fff;}.cls-18{fill:#f9fafd;}.cls-19,.cls-25,.cls-26,.cls-28,.cls-31,.cls-44{fill:#486679;}.cls-20{fill:#9bc0e1;}.cls-21{fill:#2c2561;}.cls-22{fill:#0c4522;}.cls-23{fill:#cc2027;}.cls-24,.cls-49,.cls-51{fill:#4d4d4e;}.cls-25,.cls-26,.cls-28{font-size:20.73px;}.cls-25,.cls-26,.cls-29{letter-spacing:0em;}.cls-26,.cls-28,.cls-45{font-family:OpenSans-Bold, Open Sans;}.cls-27,.cls-28{letter-spacing:-0.03em;}.cls-30{stroke:#b5c1c8;}.cls-31,.cls-37,.cls-42{font-size:25.99px;letter-spacing:0em;}.cls-31{font-family:OpenSans-Extrabold, Open Sans;}.cls-33{font-size:16px;}.cls-33,.cls-46{letter-spacing:-0.01em;}.cls-34{letter-spacing:-0.01em;}.cls-35{letter-spacing:0em;}.cls-38{fill:#f8fafd;}.cls-39{stroke:#cad1d7;stroke-width:3px;}.cls-40{stroke:#e9ebeb;}.cls-41{stroke:#eceff3;}.cls-43{font-size:28px;fill:#555656;font-family:OpenSansLight-Italic, Open Sans;font-style:italic;letter-spacing:0.01em;}.cls-44{font-size:22.86px;letter-spacing:0em;}.cls-45{font-size:20.05px;fill:#808181;letter-spacing:-0.01em;}.cls-46{font-size:48px;fill:#555655;font-family:OpenSans-Light, Open Sans;}.cls-47,.cls-48{font-size:26.94px;letter-spacing:-0.02em;}.cls-49{font-size:115.22px;letter-spacing:-0.08em;}.cls-49,.cls-51{font-family:HighwayGothic, Highway Gothic;}.cls-50{letter-spacing:-0.02em;}.cls-51{font-size:28.31px;letter-spacing:-0.08em;}.cls-52{letter-spacing:-0.02em;}</style><linearGradient id="linear-gradient" x1="997" y1="600" x2="1016.9" y2="600" gradientUnits="userSpaceOnUse"><stop offset="0" stop-color="#ededed"/><stop offset="0.18" stop-color="#f1f1f1"/><stop offset="1" stop-color="#fff"/></linearGradient></defs><title>RN99_SC_Beats_O</title><rect id="GRADIENT" class="cls-1" x="997" width="19.9" height="1200"/><g id="SCALE"><line class="cls-2" x1="1120.91" y1="500.59" x2="1286.45" y2="406.53"/><line class="cls-3" x1="1400" y1="342" x2="992.9" y2="573.33"/><circle class="cls-4" cx="1120.91" cy="500.59" r="7.38"/><circle class="cls-5" cx="1196.13" cy="457.85" r="7.38"/><circle class="cls-6" cx="1286.45" cy="406.53" r="7.38"/><line class="cls-7" x1="1295.33" y1="420.83" x2="1286.45" y2="406.53"/><line class="cls-8" x1="1129.8" y1="514.9" x2="1120.91" y2="500.59"/><line class="cls-9" x1="1236.05" y1="522.35" x2="1196.13" y2="458.07"/><g id="Copy"><text class="cls-10" transform="matrix(0.86, -0.51, 0.51, 0.86, 1297.55, 449.02)"><tspan class="cls-11">SC</tspan><tspan class="cls-12"><tspan x="-25.86" y="21.19">Bea</tspan><tspan class="cls-13" x="6.35" y="21.19">t</tspan><tspan x="12.83" y="21.19">s UO</tspan></tspan></text><text class="cls-14" transform="matrix(0.86, -0.51, 0.51, 0.86, 1120.74, 549.65)"><tspan class="cls-11">UNC</tspan><tspan class="cls-12"><tspan x="-13.03" y="21.19">Bea</tspan><tspan class="cls-13" x="19.18" y="21.19">t</tspan><tspan x="25.66" y="21.19">s OK</tspan></tspan></text><text class="cls-15" transform="matrix(0.86, -0.51, 0.51, 0.86, 1203.03, 568.94)">April 3, <tspan class="cls-13" x="61.07" y="0">2</tspan><tspan x="71.87" y="0">0</tspan><tspan class="cls-16" x="82.28" y="0">1</tspan><tspan x="91.9" y="0">7</tspan></text></g></g><rect id="WHITE_BG" data-name="WHITE BG" class="cls-17" width="997" height="1200"/><rect class="cls-18" y="988.5" width="997" height="92"/><rect id="TOP_BG" data-name="TOP BG" class="cls-19" width="1400" height="60.25"/><g id="RISK_NUMBER" data-name="RISK NUMBER"><path class="cls-20" d="M1118,187.69a41.51,41.51,0,0,1-13-2l7.76-23.27a17.41,17.41,0,0,0,5.16.73,18.19,18.19,0,0,0,13.46-6l18.77,15.77A42.43,42.43,0,0,1,1118,187.69Z"/><path class="cls-21" d="M1132.24,156.27a18.11,18.11,0,0,0,2.6-17.89l22.46-9.84a42.17,42.17,0,0,1,3.33,16.57,42.66,42.66,0,0,1-9.62,27Z"/><path class="cls-22" d="M1103.92,185.31a42.62,42.62,0,0,1-28.53-40.2,44.47,44.47,0,0,1,1.24-10.32l23.71,6.29a19.08,19.08,0,0,0-.44,4,18.13,18.13,0,0,0,11.78,17Z"/><path class="cls-23" d="M1077,133.62a42.63,42.63,0,0,1,79.82-6.22l-22.46,9.84a18.1,18.1,0,0,0-33.66,2.6Z"/><rect id="WHITE" class="cls-17" x="1114.31" y="139.92" width="164.77" height="185.62"/><path class="cls-24" d="M1279.3,135.45H1114.53a4.48,4.48,0,0,0-4.46,4.46V325.54a4.48,4.48,0,0,0,4.46,4.46H1279.3a4.48,4.48,0,0,0,4.46-4.46V139.92A4.46,4.46,0,0,0,1279.3,135.45Zm-.22,190.08H1114.31V139.92h164.77Z"/><g id="RISK"><path class="cls-24" d="M1163.77,199.11h-7.57l-6.11-14.89H1140v14.89h-6.8V161.17h17.45a12.91,12.91,0,0,1,6.51,1.57,11.47,11.47,0,0,1-.29,20.12Zm-7.57-26.3a4.45,4.45,0,0,0-1.46-3.51,5.73,5.73,0,0,0-4-1.32H1140v9.44h10.76a5.89,5.89,0,0,0,4-1.28A4.13,4.13,0,0,0,1156.2,172.8Z"/><path class="cls-24" d="M1182.76,199.11H1176V161.17h6.8Z"/><path class="cls-24" d="M1223.73,188.06a10.74,10.74,0,0,1-4,8.38c-2.6,2.23-6.18,3.33-10.83,3.33q-9.27,0-15.11-7.83l5.67-3.84a12,12,0,0,0,9.69,5.16,9.44,9.44,0,0,0,5.71-1.43,4.68,4.68,0,0,0,2.12-3.91,3.53,3.53,0,0,0-1.65-3.33c-1.21-.88-3.66-1.72-7.35-2.6-5.16-1.21-8.63-2.71-10.39-4.46a8.75,8.75,0,0,1-2.71-6.22,9.13,9.13,0,0,1,3.55-7.32,13.94,13.94,0,0,1,9.47-3.18c6.15.29,10.87,2.71,14.16,7.21l-5.38,3.59a12.32,12.32,0,0,0-8.78-4.06,7.85,7.85,0,0,0-4.65,1.13,2.87,2.87,0,0,0-1.46,2.56,2.81,2.81,0,0,0,1.68,2.6,15.65,15.65,0,0,0,5,1.65c5.27,1,9.11,2.56,11.52,4.79A10.28,10.28,0,0,1,1223.73,188.06Z"/><path class="cls-24" d="M1264.45,199.11h-7.76L1247,179.39l-7.21,9.07v10.65H1233V161.17h6.8V177.3l13.43-16.13H1262l-10.1,12.4Z"/></g></g><g id="Little_" data-name="Little #"><rect id="WHITE-2" data-name="WHITE" class="cls-17" x="52.68" y="6.7" width="40.13" height="45.21"/><path class="cls-24" d="M92.86,5.62H52.73A1.09,1.09,0,0,0,51.64,6.7V51.91A1.09,1.09,0,0,0,52.73,53H92.86a1.09,1.09,0,0,0,1.09-1.09V6.7A1.09,1.09,0,0,0,92.86,5.62Zm-.05,46.3H52.68V6.7H92.81Z"/><g id="RISK-2" data-name="RISK"><path class="cls-24" d="M64.72,21.12H62.88l-1.49-3.63H58.93v3.63H57.27V11.88h4.25a3.14,3.14,0,0,1,1.59.38,2.66,2.66,0,0,1,1.42,2.44A2.64,2.64,0,0,1,63,17.16Zm-1.84-6.41a1.08,1.08,0,0,0-.36-.86,1.4,1.4,0,0,0-1-.32H58.94v2.3h2.62a1.44,1.44,0,0,0,1-.31A1,1,0,0,0,62.88,14.71Z"/><path class="cls-24" d="M69.35,21.12H67.69V11.88h1.66Z"/><path class="cls-24" d="M79.33,18.43a2.62,2.62,0,0,1-1,2,3.91,3.91,0,0,1-2.64.81A4.38,4.38,0,0,1,72,19.37l1.38-.94a2.92,2.92,0,0,0,2.36,1.26,2.3,2.3,0,0,0,1.39-.35,1.14,1.14,0,0,0,.52-1,.86.86,0,0,0-.4-.81,5.7,5.7,0,0,0-1.79-.63A5.5,5.5,0,0,1,73,15.86a2.13,2.13,0,0,1-.66-1.51,2.22,2.22,0,0,1,.86-1.78,3.39,3.39,0,0,1,2.31-.78,4.29,4.29,0,0,1,3.45,1.76l-1.31.87a3,3,0,0,0-2.14-1,1.91,1.91,0,0,0-1.13.28.7.7,0,0,0-.36.62.68.68,0,0,0,.41.63,3.81,3.81,0,0,0,1.23.4,5.65,5.65,0,0,1,2.81,1.17A2.5,2.5,0,0,1,79.33,18.43Z"/><path class="cls-24" d="M89.24,21.12H87.35L85,16.32l-1.76,2.21v2.59H81.58V11.88h1.66v3.93l3.27-3.93h2.14l-2.46,3Z"/></g></g><text class="cls-25" transform="translate(1036.29 755.41)">Oregon</text><text class="cls-26" transform="translate(1294.84 682.41)">WI<tspan class="cls-27" x="26.7" y="0">N</tspan><tspan x="43.03" y="0">S</tspan></text><text class="cls-28" transform="translate(1287.87 755.41)">LO<tspan class="cls-29" x="27.17" y="0">SES</tspan></text><text class="cls-25" transform="translate(1038.92 681.41)">South Carolina</text><rect id="Sidebox_2" data-name="Sidebox 2" class="cls-30" x="1022" y="720.33" width="346.33" height="56" rx="4.33" ry="4.33"/><rect id="Sidebox_1" data-name="Sidebox 1" class="cls-30" x="1022" y="647.33" width="346.33" height="56" rx="4.33" ry="4.33"/><text class="cls-31" transform="translate(119.67 584)"><tspan class="cls-11">UO</tspan><tspan class="cls-32" x="40.12" y="0"> </tspan><tspan class="cls-33" x="46.74" y="-3">•</tspan><tspan class="cls-34" x="52.68" y="0"> </tspan><tspan class="cls-35" x="59.3" y="0">Their Logo is a Big Zero</tspan></text><text class="cls-31" transform="translate(119.67 492)"><tspan class="cls-11">SC</tspan><tspan class="cls-32" x="31.61" y="0"> </tspan><tspan class="cls-33" x="38.23" y="-3">•</tspan><tspan class="cls-34" x="44.16" y="0"> </tspan><tspan class="cls-36" x="50.78" y="0">“So You’re Saying There’s a Chance...”</tspan></text><text class="cls-37" transform="translate(914.43 584)">Ø</text><rect class="cls-38" y="393.5" width="997" height="43"/><g id="LINES"><line class="cls-39" y1="393.5" x2="997" y2="393.5"/><line class="cls-40" y1="436.5" x2="997" y2="436.5"/><line class="cls-41" y1="528.5" x2="997" y2="528.5"/><line class="cls-41" y1="620.5" x2="997" y2="620.5"/><line class="cls-41" y1="712.5" x2="997" y2="712.5"/><line class="cls-41" y1="804.5" x2="997" y2="804.5"/><line class="cls-41" y1="896.5" x2="997" y2="896.5"/><line class="cls-41" y1="988.5" x2="997" y2="988.5"/><line class="cls-41" y1="1080.5" x2="997" y2="1080.5"/></g><g id="PORT"><path id="DNP2" class="cls-20" d="M1252.74,1031.32a69.1,69.1,0,0,1-73.26,20.63l-31.17,93.27A167.71,167.71,0,0,0,1328,1094.55Z"/><path id="DNP1" class="cls-21" d="M1269.59,986.18a68.94,68.94,0,0,1-15.61,43.73l75.24,63.23a167.47,167.47,0,0,0,25-173.35l-90.06,39.51A69,69,0,0,1,1269.59,986.18Z"/><path id="LOSE" class="cls-22" d="M1177.68,1051.38a69.09,69.09,0,0,1-46.27-65.21,70.9,70.9,0,0,1,2-16.74l-95-25.19a167.61,167.61,0,0,0,108.09,200.41Z"/><path id="WIN" class="cls-23" d="M1133.94,967.58a69.11,69.11,0,0,1,129.45-10L1353.45,918a167.44,167.44,0,0,0-314.53,24.4Z"/></g><g id="Squares"><rect class="cls-23" x="77" y="468.33" width="24.33" height="26.67"/><rect class="cls-22" x="77" y="561.33" width="24.33" height="26.67"/><rect class="cls-23" x="77" y="651.33" width="24.33" height="26.67"/><rect class="cls-22" x="77" y="743.33" width="24.33" height="26.67"/><rect class="cls-22" x="77" y="835.33" width="24.33" height="26.67"/><rect class="cls-23" x="77" y="926.33" width="24.33" height="26.67"/></g><polygon class="cls-4" points="954.25 580.97 951.16 575.62 948.08 570.28 954.25 570.28 960.42 570.28 957.34 575.62 954.25 580.97"/><text class="cls-31" transform="translate(119.67 766)"><tspan class="cls-11">UO</tspan><tspan class="cls-32" x="40.12" y="0"> </tspan><tspan class="cls-33" x="46.74" y="-3">•</tspan><tspan class="cls-34" x="52.68" y="0"> </tspan><tspan class="cls-36" x="59.3" y="0">Financial Advisors Love Green</tspan></text><polygon class="cls-6" points="954.25 752.28 957.34 757.62 960.42 762.97 954.25 762.97 948.08 762.97 951.16 757.62 954.25 752.28"/><text class="cls-31" transform="translate(119.67 857.53)"><tspan class="cls-11">UO</tspan><tspan class="cls-32" x="40.12" y="0"> </tspan><tspan class="cls-33" x="46.74" y="-3">•</tspan><tspan class="cls-34" x="52.68" y="0"> </tspan><tspan class="cls-36" x="59.3" y="0">Mascot = Ducks</tspan></text><text class="cls-37" transform="translate(812.49 857.53)">Not Fierce</text><polygon class="cls-4" points="954.25 854.5 951.16 849.15 948.08 843.8 954.25 843.8 960.42 843.8 957.34 849.15 954.25 854.5"/><text class="cls-42" transform="translate(837.01 673)">Not Bad</text><text class="cls-42" transform="translate(890.35 767)">$$$</text><polygon class="cls-6" points="954.25 659.28 957.34 664.62 960.42 669.97 954.25 669.97 948.08 669.97 951.16 664.62 954.25 659.28"/><text class="cls-31" transform="translate(119.67 949.11)"><tspan class="cls-11">SC</tspan><tspan class="cls-32" x="31.61" y="0"> </tspan><tspan class="cls-33" x="38.23" y="-3">•</tspan><tspan class="cls-34" x="44.16" y="0"> </tspan><tspan class="cls-36" x="50.78" y="0">Dan, Our #FISummit Manager, is from SC</tspan></text><text class="cls-42" transform="translate(801.73 950.11)">fi2017.com</text><polygon class="cls-6" points="954.25 936.38 957.34 941.73 960.42 947.08 954.25 947.08 948.08 947.08 951.16 941.73 954.25 936.38"/><text class="cls-31" transform="translate(119.67 673.39)"><tspan class="cls-11">SC</tspan><tspan class="cls-32" x="31.61" y="0"> </tspan><tspan class="cls-33" x="38.23" y="-3">•</tspan><tspan class="cls-34" x="44.16" y="0"> </tspan><tspan class="cls-35" x="50.78" y="0">These Guys Beat Duke</tspan></text><text class="cls-42" transform="translate(813.62 492.39)">Cinderella</text><polygon class="cls-6" points="954.25 478.67 957.34 484.01 960.42 489.36 954.25 489.36 948.08 489.36 951.16 484.01 954.25 478.67"/><text class="cls-43" transform="translate(73.5 318.98)">Picking the Cinderella team to go all the way?<tspan x="0" y="43.87">You must be from South Carolina.</tspan></text><text class="cls-44" transform="translate(646.31 181.45)">Oregon</text><text class="cls-45" transform="translate(646.31 146.05)">BEATS</text><text class="cls-46" transform="translate(73.83 179.74)">South Carolina</text><text class="cls-47" transform="translate(114.67 38.96)">NCAA Risk Alignment Platform</text><text class="cls-48" transform="translate(1193.93 38.96)">April 1, 2017</text><text class="cls-49" transform="translate(1123.24 301.43) scale(1.23 1)">9<tspan class="cls-50" x="54.73" y="0">9</tspan></text><text class="cls-51" transform="translate(54.85 45.13) scale(1.23 1)">9<tspan class="cls-52" x="13.45" y="0">9</tspan></text></svg>