<svg id="Layer_1" data-name="Layer 1" xmlns="http://www.w3.org/2000/svg" xmlns:xlink="http://www.w3.org/1999/xlink" viewBox="0 0 1400.49 1200"><defs><style>.cls-1{fill:url(#linear-gradient);}.cls-11,.cls-2{fill:#486679;}.cls-3{fill:#f17725;}.cls-4{fill:#9d2324;}.cls-5{fill:#9bc0e1;}.cls-6{fill:#212554;}.cls-7{fill:#fff;}.cls-8{fill:#4d4d4e;}.cls-9{font-size:48px;fill:#555655;}.cls-10,.cls-11,.cls-16,.cls-9{font-family:Open Sans;}.cls-10{font-size:20.05px;fill:#808181;font-weight:700;}.cls-11{font-size:22.86px;}.cls-12{fill:#f8fafd;}.cls-13,.cls-14,.cls-15,.cls-17{fill:none;stroke-miterlimit:10;}.cls-13{stroke:#cad1d7;stroke-width:3px;}.cls-14{stroke:#e9ebeb;}.cls-14,.cls-15,.cls-17{stroke-width:2px;}.cls-15{stroke:#eceff3;}.cls-16{font-size:34.89px;fill:#555656;}.cls-17{stroke:#b4b4b5;}.cls-18{fill:#f27625;}.cls-19{fill:#9c2123;}.cls-20{fill:#9ac0e2;}.cls-21{fill:#212454;}</style><linearGradient id="linear-gradient" x1="997" y1="600" x2="1016.9" y2="600" gradientUnits="userSpaceOnUse"><stop offset="0" stop-color="#ededed"/><stop offset="0.18" stop-color="#f1f1f1"/><stop offset="1" stop-color="#fff"/></linearGradient></defs><title>portfolio_placehonder</title><rect id="GRADIENT" class="cls-1" x="997" width="19.9" height="1200"/><rect class="cls-2" width="1400" height="60.25"/><path class="cls-3" d="M1118,187.69a41.51,41.51,0,0,1-13-2l7.76-23.27a17.41,17.41,0,0,0,5.16.73,18.19,18.19,0,0,0,13.46-6l18.77,15.77A42.43,42.43,0,0,1,1118,187.69Z"/><path class="cls-4" d="M1132.24,156.27a18.11,18.11,0,0,0,2.6-17.89l22.46-9.84a42.17,42.17,0,0,1,3.33,16.57,42.66,42.66,0,0,1-9.62,27Z"/><path class="cls-5" d="M1103.92,185.31a42.62,42.62,0,0,1-28.53-40.2,44.47,44.47,0,0,1,1.24-10.32l23.71,6.29a19.08,19.08,0,0,0-.44,4,18.13,18.13,0,0,0,11.78,17Z"/><path class="cls-6" d="M1077,133.62a42.63,42.63,0,0,1,79.82-6.22l-22.46,9.84a18.1,18.1,0,0,0-33.66,2.6Z"/><rect id="WHITE" class="cls-7" x="1114.31" y="139.92" width="164.77" height="185.62"/><path class="cls-8" d="M1279.3,135.45H1114.53a4.48,4.48,0,0,0-4.46,4.46V325.54a4.48,4.48,0,0,0,4.46,4.46H1279.3a4.48,4.48,0,0,0,4.46-4.46V139.92A4.46,4.46,0,0,0,1279.3,135.45Zm-0.22,190.08H1114.31V139.92h164.77V325.54Z"/><g id="_" data-name="#"><path class="cls-8" d="M1195.27,276.84c0,6.8-3.22,12.66-9.66,17.63a38.35,38.35,0,0,1-45.36,0q-9.66-7.41-9.66-17.63,0.27-11.19,11-17a16.85,16.85,0,0,1-7.1-13.65q0-8.67,8.45-14.85a32.74,32.74,0,0,1,19.94-6.22,33.2,33.2,0,0,1,20.08,6.26c5.71,4.17,8.6,9.11,8.6,14.78-0.37,5.52-3.11,10.06-8.23,13.54C1191,263.35,1195,269.09,1195.27,276.84Zm-15,.33c0-3.11-1.72-5.78-5.12-8a24,24,0,0,0-24.25-.07c-3.33,2.19-5,4.87-5,8,0,3.48,1.65,6.48,5,9a19.24,19.24,0,0,0,12.07,3.77,19.71,19.71,0,0,0,12.26-3.77C1178.55,283.65,1180.23,280.65,1180.23,277.17Zm-4-31.24c0-2.52-1.32-4.61-3.91-6.33a17,17,0,0,0-9.44-2.56,16.71,16.71,0,0,0-9.44,2.56c-2.6,1.68-3.91,3.8-3.91,6.33,0,2.16,1.28,4,3.91,5.6a17.9,17.9,0,0,0,9.44,2.38,18.09,18.09,0,0,0,9.37-2.38C1174.93,249.92,1176.25,248.05,1176.25,245.93Z"/><path class="cls-8" d="M1262.07,300.55h-64.68q1-26.5,34-41.12,16.19-6.64,15.58-12.51c0-2.82-1.54-5.12-4.61-7s-7.06-2.85-12-3q-13.33.77-18,10.54l-15-3.44a32,32,0,0,1,12.26-13.46,36.4,36.4,0,0,1,20.08-5.49c9,0,16.61,2.16,22.9,6.44s9.44,9.26,9.44,15q-0.44,14-21.84,22.72c-13.54,6.15-21.62,12.58-24.25,19.39H1262v12h0Z"/></g><g id="RISK"><path class="cls-8" d="M1163.77,199.11h-7.57l-6.11-14.89H1140v14.89h-6.8V161.17h17.45a12.91,12.91,0,0,1,6.51,1.57,11.47,11.47,0,0,1-.29,20.12Zm-7.57-26.3a4.45,4.45,0,0,0-1.46-3.51,5.73,5.73,0,0,0-4-1.32H1140v9.44h10.76a5.89,5.89,0,0,0,4-1.28A4.13,4.13,0,0,0,1156.2,172.8Z"/><path class="cls-8" d="M1182.76,199.11H1176V161.17h6.8v37.94Z"/><path class="cls-8" d="M1223.73,188.06a10.74,10.74,0,0,1-4,8.38c-2.6,2.23-6.18,3.33-10.83,3.33q-9.27,0-15.11-7.83l5.67-3.84a12,12,0,0,0,9.69,5.16,9.44,9.44,0,0,0,5.71-1.43,4.68,4.68,0,0,0,2.12-3.91,3.53,3.53,0,0,0-1.65-3.33c-1.21-.88-3.66-1.72-7.35-2.6-5.16-1.21-8.63-2.71-10.39-4.46a8.75,8.75,0,0,1-2.71-6.22,9.13,9.13,0,0,1,3.55-7.32,13.94,13.94,0,0,1,9.47-3.18c6.15,0.29,10.87,2.71,14.16,7.21l-5.38,3.59a12.32,12.32,0,0,0-8.78-4.06,7.85,7.85,0,0,0-4.65,1.13,2.87,2.87,0,0,0-1.46,2.56,2.81,2.81,0,0,0,1.68,2.6,15.65,15.65,0,0,0,5,1.65c5.27,1,9.11,2.56,11.52,4.79A10.28,10.28,0,0,1,1223.73,188.06Z"/><path class="cls-8" d="M1264.45,199.11h-7.76L1247,179.39l-7.21,9.07v10.65H1233V161.17h6.8V177.3l13.43-16.13H1262l-10.1,12.4Z"/></g><text class="cls-9" transform="translate(51.83 179.74)">Villanova University</text><text class="cls-10" transform="translate(646.31 146.05)">BEATS</text><text class="cls-11" transform="translate(646.31 181.45)">University of North<tspan x="200.06" y="0"> </tspan><tspan x="205.43" y="0">Ca</tspan><tspan x="232.33" y="0">r</tspan><tspan x="241.09" y="0">olina</tspan></text><rect class="cls-12" y="393.5" width="997" height="43"/><line class="cls-13" y1="393.5" x2="997" y2="393.5"/><line class="cls-14" y1="436.5" x2="997" y2="436.5"/><line class="cls-15" y1="528.5" x2="997" y2="528.5"/><line class="cls-15" y1="620.5" x2="997" y2="620.5"/><line class="cls-15" y1="712.5" x2="997" y2="712.5"/><line class="cls-15" y1="804.5" x2="997" y2="804.5"/><line class="cls-15" y1="896.5" x2="997" y2="896.5"/><line class="cls-15" y1="988.5" x2="997" y2="988.5"/><line class="cls-15" y1="1080.5" x2="997" y2="1080.5"/><text class="cls-16" transform="translate(54.5 320.98)">You picked Duke?!<tspan x="0" y="41.87">How is that even possible?</tspan></text><line class="cls-17" x1="1400" y1="422" x2="997" y2="651"/><path id="DNP2" class="cls-18" d="M1252.74,963.32a69.1,69.1,0,0,1-73.26,20.63l-31.17,93.27A167.71,167.71,0,0,0,1328,1026.55Z"/><path id="DNP1" class="cls-19" d="M1269.59,918.18A68.94,68.94,0,0,1,1254,961.91l75.24,63.23a167.47,167.47,0,0,0,25-173.35l-90.06,39.51A69,69,0,0,1,1269.59,918.18Z"/><path id="LOSE" class="cls-20" d="M1177.68,983.38a69.09,69.09,0,0,1-46.27-65.21,70.9,70.9,0,0,1,2-16.74l-95-25.19a167.61,167.61,0,0,0,108.09,200.41Z"/><path id="WIN" class="cls-21" d="M1133.94,899.58a69.11,69.11,0,0,1,129.45-10L1353.45,850a167.44,167.44,0,0,0-314.53,24.4Z"/></svg>