<svg id="Layer_1" data-name="Layer 1" xmlns="http://www.w3.org/2000/svg" xmlns:xlink="http://www.w3.org/1999/xlink" viewBox="0 0 1173.62 560.98"><defs><style>.cls-1{fill:none;}.cls-2{fill:#010101;}.cls-3{fill:#ced1d3;}.cls-4{fill:#137ac0;}.cls-5{fill:#fff;}.cls-6{fill:#74808b;}.cls-7{clip-path:url(#clip-path);}.cls-8{fill:#f89521;}.cls-9{fill:#424143;}.cls-10{clip-path:url(#clip-path-2);}.cls-11{fill:#bdbec0;}.cls-12{fill:#6b757c;}</style><clipPath id="clip-path" transform="translate(-53.38 -76.71)"><rect class="cls-1" x="850.18" y="555.77" width="256.69" height="85.56"/></clipPath><clipPath id="clip-path-2" transform="translate(-53.38 -76.71)"><rect class="cls-1" x="877.17" y="566.69" width="213.3" height="71"/></clipPath></defs><title>riskalyzemadness</title><path class="cls-2" d="M185.38,330.29H110.8L67.2,563.21H237l6.88-24.1h847.93l78-73.43,24.1-135.39-17.21-21.8,36.72-220.3H1043.64l-6.88,25.24s-656.31,1.15-741.22,1.15C209.48,71,120,157,151,239.64,190,343.78,185.38,330.29,185.38,330.29Z" transform="translate(-53.38 -76.71)"/><path class="cls-3" d="M1213.46,88.18l-36.72,220.3,17.21,21.8-24.1,135.39-78,73.43H243.9L237,563.21H67.2l43.6-232.92h74.48a3.06,3.06,0,0,0,.27.57,4.24,4.24,0,0,0-.17-0.57h-0.1c-1.21-2.88-7.33-18.66-34.32-90.64-25.22-67.26,29.41-136.8,97-136.8a104.67,104.67,0,0,1,47.55,11.73c84.91,0,741.22-1.15,741.22-1.15l6.88-25.24h169.82M1227,76.71H1034.88l-2.31,8.45L1028,102c-77.39.13-641.68,1.11-729.78,1.13A115.31,115.31,0,0,0,248,91.37c-37.24,0-72.56,18.89-94.49,50.54-21.21,30.61-26.05,67.7-13.28,101.76,13,34.63,22.54,60,28.32,75.14H101.28l-1.75,9.36L55.92,561.1l-2.54,13.59H245.67l2.38-8.32,4.51-15.77h843.83l3.31-3.12,78-73.43,2.77-2.6,0.67-3.74,24.1-135.39,0.9-5.07-3.19-4-14.06-17.81,35.88-215.29L1227,76.71h0Z" transform="translate(-53.38 -76.71)"/><polygon class="cls-4" points="80.94 288 77.62 307.52 164.98 307.88 159.25 337.34 72.74 336.26 69.7 354.11 173.88 353.98 177.61 331.03 273.43 332.2 258.79 414.21 163.99 413.05 168.15 388.97 63.87 388.42 60.45 408.5 146.35 407.9 140.61 437.72 55.31 438.72 52.26 456.67 155.53 456.67 161.26 429.7 273.13 430.85 284.03 379.79 309.56 380.35 312.26 362.57 286.62 362.29 295.22 312.38 182.2 310.95 186.5 288 80.94 288"/><polygon class="cls-4" points="1091.35 215.71 1094.67 196.19 1007.31 195.83 1013.04 166.37 1099.56 167.45 1102.6 149.6 998.41 149.73 994.68 172.68 898.87 171.5 913.5 89.5 1008.31 90.66 1004.15 114.74 1108.43 115.29 1111.85 95.21 1025.95 95.81 1031.69 65.99 1116.98 64.99 1120.04 47.04 1016.77 47.04 1011.03 74.01 899.16 72.86 888.26 123.92 862.73 123.36 860.03 141.14 885.68 141.42 877.07 191.33 990.09 192.76 985.79 215.71 1091.35 215.71"/><path class="cls-5" d="M424.24,290.48a2.47,2.47,0,0,1-1.93-.8,2.13,2.13,0,0,1-.45-2l10.7-51.07-27,51.07a7.25,7.25,0,0,1-1.84,1.91,4,4,0,0,1-2.42.91H385.23a3.14,3.14,0,0,1-2.13-.8,3,3,0,0,1-1.06-2l-3.78-51.07-12.51,51.07a3.23,3.23,0,0,1-3.45,2.81H338.38a2.24,2.24,0,0,1-1.73-.8,2.13,2.13,0,0,1-.45-2L372,152.94a4.29,4.29,0,0,1,1-1.91,2.39,2.39,0,0,1,1.81-.9h25.54q2.41,0,2.43,2.61l0.57,77.82-1.59,16.89,5.41-16.89,38.64-77.82a3.84,3.84,0,0,1,3.61-2.61H475a1.39,1.39,0,0,1,1.51.9,3.55,3.55,0,0,1,.07,1.91L451.41,287.66a3.23,3.23,0,0,1-3.45,2.81H424.24Z" transform="translate(-53.38 -76.71)"/><path class="cls-5" d="M539,290.48a2.41,2.41,0,0,1-1.92-.91,3.91,3.91,0,0,1-.93-1.91l-1.11-16.29H496.43l-8.12,16.29a7.13,7.13,0,0,1-1.76,1.91,3.75,3.75,0,0,1-2.31.91H462.32q-1.92,0-2.4-.91a1.83,1.83,0,0,1,.12-1.91l67.09-134.72q1.57-2.81,3.3-2.81h22.88q1.73,0,2,3l9.1,134.52a2.05,2.05,0,0,1-.89,1.91,3.86,3.86,0,0,1-2.6.91H539ZM530.58,203L510,244.23h23.27Z" transform="translate(-53.38 -76.71)"/><path class="cls-5" d="M638,290.48a2.57,2.57,0,0,1-2-.91,3.86,3.86,0,0,1-1-1.91l-8.65-49.06h-9.25l-11.05,49.06a3.71,3.71,0,0,1-1.23,1.91,3.25,3.25,0,0,1-2.21.91H578.7a2.09,2.09,0,0,1-1.71-.91,2.21,2.21,0,0,1-.48-1.91l30.35-134.72a3.39,3.39,0,0,1,1.36-2,3.56,3.56,0,0,1,2.09-.8h63.94a5.67,5.67,0,0,1,4.77,2l8.88,11.46a4.35,4.35,0,0,1,1.21,3.12c-0.13.87-.28,1.71-0.46,2.51L677.24,219.9a10,10,0,0,1-1.08,3,9.65,9.65,0,0,1-2.11,2.21L659.31,237l9.1,50.67a2.53,2.53,0,0,1-.43,1.91,2.47,2.47,0,0,1-2.21.91H638Zm12.32-85.06a2.8,2.8,0,0,0,1-1.61l4.12-18.3a2.44,2.44,0,0,0-.15-2l-2.34-3a1.7,1.7,0,0,0-1-.7,8.33,8.33,0,0,0-1.38-.1H630.4l-6.66,29.56h21.11a2.42,2.42,0,0,0,1.54-.6Z" transform="translate(-53.38 -76.71)"/><path class="cls-5" d="M753.85,288.27a9,9,0,0,1-3.22,1.81,10.48,10.48,0,0,1-2.71.4H696a8,8,0,0,1-2.32-.4,4.9,4.9,0,0,1-2.41-1.81L682.59,277a4.39,4.39,0,0,1-1.15-2.92,15.62,15.62,0,0,1,.32-2.31l23.19-103c0.06-.27.28-0.94,0.65-2a7.63,7.63,0,0,1,2.53-3.22l13.8-11.26a9,9,0,0,1,3.25-1.91,10.73,10.73,0,0,1,2.48-.3h52.08a7.42,7.42,0,0,1,2.52.4,5.21,5.21,0,0,1,2.21,1.81l8.72,11.26a5.65,5.65,0,0,1,1.24,2.51,7.83,7.83,0,0,1-.21,2.71l-4.85,21.51a3.54,3.54,0,0,1-1.33,1.91,3.42,3.42,0,0,1-2.12.9H762a2,2,0,0,1-1.81-.9,2.38,2.38,0,0,1-.37-1.91l1.18-5.23a1.62,1.62,0,0,0-.29-1.41l-2.65-3.42a1.52,1.52,0,0,0-1.27-.6h-19.5a2.41,2.41,0,0,0-1.54.6l-4,3.42a4,4,0,0,0-1.21,1.81l-16,71a1.55,1.55,0,0,0,.44,1.61l2.18,2.82H740.5L744,258.1a2.52,2.52,0,0,0,.92-1.41l1.36-6a3.7,3.7,0,0,1,1.23-1.91,3.24,3.24,0,0,1,2.21-.91h23.93a2.1,2.1,0,0,1,1.71.91,2.21,2.21,0,0,1,.47,1.91l-5.12,22.72a3.77,3.77,0,0,1-.62,1.41,16.63,16.63,0,0,1-2.41,2.21Z" transform="translate(-53.38 -76.71)"/><path class="cls-5" d="M849.14,290.48a2.24,2.24,0,0,1-1.73-.8,2.13,2.13,0,0,1-.45-2L858.83,235H828.66L816.8,287.66a3.38,3.38,0,0,1-1.36,2,3.54,3.54,0,0,1-2.09.8H789.42q-2.82,0-2.18-2.81l30.35-134.72a3.23,3.23,0,0,1,3.45-2.81H845a2.26,2.26,0,0,1,1.73.8,2.14,2.14,0,0,1,.45,2l-11.82,52.48h30.16l11.82-52.48a3.39,3.39,0,0,1,1.36-2,3.55,3.55,0,0,1,2.09-.8h23.93q2.81,0,2.18,2.81L876.52,287.66a3.23,3.23,0,0,1-3.45,2.81H849.14Z" transform="translate(-53.38 -76.71)"/><path class="cls-5" d="M486.65,465.3a2.28,2.28,0,0,1-1.87-.81,2.1,2.1,0,0,1-.32-2l14-51.41-30.16,51.41a8,8,0,0,1-2,1.92,4.21,4.21,0,0,1-2.46.91h-16a2.91,2.91,0,0,1-2.06-.81,2.82,2.82,0,0,1-.92-2l-0.4-51.41-15.78,51.41a3.48,3.48,0,0,1-3.61,2.83H401.35a2.06,2.06,0,0,1-1.67-.81,2.09,2.09,0,0,1-.32-2l44.39-135.61a4.71,4.71,0,0,1,1.15-1.92,2.53,2.53,0,0,1,1.86-.91h25.37q2.4,0,2.24,2.63L469.83,405l-2.69,17,6.49-17,43.5-78.33a4.14,4.14,0,0,1,3.75-2.63h25.37a1.28,1.28,0,0,1,1.44.91,3.61,3.61,0,0,1-.05,1.92l-33.8,135.61a3.48,3.48,0,0,1-3.61,2.83H486.65Z" transform="translate(-53.38 -76.71)"/><path class="cls-5" d="M604.3,465.32a2.36,2.36,0,0,1-1.94-.91,3.61,3.61,0,0,1-.85-1.92l-0.08-16.4H561.29l-9.51,16.39a8,8,0,0,1-2,1.92,4.21,4.21,0,0,1-2.46.91H524.6q-2,0-2.44-.91a1.82,1.82,0,0,1,.25-1.92L601,326.87q1.81-2.84,3.61-2.83h23.77q1.8,0,1.92,3l0.61,135.41a2.19,2.19,0,0,1-1.05,1.92,4.33,4.33,0,0,1-2.76.91H604.3Zm-3-88-24.12,41.49h24.17Z" transform="translate(-53.38 -76.71)"/><path class="cls-5" d="M707.12,463.11a9.36,9.36,0,0,1-5.83,2.23H637.76q-2.8,0-2-2.83l39-135.61a3.48,3.48,0,0,1,3.61-2.83h63.52a7.33,7.33,0,0,1,2.38.4,4.59,4.59,0,0,1,2.17,1.82l7.93,11.34a4.91,4.91,0,0,1,1,2.83,9,9,0,0,1-.3,2.43l-29.8,103.63a13.42,13.42,0,0,1-1,2.33,9.93,9.93,0,0,1-2.74,2.93Zm-7.85-30.36a3.55,3.55,0,0,0,1-1.42L721,359.28a1.59,1.59,0,0,0-.19-1.42l-2.4-3.44a1.15,1.15,0,0,0-1.22-.61H696.4l-23.51,81.77h22.77Z" transform="translate(-53.38 -76.71)"/><path class="cls-5" d="M797,465.35a2.36,2.36,0,0,1-1.94-.91,3.61,3.61,0,0,1-.85-1.92l-4.87-67.81-19.5,67.8a3.9,3.9,0,0,1-1.45,1.92,3.59,3.59,0,0,1-2.16.91H742.43a1.85,1.85,0,0,1-1.73-.91,2.34,2.34,0,0,1-.25-1.92l39-135.61a3.48,3.48,0,0,1,3.61-2.83h29.16q2,0,2.18,2.83l4,77.72,0.36,2.23,23-79.95a4.21,4.21,0,0,1,3.61-2.83h23.77q2.8,0,2,2.83l-39,135.61a4.09,4.09,0,0,1-1.35,1.92,3.41,3.41,0,0,1-2.26.91H797Z" transform="translate(-53.38 -76.71)"/><path class="cls-5" d="M854.89,465.36q-2.8,0-2-2.83l39-135.61a3.48,3.48,0,0,1,3.61-2.83h72.71a2.1,2.1,0,0,1,2,2.83L963.28,351a4.21,4.21,0,0,1-3.61,2.83H913.53l-7.45,25.91h35.36q2.8,0,2,2.83l-6.93,24.09a3.48,3.48,0,0,1-3.61,2.83H897.52L890,435.61h46.14a2.11,2.11,0,0,1,2,2.83l-6.93,24.09a4.21,4.21,0,0,1-3.61,2.83H854.89Z" transform="translate(-53.38 -76.71)"/><path class="cls-5" d="M1020.13,463.16a10.32,10.32,0,0,1-3.06,1.62,9.29,9.29,0,0,1-2.77.61H962.56a5.19,5.19,0,0,1-4.55-2.23l-7.93-11.34a5.23,5.23,0,0,1-.84-2.63,8.42,8.42,0,0,1,.27-3l5.65-19.63a3.72,3.72,0,0,1,1.48-2,4,4,0,0,1,2.33-.81h23.57q2.8,0,2,2.83l-2.62,9.11h25.17a2.32,2.32,0,0,0,1.17-.61l4.33-3.24a2.77,2.77,0,0,0,1-1.42L1018,415a2,2,0,0,0-.42-2l-2.18-2.83a1.14,1.14,0,0,0-.83-0.61h-36a5.19,5.19,0,0,1-4.55-2.23l-7.93-11.33a5.89,5.89,0,0,1-1-2.23,6.51,6.51,0,0,1,.27-3l13.74-47.77a10.24,10.24,0,0,1,3.71-5.26l14.45-11.33a9.71,9.71,0,0,1,3.35-1.92,10.76,10.76,0,0,1,2.48-.3h51.74a6.92,6.92,0,0,1,2.58.4,5,5,0,0,1,2,1.82l7.93,11.34a6.16,6.16,0,0,1,.63,5.47L1062,364a3.71,3.71,0,0,1-1.48,2,4,4,0,0,1-2.33.81h-23.57q-2.8,0-2-2.83l2.91-10.12H1010.8a2.53,2.53,0,0,0-1.57.61l-4.13,3.24a3.39,3.39,0,0,0-1.26,1.62l-4.66,16.19a1.68,1.68,0,0,0,.39,1.42l2,2.83h37.35a4,4,0,0,1,4.55,2.23l7.93,11.34a6.37,6.37,0,0,1,1.08,2.83,8.72,8.72,0,0,1-.4,2.43l-13.79,48a11.63,11.63,0,0,1-1.1,2.43,10.16,10.16,0,0,1-2.61,2.83Z" transform="translate(-53.38 -76.71)"/><path class="cls-5" d="M1124.5,463.17a10.32,10.32,0,0,1-3.06,1.62,9.29,9.29,0,0,1-2.77.61h-51.74a5.19,5.19,0,0,1-4.55-2.23l-7.93-11.34a5.23,5.23,0,0,1-.84-2.63,8.42,8.42,0,0,1,.27-3l5.65-19.63a3.72,3.72,0,0,1,1.48-2,4,4,0,0,1,2.33-.81h23.57q2.8,0,2,2.83l-2.62,9.11h25.17a2.32,2.32,0,0,0,1.17-.61l4.33-3.24a2.77,2.77,0,0,0,1-1.42l4.42-15.38a2,2,0,0,0-.42-2l-2.18-2.83a1.14,1.14,0,0,0-.83-0.61h-36a5.19,5.19,0,0,1-4.55-2.23L1070.51,396a5.89,5.89,0,0,1-1-2.23,6.51,6.51,0,0,1,.27-3l13.74-47.77a10.24,10.24,0,0,1,3.71-5.26l14.45-11.33a9.71,9.71,0,0,1,3.35-1.92,10.76,10.76,0,0,1,2.48-.3h51.74a6.92,6.92,0,0,1,2.58.4,5,5,0,0,1,2,1.82l7.93,11.34a6.16,6.16,0,0,1,.63,5.47l-6,20.85a3.71,3.71,0,0,1-1.48,2,4,4,0,0,1-2.33.81H1139q-2.8,0-2-2.83l2.91-10.12h-24.77a2.53,2.53,0,0,0-1.57.61l-4.13,3.24a3.39,3.39,0,0,0-1.26,1.62l-4.66,16.19a1.68,1.68,0,0,0,.39,1.42l2,2.83h37.35a4,4,0,0,1,4.55,2.23l7.93,11.34a6.37,6.37,0,0,1,1.08,2.83,8.72,8.72,0,0,1-.4,2.43l-13.79,48a11.63,11.63,0,0,1-1.1,2.43,10.16,10.16,0,0,1-2.61,2.83Z" transform="translate(-53.38 -76.71)"/><polygon class="cls-4" points="230.94 131.98 196.45 133.19 178.17 103.93 194.36 73.46 228.84 72.26 247.13 101.51 230.94 131.98"/><polygon class="cls-6" points="180.37 163.87 145.89 165.08 127.61 135.82 143.8 105.36 178.28 104.15 196.57 133.41 180.37 163.87"/><polygon class="cls-3" points="233.31 191.72 198.83 192.93 180.54 163.67 196.74 133.21 231.22 132 249.51 161.25 233.31 191.72"/><polygon class="cls-6" points="273.13 231.78 302.97 231.78 257.07 279.39 227.24 279.39 273.13 231.78"/><polygon class="cls-6" points="332.8 404.46 362.63 404.46 335.09 433.72 305.26 433.72 332.8 404.46"/><polygon class="cls-6" points="426.12 404.46 455.95 404.46 428.42 433.72 398.58 433.72 426.12 404.46"/><polygon class="cls-6" points="464.58 404.46 494.41 404.46 466.87 433.72 437.04 433.72 464.58 404.46"/><polygon class="cls-6" points="542.19 404.46 572.02 404.46 544.48 433.72 514.65 433.72 542.19 404.46"/><polygon class="cls-6" points="681.41 404.46 711.24 404.46 683.7 433.72 653.87 433.72 681.41 404.46"/><polygon class="cls-6" points="798.2 404.46 873.93 404.46 846.39 433.72 770.66 433.72 798.2 404.46"/><polygon class="cls-6" points="901.46 404.46 958.83 404.46 931.3 433.72 873.93 433.72 901.46 404.46"/><polygon class="cls-6" points="1007.02 404.46 1064.39 404.46 1036.86 433.72 979.49 433.72 1007.02 404.46"/><polygon class="cls-6" points="738.78 404.46 775.49 404.46 747.96 433.72 711.24 433.72 738.78 404.46"/><polygon class="cls-6" points="581.07 404.46 643.03 404.46 615.49 433.72 553.53 433.72 581.07 404.46"/><polygon class="cls-6" points="386.73 404.46 409.68 404.46 382.14 433.72 359.19 433.72 386.73 404.46"/><polygon class="cls-6" points="322.59 231.78 347.83 231.78 301.94 279.39 276.7 279.39 322.59 231.78"/><g class="cls-7"><path class="cls-8" d="M894.46,600.31a5.6,5.6,0,0,0-3.52-1,6,6,0,0,0-5,2.7,12.1,12.1,0,0,0-2,7.36v14.25h-6.75V593.88h6.75V600H884a10.35,10.35,0,0,1,3-4.9,6.86,6.86,0,0,1,4.58-1.76,5.7,5.7,0,0,1,2.79.55v6.4Z" transform="translate(-53.38 -76.71)"/><path class="cls-8" d="M899.65,587.63a4.06,4.06,0,0,1-2.84-1.08,3.54,3.54,0,0,1-1.18-2.73,3.63,3.63,0,0,1,1.18-2.76,4,4,0,0,1,2.84-1.11,4.13,4.13,0,0,1,2.91,1.11,3.61,3.61,0,0,1,1.19,2.76,3.56,3.56,0,0,1-1.19,2.69,4.1,4.1,0,0,1-2.91,1.12m3.34,36h-6.75V593.88H903v29.79Z" transform="translate(-53.38 -76.71)"/><path class="cls-8" d="M907,622.74v-6.26a13.46,13.46,0,0,0,8.35,2.88q6.11,0,6.11-3.61a2.84,2.84,0,0,0-.52-1.73,5,5,0,0,0-1.41-1.27,11.3,11.3,0,0,0-2.1-1l-2.69-1a28.42,28.42,0,0,1-3.3-1.54,10,10,0,0,1-2.44-1.85,7,7,0,0,1-1.47-2.34A8.62,8.62,0,0,1,907,602a7.05,7.05,0,0,1,1-3.8,8.86,8.86,0,0,1,2.73-2.76,13.12,13.12,0,0,1,3.9-1.69,17.8,17.8,0,0,1,4.51-.57,20.5,20.5,0,0,1,7.39,1.25v5.91a12.45,12.45,0,0,0-7.21-2.15,9.39,9.39,0,0,0-2.31.26,6,6,0,0,0-1.76.73,3.55,3.55,0,0,0-1.13,1.12,2.66,2.66,0,0,0-.41,1.44,3.07,3.07,0,0,0,.41,1.63,3.65,3.65,0,0,0,1.21,1.18,10.35,10.35,0,0,0,1.92.93q1.12,0.42,2.57.92a37.74,37.74,0,0,1,3.45,1.6,11.56,11.56,0,0,1,2.6,1.85,7.23,7.23,0,0,1,1.66,2.38,8.11,8.11,0,0,1,.58,3.21,7.35,7.35,0,0,1-1,4,8.73,8.73,0,0,1-2.79,2.79,13.11,13.11,0,0,1-4,1.64,21,21,0,0,1-4.81.54,20.28,20.28,0,0,1-8.47-1.63" transform="translate(-53.38 -76.71)"/><polygon class="cls-8" points="905.19 546.96 896.63 546.96 885.06 532.65 884.94 532.65 884.94 546.96 878.16 546.96 878.16 502.86 884.94 502.86 884.94 530.82 885.06 530.82 895.99 517.17 904.11 517.17 891.8 531.54 905.19 546.96"/><path class="cls-9" d="M982.7,623.67h-6.55V619H976a9.86,9.86,0,0,1-9,5.35,9.53,9.53,0,0,1-6.88-2.38,8.35,8.35,0,0,1-2.49-6.31q0-8.44,9.72-9.83l8.84-1.25q0-6.37-6.05-6.37a14.38,14.38,0,0,0-9.6,3.67V596a20.92,20.92,0,0,1,10.88-2.79q11.29,0,11.29,11.11v19.38ZM976.18,609l-6.26.87a9.94,9.94,0,0,0-4.38,1.41,4.13,4.13,0,0,0-1.47,3.62,4,4,0,0,0,1.35,3.1,5.23,5.23,0,0,0,3.62,1.21,6.68,6.68,0,0,0,5.1-2.17,7.68,7.68,0,0,0,2-5.45V609Z" transform="translate(-53.38 -76.71)"/><rect class="cls-9" x="934.58" y="502.86" width="6.78" height="44.1"/><path class="cls-9" d="M1026.34,593.88l-13.44,34.56q-4.19,9.25-11.75,9.25a14.07,14.07,0,0,1-3.55-.38V631.7a9.42,9.42,0,0,0,2.91.52,6,6,0,0,0,5.64-3.72l2-4.89-11.84-29.73h7.48l7.1,21.64q0.12,0.41.52,2.15h0.14q0.15-.67.52-2.1l7.45-21.7h6.81Z" transform="translate(-53.38 -76.71)"/><polygon class="cls-9" points="996.46 519.99 980.37 541.69 996.4 541.69 996.4 546.96 970.92 546.96 970.92 544.43 987.35 522.44 972.49 522.44 972.49 517.17 996.46 517.17 996.46 519.99"/><path class="cls-9" d="M1077.75,610.61h-20.31A8.59,8.59,0,0,0,1060,617a9.48,9.48,0,0,0,6.68,2.24,14.73,14.73,0,0,0,8.76-2.85v5.44q-4.08,2.56-10.77,2.56t-10.31-4.06q-3.74-4.06-3.74-11.42a15.87,15.87,0,0,1,4.12-11.33,13.46,13.46,0,0,1,10.23-4.38q6.11,0,9.45,3.93t3.34,10.91v2.59Zm-6.52-4.77a8.71,8.71,0,0,0-1.72-5.66,5.74,5.74,0,0,0-4.65-2,6.55,6.55,0,0,0-4.93,2.12,9.7,9.7,0,0,0-2.49,5.56h13.79Z" transform="translate(-53.38 -76.71)"/><polygon class="cls-8" points="1033.22 502.45 1026.02 502.71 1022.2 496.6 1025.58 490.23 1032.79 489.98 1036.61 496.09 1033.22 502.45"/></g><g class="cls-10"><polygon class="cls-9" points="1022.66 509.12 1015.46 509.37 1011.64 503.26 1015.03 496.89 1022.23 496.64 1026.05 502.75 1022.66 509.12"/><polygon class="cls-11" points="1033.72 514.93 1026.52 515.18 1022.7 509.07 1026.08 502.71 1033.28 502.46 1037.1 508.57 1033.72 514.93"/></g><path class="cls-12" d="M856.25,596.52H854.7l2.18,8.35-1.09,5h1.57l1-4.95,5.73-8.42h-1.77l-4.47,6.83Zm-10.79,7h2.16a3,3,0,0,1,2,.56,2,2,0,0,1,.68,1.62,2.55,2.55,0,0,1-.89,2.08,3.88,3.88,0,0,1-2.54.74H844.4Zm1.23-5.7h1.93a3.13,3.13,0,0,1,1.92.47,1.68,1.68,0,0,1,.61,1.42,2.19,2.19,0,0,1-.85,1.82,3.59,3.59,0,0,1-2.28.67h-2.27Zm-1.3-1.34-2.83,13.37h4.23a5.83,5.83,0,0,0,3.72-1.1,3.67,3.67,0,0,0,1.39-3,2.69,2.69,0,0,0-.56-1.72,3,3,0,0,0-1.61-1v-0.09a3.81,3.81,0,0,0,2.24-1.15,3.14,3.14,0,0,0,.8-2.18q0-3.07-4-3.07h-3.43Zm-18.33,12,2.28-10.68H831a3.59,3.59,0,0,1,2.76,1,4.22,4.22,0,0,1,.94,3,7.87,7.87,0,0,1-.74,3.49,5.49,5.49,0,0,1-2.15,2.36,6.22,6.22,0,0,1-3.25.84h-1.48Zm8-10.66a5.07,5.07,0,0,0-3.84-1.37h-3.13l-2.82,13.37h3.22a8.48,8.48,0,0,0,4.18-1,6.7,6.7,0,0,0,2.74-2.82,8.94,8.94,0,0,0,1-4.22,5.54,5.54,0,0,0-1.31-4m-12.34,10.61h-5.17l1-4.9h4.84l0.27-1.39h-4.82l0.9-4.29h5.17l0.29-1.4h-6.72l-2.83,13.37h6.72Zm-12.08-10.62a3.21,3.21,0,0,1,2,.5,1.94,1.94,0,0,1,.62,1.61,2.71,2.71,0,0,1-1,2.23,4.18,4.18,0,0,1-2.71.78H808q0.13-.6,1.06-5.11h1.52ZM810,604.32l1.91,5.56h1.7L811.46,604q3.37-.93,3.37-4.11,0-3.35-4.08-3.35h-2.92L805,609.89h1.56l1.18-5.56H810Zm-7.59,4.17h-5.17l1-4.9h4.84l0.26-1.39H798.6l0.9-4.29h5.18l0.29-1.4h-6.72l-2.82,13.37h6.72Zm-6.2-12h-1.66L791,604.68q-0.51,1.19-1.2,3.24h-0.08v-0.76q0-1.38-.08-2.78l-0.39-7.86h-1.63l-3.7,7.9q-0.61,1.28-1.43,3.5h-0.05c0.06-1,.09-1.76.09-2.36l0-.81-0.28-8.24h-1.56l0.57,13.37h1.59q4.28-9.24,4.61-10t0.56-1.41h0.05q0,1.34.07,2.58l0.45,8.83h1.56Zm-20.68,2.2a4.27,4.27,0,0,1,.86,2.84,10.2,10.2,0,0,1-.64,3.69A5.94,5.94,0,0,1,774,607.8a3.86,3.86,0,0,1-2.49.89,3.07,3.07,0,0,1-2.43-1,4.15,4.15,0,0,1-.9-2.84,10.13,10.13,0,0,1,.63-3.64,6,6,0,0,1,1.76-2.57,4,4,0,0,1,2.57-.92,2.94,2.94,0,0,1,2.38,1m1.24-1a4.5,4.5,0,0,0-3.51-1.41,5.85,5.85,0,0,0-3.45,1.08,7.18,7.18,0,0,0-2.41,3.07,10.8,10.8,0,0,0-.88,4.41,5.33,5.33,0,0,0,1.31,3.84,4.81,4.81,0,0,0,3.65,1.37A5.84,5.84,0,0,0,775,609a6.76,6.76,0,0,0,2.3-3,11.42,11.42,0,0,0,.8-4.41,5.54,5.54,0,0,0-1.28-3.88m-17.31.14H761a3.1,3.1,0,0,1,2,.51,2,2,0,0,1,.63,1.65,3,3,0,0,1-1,2.44,4.67,4.67,0,0,1-3,.83h-1.22Zm4.68-.48a4.43,4.43,0,0,0-3-.86h-3l-2.83,13.37h1.56l1.12-5.26h1.24a6.92,6.92,0,0,0,4.4-1.2,4.17,4.17,0,0,0,1.5-3.46,3.22,3.22,0,0,0-1-2.58" transform="translate(-53.38 -76.71)"/></svg>