<?xml version="1.0" encoding="utf-8"?>
<!-- Generator: Adobe Illustrator 19.2.1, SVG Export Plug-In . SVG Version: 6.00 Build 0)  -->
<svg version="1.1" id="Layer_1" xmlns="http://www.w3.org/2000/svg" xmlns:xlink="http://www.w3.org/1999/xlink" x="0px" y="0px"
	 viewBox="0 0 500 200" style="enable-background:new 0 0 500 200;" xml:space="preserve">
<style type="text/css">
	.st0{fill:#F7941E;}
	.st1{fill:#414042;}
	.st2{fill:#BCBEC0;}
</style>
<g>
	<path class="st0" d="M45.9,95.2c-1.9-1.5-4.5-2.2-8-2.2c-4.6,0-8.4,2.1-11.4,6.2s-4.6,9.7-4.6,16.8v32.5H6.5V80.6h15.4v14h0.3
		c1.5-4.8,3.8-8.5,6.9-11.2c3.1-2.7,6.6-4,10.5-4c2.8,0,4.9,0.4,6.4,1.3V95.2z"/>
	<path class="st0" d="M57.8,66.3c-2.5,0-4.7-0.8-6.5-2.5c-1.8-1.6-2.7-3.7-2.7-6.2c0-2.5,0.9-4.6,2.7-6.3c1.8-1.7,3.9-2.5,6.5-2.5
		c2.6,0,4.8,0.8,6.6,2.5c1.8,1.7,2.7,3.8,2.7,6.3c0,2.4-0.9,4.4-2.7,6.1C62.6,65.4,60.4,66.3,57.8,66.3z M65.4,148.5H50V80.6h15.4
		V148.5z"/>
	<path class="st0" d="M74.5,146.4v-14.3c5.7,4.4,12.1,6.6,19,6.6c9.3,0,13.9-2.7,13.9-8.2c0-1.5-0.4-2.9-1.2-3.9
		c-0.8-1.1-1.9-2-3.2-2.9c-1.3-0.8-2.9-1.6-4.8-2.3c-1.8-0.7-3.9-1.4-6.1-2.3c-2.8-1.1-5.3-2.3-7.5-3.5c-2.2-1.2-4.1-2.6-5.6-4.2
		c-1.5-1.6-2.6-3.4-3.4-5.3c-0.8-2-1.1-4.3-1.1-7c0-3.3,0.8-6.2,2.3-8.7c1.5-2.5,3.6-4.6,6.2-6.3c2.6-1.7,5.6-3,8.9-3.8
		c3.3-0.9,6.7-1.3,10.3-1.3c6.3,0,11.9,1,16.9,2.9v13.5c-4.8-3.3-10.3-4.9-16.5-4.9c-1.9,0-3.7,0.2-5.3,0.6c-1.6,0.4-2.9,1-4,1.7
		c-1.1,0.7-2,1.6-2.6,2.6c-0.6,1-0.9,2.1-0.9,3.3c0,1.5,0.3,2.7,0.9,3.7c0.6,1,1.5,1.9,2.8,2.7c1.2,0.8,2.7,1.5,4.4,2.1
		c1.7,0.6,3.7,1.3,5.9,2.1c2.9,1.2,5.5,2.4,7.9,3.6c2.3,1.2,4.3,2.6,5.9,4.2c1.6,1.6,2.9,3.4,3.8,5.4c0.9,2.1,1.3,4.5,1.3,7.3
		c0,3.5-0.8,6.5-2.4,9c-1.6,2.6-3.7,4.7-6.4,6.4c-2.7,1.7-5.7,2.9-9.2,3.7c-3.5,0.8-7.1,1.2-11,1.2
		C86.3,150.1,79.9,148.8,74.5,146.4z"/>
	<path class="st0" d="M192.1,148.5h-19.5l-26.4-32.6H146v32.6h-15.5V47.9H146v63.8h0.3l24.9-31.1h18.5l-28.1,32.8L192.1,148.5z"/>
	<path class="st1" d="M247.2,148.5h-14.9v-10.6H232c-4.7,8.1-11.6,12.2-20.6,12.2c-6.7,0-11.9-1.8-15.7-5.4
		c-3.8-3.6-5.7-8.4-5.7-14.4c0-12.8,7.4-20.3,22.2-22.4l20.2-2.9c0-9.7-4.6-14.5-13.8-14.5c-8.1,0-15.4,2.8-21.9,8.4V85.3
		c7.2-4.2,15.4-6.4,24.8-6.4c17.2,0,25.7,8.4,25.7,25.3V148.5z M232.3,115.1l-14.3,2c-4.4,0.6-7.8,1.6-10,3.2
		c-2.2,1.6-3.4,4.3-3.4,8.3c0,2.9,1,5.2,3.1,7.1c2.1,1.8,4.8,2.8,8.3,2.8c4.7,0,8.6-1.6,11.6-4.9c3.1-3.3,4.6-7.4,4.6-12.4V115.1z"
		/>
	<path class="st1" d="M274.6,148.5h-15.5V47.9h15.5V148.5z"/>
	<path class="st1" d="M346.7,80.6l-30.7,78.8c-6.4,14.1-15.3,21.1-26.8,21.1c-3.2,0-5.9-0.3-8.1-0.9v-12.8c2.4,0.8,4.6,1.2,6.6,1.2
		c5.7,0,10-2.8,12.9-8.5l4.6-11.1l-27-67.8h17.1l16.2,49.4c0.2,0.6,0.6,2.3,1.2,4.9h0.3c0.2-1,0.6-2.6,1.2-4.8l17-49.5H346.7z"/>
	<path class="st1" d="M400.3,87l-36.7,49.5h36.6v12H342v-5.8l37.5-50.2h-33.9v-12h54.7V87z"/>
	<path class="st1" d="M464,118.7h-46.3c0.2,6.3,2.1,11.1,5.8,14.5c3.7,3.4,8.8,5.1,15.2,5.1c7.3,0,13.9-2.2,20-6.5v12.4
		c-6.2,3.9-14.4,5.8-24.5,5.8c-10,0-17.8-3.1-23.5-9.3c-5.7-6.2-8.5-14.9-8.5-26c0-10.6,3.1-19.2,9.4-25.8c6.3-6.7,14-10,23.3-10
		c9.3,0,16.5,3,21.6,9c5.1,6,7.6,14.3,7.6,24.9V118.7z M449.1,107.8c0-5.5-1.3-9.8-3.9-12.9c-2.6-3.1-6.1-4.6-10.6-4.6
		c-4.4,0-8.2,1.6-11.2,4.8c-3.1,3.2-5,7.5-5.7,12.7H449.1z"/>
</g>
<g>
	<polygon class="st0" points="484.2,47 467.7,47.6 459,33.6 466.7,19.1 483.2,18.5 491.9,32.5 	"/>
	<polygon class="st1" points="460.1,62.2 443.6,62.8 434.9,48.8 442.6,34.3 459.1,33.7 467.8,47.7 	"/>
	<polygon class="st2" points="485.3,75.4 468.9,76 460.1,62.1 467.9,47.6 484.3,47 493,60.9 	"/>
</g>
<g>
</g>
<g>
</g>
<g>
</g>
<g>
</g>
<g>
</g>
<g>
</g>
</svg>
