<?xml version="1.0" encoding="UTF-8" standalone="no"?>
<svg width="47px" height="39px" viewBox="0 0 47 39" version="1.1" xmlns="http://www.w3.org/2000/svg" xmlns:xlink="http://www.w3.org/1999/xlink">
    <!-- Generator: Sketch 3.6.1 (26313) - http://www.bohemiancoding.com/sketch -->
    <title>Shape</title>
    <desc>Created with Sketch.</desc>
    <defs></defs>
    <g id="Page-1" stroke="none" stroke-width="1" fill="none" fill-rule="evenodd">
        <g id="t" transform="translate(-1.000000, 0.000000)" fill="#FFFFFF">
            <path d="M46.1,1.3 C44.3,2.4 42.2,3.2 40.1,3.6 C38.4,1.7 35.9,0.6 33.1,0.6 C27.8,0.6 23.6,4.9 23.6,10.1 C23.6,10.8 23.7,11.6 23.8,12.3 C15.9,11.9 8.9,8.1 4.2,2.4 C3.4,3.8 2.9,5.4 2.9,7.2 C2.9,10.5 4.6,13.4 7.1,15.1 C5.5,15.1 4.1,14.6 2.8,13.9 L2.8,14 C2.8,18.6 6.1,22.5 10.4,23.3 C9.6,23.5 8.8,23.6 7.9,23.6 C7.3,23.6 6.7,23.5 6.1,23.4 C7.3,27.2 10.8,29.9 15,30 C11.7,32.6 7.6,34.1 3.2,34.1 C2.4,34.1 1.7,34.1 0.9,34 C5.1,36.7 10.1,38.3 15.5,38.3 C33,38.3 42.6,23.8 42.6,11.2 L42.6,10 C44.5,8.7 46.1,7 47.3,5.1 C45.6,5.9 43.8,6.4 41.8,6.6 C43.9,5.4 45.4,3.5 46.1,1.3 L46.1,1.3 Z" id="Shape"></path>
        </g>
    </g>
</svg>