<?xml version="1.0" encoding="utf-8"?>
<!-- Generator: Adobe Illustrator 19.2.1, SVG Export Plug-In . SVG Version: 6.00 Build 0)  -->
<svg version="1.1" id="Layer_1" xmlns="http://www.w3.org/2000/svg" xmlns:xlink="http://www.w3.org/1999/xlink" x="0px" y="0px"
	 viewBox="0 0 48 48" style="enable-background:new 0 0 48 48;" xml:space="preserve">
<style type="text/css">
	.st0{fill:#8C8E92;}
</style>
<g>
	<path class="st0" d="M46.1,6.3c-1.8,1.1-3.9,1.9-6,2.3c-1.7-1.9-4.2-3-7-3c-5.3,0-9.5,4.3-9.5,9.5c0,0.7,0.1,1.5,0.2,2.2
		c-7.9-0.4-14.9-4.2-19.6-9.9c-0.8,1.4-1.3,3-1.3,4.8c0,3.3,1.7,6.2,4.2,7.9c-1.6,0-3-0.5-4.3-1.2c0,0,0,0.1,0,0.1
		c0,4.6,3.3,8.5,7.6,9.3c-0.8,0.2-1.6,0.3-2.5,0.3c-0.6,0-1.2-0.1-1.8-0.2c1.2,3.8,4.7,6.5,8.9,6.6c-3.3,2.6-7.4,4.1-11.8,4.1
		c-0.8,0-1.5,0-2.3-0.1c4.2,2.7,9.2,4.3,14.6,4.3c17.5,0,27.1-14.5,27.1-27.1c0-0.4,0-0.8,0-1.2c1.9-1.3,3.5-3,4.7-4.9
		c-1.7,0.8-3.5,1.3-5.5,1.5C43.9,10.4,45.4,8.5,46.1,6.3z"/>
</g>
</svg>
