<?xml version="1.0" encoding="utf-8"?>
<!-- Generator: Adobe Illustrator 19.2.1, SVG Export Plug-In . SVG Version: 6.00 Build 0)  -->
<svg version="1.1" xmlns="http://www.w3.org/2000/svg" xmlns:xlink="http://www.w3.org/1999/xlink" x="0px" y="0px"
	 viewBox="0 0 600 640" style="enable-background:new 0 0 600 640;" xml:space="preserve">
<style type="text/css">
	.st0{display:none;}
	.st1{display:inline;fill:#9B1E22;}
	.st2{display:inline;fill:#0B1432;}
	.st3{display:inline;fill:#1F3C71;}
	.st4{display:inline;fill:#6CCCF4;}
	.st5{fill:#33435F;}
	.st6{fill:#FFFFFF;}
	.st7{fill:#98B6E0;}
	.st8{display:inline;fill:#F27625;}
	.st9{display:inline;fill:#222454;}
</style>
<g id="Layer_2" class="st0">
	<path class="st1" d="M411.8,569.2c-41.8,0-83.6,0-125.3,0l-69.4-77c0-19.3,0-38.6,0-58c0-0.8,0-1.5-0.1-2.4c-0.9,0-1.5,0-2.2,0
		c-7.9,0-15.8,0-23.7,0c-1.5,0-2.5-0.4-3.6-1.5c-18.5-19.9-37-39.8-55.5-59.6c-3.8-4.1-7.5-8.1-11.3-12.1c-0.4-0.4-0.7-1.2-1.5-1
		c0-70.8,0-141.6,0-212.4L189,70.8c41.9,0,83.8,0,125.7,0c0.5,0.7,1,1.4,1.6,2.1c22.1,23.7,44.2,47.5,66.3,71.2
		c0.8,0.9,1.2,1.8,1.2,3c0,69.5,0,138.9,0,208.4c0,1.2-0.3,2.1-1.2,3c-22.4,24-44.8,48.1-67.2,72.2c-0.8,0.9-1.6,1.2-2.8,1.2
		c-6.4,0-12.8,0-19.1,0c-0.6,0-1.3,0.1-1.9,0.1c0,0.6-0.1,0.9-0.1,1.3c0,13.8,0,27.6,0,41.4l18.9,19.9c27.5,0,55,0,82.5,0l19-20.9
		c0-77.4,0-154.8,0-232.2c0-0.6,0-1.2,0-1.8c0-0.5,0.1-0.9,0.2-1.5c0.8,0,1.6,0,2.3,0c21.2,0,42.5,0,63.7,0c0.8,0,1.6-0.1,2.3-0.1
		c0,85.8,0,171.7,0,257.5L411.8,569.2z M314.5,336.7c0-30.7,0-61.4,0-92.1c0-26.3,0-52.6,0-78.9l-18.9-20.4c-27.5,0-55,0-82.5,0
		l-19,20.9c0,56.8,0,113.5,0,170.3l17.8,20.7c1.7,0.1,3.3,0,5.2,0c0-39.8,0-79.3,0-119.1c25,0,49.6,0,74.5,0c0,39.7,0,79.3,0,119.1
		c1.5,0,2.8-0.1,4,0L314.5,336.7z"/>
</g>
<g id="Layer_4" class="st0">
	<path class="st2" d="M299.7,293.1c1.9-4.9,3.7-9.6,5.4-14.3c2.1-5.6,4.1-11.2,6.1-16.8c2.4-6.4,4.8-12.9,7.2-19.3
		c2.7-7.1,5.4-14.3,8-21.4c2.6-7,5.2-14.1,7.8-21.1c1.2-3.3,2.5-6.7,3.6-10.1c2.2-6.4-2-11.4-6.7-13.3c-4.7-1.9-4.8-1.8-4.8-6.9
		c0-10.8,0-21.6,0-32.4c0-1.8,0.4-2.4,2.3-2.4c59.7,0.1,119.4,0,179.1,0c1.8,0,2.4,0.4,2.4,2.3c-0.1,11.9-0.1,23.8,0,35.7
		c0,1.1,0,2-1.2,2.6c-8.2,3.8-13.3,10.6-17.3,18.3c-4.6,8.9-7.5,18.5-11,27.8c-2.3,6-4.5,12-6.8,18c-3.6,9.5-7.1,19.1-10.7,28.6
		c-4,10.6-8.1,21.2-12,31.8c-3.8,10-7.5,20.1-11.2,30.1c-4.6,12.1-9.2,24.3-13.7,36.4c-4.3,11.6-8.6,23.2-12.9,34.7
		c-3.7,9.8-7.5,19.5-11.1,29.3c-3.4,9.2-7.1,18.3-10.1,27.7c-0.4,1.4-0.6,2.8-0.7,4.3c-0.1,2.2,0.8,4.2,3,4.8c4.3,1.2,5.2,3.9,5,8.1
		c-0.3,10.4-0.1,20.9-0.1,31.4c0,1.7-0.4,2.2-2.2,2.2c-64.9,0-129.8,0-194.7,0c-1.7,0-2.2-0.5-2.2-2.2c0.1-11.6,0.1-23.3,0-34.9
		c0-1.6,0.4-2.7,2.1-3c0.6-0.1,1.1-0.5,1.7-0.8c4.3-2.1,5.2-4.2,3.8-8.9c-1.8-6-4.1-11.8-6.3-17.7c-3.9-10.3-7.7-20.5-11.6-30.8
		c-3.3-8.9-6.7-17.8-10-26.7c-3.3-8.9-6.7-17.8-10-26.7c-3.3-8.8-6.6-17.6-9.9-26.5c-3.3-8.9-6.7-17.8-10-26.7
		c-3.4-8.9-6.7-17.9-10-26.9c-3.9-10.4-7.8-20.8-11.7-31.3c-3.8-9.9-7.6-19.8-11.3-29.8c-2.2-6-4.3-12.2-6.9-18.1
		c-4.2-9.5-9.7-18-19.4-22.7c-1-0.5-1.3-1.2-1.3-2.3c0-12.1,0.1-24.2,0-36.4c0-1.7,0.8-1.9,2.2-1.8c14.8,0,29.6,0,44.5,0
		c44.7,0,89.5,0,134.2,0c2.9,0,2.9,0,2.9,2.9c0,11.6,0,23.1,0,34.7c0,1.8-0.6,2.7-2.3,3c-2.1,0.5-3.9,1.5-5.5,2.7
		c-3.5,2.5-5,7.5-3.6,11.5c3.6,10.1,7.3,20.1,11.2,30.1c3.5,9.1,6.7,18.3,10.1,27.5c3.6,9.7,7.2,19.5,10.8,29.2
		c1.7,4.6,3.4,9.3,5.1,14C298.8,291.6,299.2,292.2,299.7,293.1z M299.6,319.2c-0.4-0.8-0.5-1.2-0.7-1.6
		c-10.7-28.7-21.4-57.4-31.9-86.1c-4.8-13-10-25.9-14.3-39.1c-3.2-9.9,0.5-18.2,9.9-22.3c1.1-0.5,1.3-1,1.3-2.1
		c0-7.1-0.1-14.3,0-21.4c0-2-0.5-2.5-2.5-2.5c-52.4,0.1-104.7,0-157.1,0c-1.6,0-3.2,0.1-4.8,0c-1.2-0.1-1.5,0.4-1.5,1.5
		c0,7.5,0,15.1,0,22.7c0,0.9,0.3,1.5,1.1,2c2.9,1.7,5.3,4,7.6,6.4c6.2,6.7,10.2,14.7,13.4,23.1c30.4,81.1,60.9,162.2,91.3,243.3
		c2.4,6.4,4.9,12.7,5.3,19.7c0.3,5.3-1.3,9.5-6.2,12.1c-1,0.5-1.4,1.2-1.4,2.4c0.1,7.1,0.1,14.1,0,21.2c0,1.7,0.6,1.9,2,1.9
		c8-0.1,15.9,0,23.9,0c50.9,0,101.8,0,152.7,0c1.9,0,2.4-0.5,2.3-2.4c-0.1-6.9-0.1-13.7,0-20.6c0-1.3-0.3-2-1.5-2.6
		c-4.3-2.2-6.1-5.9-6.1-10.7c0-6.1,1.9-11.8,4-17.4c27.2-72.4,54.3-144.9,81.6-217.3c4.7-12.4,8.9-25,14.3-37.2
		c4-8.9,9.5-16.7,17.9-22.1c0.9-0.6,0.8-1.3,0.8-2.1c0-7.1-0.1-14.3,0-21.4c0-2-0.4-2.5-2.4-2.5c-38,0.1-76.1,0.1-114.1,0.1
		c-15.7,0-31.3,0-47-0.1c-1.9,0-2.2,0.6-2.2,2.3c0.1,7.1,0.1,14.1,0,21.2c0,1.4,0.3,2.1,1.7,2.8c5.3,2.5,9.2,6.4,10.2,12.4
		c0.8,4.7-0.4,9.2-2,13.5c-13.1,35.3-26.2,70.6-39.4,105.9C303.9,307.8,301.8,313.3,299.6,319.2z"/>
	<path class="st3" d="M370.8,484.3c3.7,0,3.4,0.5,3.4-3.3c-0.5-0.6-1.1-1.3-1.6-1.9c-5.2-5.6-7.7-12-6.3-19.7
		c0.9-5.3,2.6-10.3,4.4-15.2c31.2-83.1,62.3-166.1,93.5-249.1c4.6-12.3,10.7-23.8,20.7-32.8c1-0.9,0.8-1.9,0.6-2.8
		c-0.2-1-1.3-0.5-2-0.5c-15.4,0-56.1,0-71.4,0l0,0c-20.2,0-40.5,0-60.7-0.1c-1.3,0-1.7,0.4-1.7,1.6c0,1.1,0.6,1.6,1.3,2.1
		c4.9,4,8.3,9.1,9.9,15.2c2.2,7.9,0.8,15.6-2,23.1c-17.9,48.1-35.7,96.2-53.6,144.3c-1.9,5-3.7,10-5.7,15.3
		c-0.3-0.8-0.5-1.3-0.7-1.8c-14.6-39.3-29.2-78.6-43.7-118c-5.5-14.8-11.5-29.3-16.2-44.4c-4-13.1-1.3-24.7,9.5-33.8
		c1.1-1,1.2-2.1,0.9-3.1c-0.3-1.1-1.4-0.5-2.1-0.5c-21.6,0-67.7,0-89.3,0l0,0c-14.2,0-28.5,0-42.7-0.1c-1,0-1.5,0.3-1.5,1.4
		c0,1,0.3,1.8,1.1,2.5c1.5,1.3,2.8,2.7,4.1,4.1c7.3,8.3,12.3,18,16.1,28.2c28.8,76.6,57.5,153.2,86.2,229.9
		c3.7,10,7.9,19.8,10.7,30.1c1.1,4.1,1.6,8.3,0.9,12.5c-0.8,5-3.6,8.9-7,12.4c-1.5,1.5-1.5,3.2-0.5,5L370.8,484.3z"/>
	<path class="st4" d="M415.5,158.9L297.8,466.7L180.4,158.9h-16.7c39.2,101.2,78.4,206.9,117.6,308.1c2.3,5.8,4.5,11.6,6.8,17.7
		l19.9-0.1c0.9-2.4,1.8-5.1,2.7-7.4c39.8-102.8,81.7-215.2,121.6-318.2H415.5z"/>
</g>
<g id="Layer_3">
	<g>
		<path class="st5" d="M439.6,307.6c0.1,14.7,0.5,27.1,1.8,39.6c0.3,3.1,0.3,3.1,3,1.7c10.3-5.1,20.3-10.7,30.4-16.2
			c1.6-0.9,2.4-0.9,3.6,0.7c14.6,20.4,29.3,40.8,44,61.1c1,1.4,0.9,2.1-0.6,3c-17.1,10.4-34,21.1-51.9,30.1c-2.2,1.1-2.2,2-1.1,3.9
			c4.7,8.4,9.2,16.9,13.8,25.3c0.8,1.5,1,2.3-0.9,3.1c-23.9,9.8-47.7,19.6-71.5,29.5c-1.7,0.7-2.7,0.6-4-0.9
			c-7.6-8.9-15.3-17.6-22.8-26.5c-1.4-1.6-2.7-1.8-4.6-1.4c-25.7,5.6-51.7,7.9-77.9,7c-20.6-0.7-41-2.6-61.2-6.6
			c-2.6-0.5-5.3-0.9-7.8-1.7c-1.8-0.5-2.5,0.2-3.2,1.7c-4.6,9.7-9.4,19.4-13.9,29.1c-0.7,1.5-1.2,1.7-2.7,1.1
			c-25.2-10.5-50.4-20.9-75.7-31.3c-1.7-0.7-2.1-1.3-1.1-3c4.8-8.7,9.6-17.5,14.3-26.3c2.1-4,2.1-3.1-1.4-5.4
			c-20-13.2-37.2-29.3-50.3-49.4c-12.7-19.5-20.8-40.6-21.8-64.1c-0.9-20.4,4.3-39.5,13.3-57.6c12.7-25.5,31.7-45.4,54.9-61.5
			c3.2-2.2,6.5-4.4,9.8-6.4c1.4-0.9,1.6-1.7,0.9-3.2c-4.2-9.3-9.2-18.1-13.8-27.1c-1.6-3-1.6-3.1,1.6-4.2
			c23.5-8.2,47-16.4,70.4-24.7c1.8-0.6,2.4,0.1,3.2,1.2c5.9,7.9,11.9,15.8,17.7,23.8c1.5,2.1,2.9,2.7,5.5,2.2
			c28.5-5.5,57.3-7.4,86.3-6.5c18.9,0.6,37.6,3,56,7.1c2,0.4,2.9,0,3.8-1.8c4.5-8.8,9.9-17.1,14.9-25.6c0.8-1.3,1.5-1.3,2.8-0.9
			c24.1,8.5,48.3,17,72.5,25.4c2.4,0.8,2.2,1.6,1.3,3.4c-4.9,9.3-10,18.5-14.3,28c-1,2.1-0.7,3.1,1.4,4.3
			c16.7,9.7,31.9,21.5,46.7,33.8c6.3,5.2,12.7,10.4,19.1,15.5c1.6,1.2,1.8,1.8,0.3,3.4c-18,19.1-36,38.2-53.9,57.4
			c-1.1,1.2-1.8,1.2-3.1,0.3c-10-6.9-20-13.7-30-20.4c-0.6-0.4-1-1.2-1.8-0.9c-0.8,0.3-0.4,1.3-0.4,1.9
			C439.9,289,439.7,299.4,439.6,307.6z M427.3,309.5c0-17.4,1.1-34.7,3.3-51.9c0.3-2.6,1-2.3,2.8-1.2c12.5,8.5,25.1,16.9,37.6,25.4
			c1.5,1,2.3,1.2,3.7-0.3c11.8-12.7,23.7-25.4,35.6-38c3.5-3.8,3.5-3.8-0.6-7.1c-19.6-16.2-39.3-32.1-62-43.9
			c-1.4-0.8-1.3-1.5-0.8-2.8c3.6-9.5,7.8-18.7,12.7-27.6c1-1.8,0.9-2.5-1.2-3.3c-16.5-5.7-32.9-11.5-49.3-17.3
			c-2-0.7-2.8-0.2-3.7,1.4c-4.8,7.9-9.4,16-13.3,24.4c-0.9,1.9-1.8,2.3-3.8,1.8c-15.4-4.2-31.1-6.9-47-8.2c-36.3-3-72.2-0.8-107.8,7
			c-1.9,0.4-2.9,0-4-1.5c-5.9-8-11.8-15.8-17.7-23.8c-0.9-1.2-1.6-1.7-3.2-1.1c-16.5,5.9-33,11.7-49.6,17.4c-2,0.7-2,1.4-1.1,3
			c4.7,8.4,8.6,17.2,12.2,26.1c0.8,1.9,0.4,2.8-1.4,3.7c-10.9,5.8-21,12.7-30.5,20.6c-18.8,15.8-33.6,34.5-42.7,57.5
			c-6.7,17-9.6,34.6-6.4,52.8c4.6,26.1,17.1,48.1,35.1,67.1c11.7,12.5,25.2,22.8,40.1,31.3c1.9,1.1,2.6,2,1.5,4.3
			c-4.3,8.5-8.5,17-13.3,25.3c-0.9,1.7-1.2,2.5,1,3.4c17.4,7,34.7,14.2,52,21.4c1.7,0.7,2.4,0.5,3.2-1.2c4.2-9.1,8.6-18.2,12.8-27.3
			c0.8-1.6,1.4-2.2,3.3-1.7c22,5.7,44.5,8.6,67.2,9.8c31,1.7,61.6-0.7,91.7-8c1.6-0.4,2.4,0,3.4,1.1c7.3,8.5,14.7,16.9,22,25.5
			c1.4,1.6,2.4,2,4.4,1.2c16.8-7,33.7-14,50.6-20.9c1.9-0.8,1.9-1.4,1-3c-4.7-8.3-9.1-16.7-13.3-25.3c-0.8-1.5-0.9-2.3,1-3.2
			c17.6-8.3,34.3-18,50.9-28.2c1.9-1.2,1.8-1.9,0.6-3.6c-9.9-13.6-19.7-27.2-29.5-41c-1.4-1.9-2.3-1.9-4.2-0.9
			c-11.8,6.6-23.8,12.8-36.1,18.5c-2,0.9-2.6,0.7-3-1.6C428.4,347.1,427.4,328.3,427.3,309.5z"/>
		<path class="st6" d="M427.3,309.5c0.1,18.8,1.1,37.5,4.4,56.1c0.4,2.2,0.9,2.5,3,1.6c12.3-5.7,24.3-11.9,36.1-18.5
			c1.9-1.1,2.8-1,4.2,0.9c9.7,13.7,19.6,27.4,29.5,41c1.2,1.6,1.3,2.4-0.6,3.6c-16.5,10.2-33.3,19.9-50.9,28.2
			c-1.8,0.9-1.7,1.7-1,3.2c4.2,8.6,8.5,17,13.3,25.3c0.9,1.6,0.9,2.3-1,3c-16.9,6.9-33.7,13.8-50.6,20.9c-2,0.9-3.1,0.4-4.4-1.2
			c-7.3-8.5-14.7-17-22-25.5c-1-1.1-1.8-1.5-3.4-1.1c-30.2,7.3-60.8,9.7-91.7,8c-22.7-1.2-45.2-4.1-67.2-9.8c-2-0.5-2.6,0.1-3.3,1.7
			c-4.2,9.1-8.6,18.2-12.8,27.3c-0.8,1.7-1.5,1.9-3.2,1.2c-17.3-7.2-34.7-14.4-52-21.4c-2.3-0.9-2-1.8-1-3.4
			c4.7-8.3,9-16.8,13.3-25.3c1.1-2.2,0.5-3.1-1.5-4.3c-14.8-8.5-28.3-18.8-40.1-31.3c-18-19.1-30.5-41-35.1-67.1
			c-3.2-18.3-0.3-35.8,6.4-52.8c9-23,23.9-41.7,42.7-57.5c9.4-7.9,19.6-14.8,30.5-20.6c1.7-0.9,2.2-1.8,1.4-3.7
			c-3.6-8.9-7.5-17.7-12.2-26.1c-0.9-1.6-0.9-2.3,1.1-3c16.6-5.7,33.1-11.5,49.6-17.4c1.6-0.6,2.3-0.1,3.2,1.1
			c5.9,7.9,11.9,15.8,17.7,23.8c1.1,1.5,2.1,1.9,4,1.5c35.6-7.8,71.5-10,107.8-7c15.9,1.3,31.6,4,47,8.2c2,0.6,2.9,0.2,3.8-1.8
			c3.9-8.4,8.5-16.4,13.3-24.4c1-1.6,1.8-2.1,3.7-1.4c16.4,5.9,32.8,11.7,49.3,17.3c2.2,0.7,2.3,1.4,1.2,3.3
			c-5,8.8-9.1,18.1-12.7,27.6c-0.5,1.2-0.6,2,0.8,2.8c22.6,11.9,42.4,27.7,62,43.9c4.1,3.4,4.1,3.4,0.6,7.1
			c-11.9,12.7-23.8,25.3-35.6,38c-1.4,1.5-2.2,1.3-3.7,0.3c-12.5-8.5-25.1-16.9-37.6-25.4c-1.7-1.2-2.4-1.4-2.8,1.2
			C428.4,274.8,427.3,292.1,427.3,309.5z M420.8,309.6c-0.2-12.6,0.4-24.4,1.5-36.1c0.8-8.9,1.9-17.8,3.1-26.7
			c0.3-2.2,0.9-2.6,2.8-1.4c5.5,3.6,11.1,7.1,16.6,10.7c8.7,5.8,17.3,11.6,25.9,17.5c1,0.7,1.6,0.9,2.6-0.2
			c3.5-3.9,7.1-7.7,10.7-11.5c6.2-6.6,12.4-13.2,18.7-19.8c1.3-1.3,1.1-2.2-0.3-3.2c-3.6-2.9-7.2-5.8-10.8-8.7
			c-15.9-13.1-32.8-24.7-51.1-34.2c-1.8-0.9-2.3-1.7-1.6-3.7c3.3-9.1,7-18.1,11.5-26.7c0.8-1.6,0.9-2.4-1.1-3
			c-12.5-4.3-25-8.7-37.5-13.1c-1.6-0.6-2.5-0.3-3.4,1.2c-4.7,7.9-9,16-12.7,24.4c-0.9,2.1-1.8,2.3-3.8,1.7
			c-15.6-4.6-31.6-7.4-47.8-9.1c-12.5-1.3-25.1-1.7-37.8-1.4c-10.7,0.3-21.3,0.6-31.9,1.7c-14.7,1.5-29.2,3.6-43.6,7.2
			c-2,0.5-3,0-4.2-1.6c-5.7-7.8-11.5-15.4-17.2-23.1c-1-1.3-1.9-1.7-3.5-1.1c-12.5,4.4-25,8.8-37.5,13.1c-1.9,0.6-2,1.3-1.2,3
			c4.1,8.4,7.9,16.9,11,25.7c0.7,2.1,0.2,2.7-1.5,3.5c-14.8,7.4-28.4,16.6-40.5,27.9c-13.5,12.5-24.5,27-32.2,43.8
			c-4.9,10.7-8.2,21.8-9.2,33.5c-1.5,17.5,2.3,34.1,9.8,49.9c7.9,16.8,19.1,31.2,32.8,43.6c10.5,9.5,21.9,17.5,34.3,24.3
			c3.8,2.1,3.8,2,2,6c-3.7,8.1-7.8,16-12,23.8c-0.8,1.5-0.9,2.3,0.9,3c13.2,5.4,26.3,10.8,39.5,16.2c1.9,0.8,2.8,0.4,3.6-1.5
			c4.2-8.6,8.3-17.2,12-25.9c0.9-2.2,2-2.5,4.2-1.9c24.2,7,49,10,74.1,11c15.8,0.6,31.6,0.4,47.4-1.3c13.7-1.5,27.2-3.9,40.6-7.2
			c3.5-0.9,5.4,0.2,7.5,2.7c6.5,7.7,13.1,15.2,19.6,22.9c1.4,1.6,2.6,1.9,4.6,1.1c13.2-5.5,26.4-11,39.7-16.4
			c1.9-0.8,1.2-1.7,0.6-2.8c-4-7.1-7.6-14.5-11.1-21.9c-2.7-5.5-2.6-5.6,2.9-8.2c0.2-0.1,0.5-0.2,0.7-0.4
			c15.5-7.4,30.6-15.6,45.2-24.7c2.9-1.8,2.9-1.7,1-4.3c-7.2-10-14.5-20-21.6-30.1c-1.3-1.9-2.4-2-4.3-0.9
			c-12.5,7-25.3,13.3-38.5,19.1c-2.4,1.1-3,0.3-3.5-1.8c-2.4-10.9-3.9-21.8-4.9-32.9C421,330.7,420.5,319.8,420.8,309.6z"/>
		<path class="st7" d="M420.8,309.6c-0.3,10.2,0.2,21.2,1.1,32.1c0.9,11.1,2.5,22,4.9,32.9c0.5,2.2,1.1,2.9,3.5,1.8
			c13.1-5.8,26-12.1,38.5-19.1c1.9-1.1,3-1,4.3,0.9c7.1,10.1,14.4,20.1,21.6,30.1c1.9,2.6,1.8,2.5-1,4.3
			c-14.6,9.1-29.7,17.3-45.2,24.7c-0.2,0.1-0.5,0.2-0.7,0.4c-5.5,2.6-5.6,2.6-2.9,8.2c3.6,7.4,7.1,14.8,11.1,21.9
			c0.6,1.1,1.3,2-0.6,2.8c-13.3,5.4-26.5,10.8-39.7,16.4c-2,0.8-3.2,0.5-4.6-1.1c-6.5-7.7-13.2-15.2-19.6-22.9
			c-2.1-2.4-3.9-3.6-7.5-2.7c-13.4,3.3-26.9,5.7-40.6,7.2c-15.8,1.7-31.6,1.9-47.4,1.3c-25.1-1-49.9-4-74.1-11
			c-2.2-0.6-3.3-0.3-4.2,1.9c-3.7,8.8-7.8,17.3-12,25.9c-0.9,1.8-1.7,2.2-3.6,1.5c-13.1-5.5-26.3-10.9-39.5-16.2
			c-1.8-0.7-1.7-1.6-0.9-3c4.2-7.9,8.3-15.7,12-23.8c1.8-4,1.8-3.9-2-6c-12.4-6.7-23.9-14.8-34.3-24.3
			c-13.7-12.5-24.9-26.9-32.8-43.6c-7.5-15.8-11.3-32.4-9.8-49.9c1-11.7,4.4-22.8,9.2-33.5c7.7-16.8,18.7-31.3,32.2-43.8
			c12.1-11.3,25.7-20.5,40.5-27.9c1.7-0.8,2.2-1.4,1.5-3.5c-3.1-8.8-6.9-17.3-11-25.7c-0.8-1.7-0.7-2.3,1.2-3
			c12.5-4.3,25-8.6,37.5-13.1c1.7-0.6,2.5-0.2,3.5,1.1c5.7,7.7,11.5,15.4,17.2,23.1c1.2,1.6,2.2,2.1,4.2,1.6
			c14.3-3.6,28.9-5.7,43.6-7.2c10.6-1.1,21.3-1.4,31.9-1.7c12.6-0.3,25.2,0.1,37.8,1.4c16.2,1.6,32.2,4.5,47.8,9.1
			c2,0.6,2.9,0.4,3.8-1.7c3.6-8.4,8-16.5,12.7-24.4c0.9-1.5,1.8-1.8,3.4-1.2c12.5,4.4,25,8.8,37.5,13.1c2,0.7,1.9,1.5,1.1,3
			c-4.5,8.6-8.1,17.6-11.5,26.7c-0.7,2-0.2,2.8,1.6,3.7c18.3,9.5,35.2,21.1,51.1,34.2c3.6,2.9,7.1,5.9,10.8,8.7
			c1.3,1.1,1.5,1.9,0.3,3.2c-6.3,6.6-12.5,13.2-18.7,19.8c-3.6,3.8-7.3,7.6-10.7,11.5c-1,1.1-1.6,0.9-2.6,0.2
			c-8.6-5.9-17.2-11.7-25.9-17.5c-5.5-3.6-11.1-7.1-16.6-10.7c-1.9-1.2-2.4-0.8-2.8,1.4c-1.3,8.9-2.3,17.8-3.1,26.7
			C421.2,285.2,420.6,297,420.8,309.6z M375.7,359.8c-1.8-16-2.9-31.7-3.1-47.5c-0.2-17.1,0.4-34.1,2-51.1
			c1.1-12.1,2.5-24.2,5.1-36.1c0.5-2.5-0.1-3.4-2.4-4.1c-20.5-6.7-41.6-9-63-9.3c-6.9-0.1-13.8,0.3-20.8,0.8
			c-10.5,0.7-20.8,2-31.2,3.9c-3,0.6-3,0.7-1.2,3.2c17.6,23.1,35.2,46.2,52.9,69.3c10.1,13.1,20.9,25.7,31.9,38
			c8.2,9.1,16.3,18.3,24.5,27.5C372.2,356.1,374,358,375.7,359.8z M243.8,266.7c0.6,8.4,0.8,16.6,1,24.7c0.4,18.5,0.2,37-1.9,55.4
			c-1.6,14.3-3.9,28.5-7.5,42.4c-0.6,2.1,0,2.8,2.1,3.3c20.3,4.9,40.9,7.2,61.7,7.9c14,0.5,27.9,0.3,41.8-1
			c3.7-0.3,7.3-0.8,11.6-1.3C315.3,354.7,277.3,312.6,243.8,266.7z M196.7,309.2c0.4-14.9-0.7-29.8-2.2-44.7
			c-0.6-6.2-1.7-12.3-2.5-18.4c-0.2-1.5-0.6-1.9-2-0.9c-12.3,8.6-23,18.6-31.3,31.3c-10.8,16.6-12.2,34.1-5.5,52.5
			c6.7,18.3,19,32.1,35,42.8c2.5,1.7,2.9,1.6,3.4-1.6c1.6-9.1,3.1-18.2,3.8-27.4C196.5,331.6,197,320.4,196.7,309.2z"/>
		<path class="st6" d="M375.7,359.8c-1.7-1.9-3.5-3.7-5.2-5.6c-8.2-9.2-16.3-18.4-24.5-27.5c-11.1-12.3-21.9-24.8-31.9-38
			c-17.7-23.1-35.3-46.2-52.9-69.3c-1.9-2.5-1.8-2.6,1.2-3.2c10.3-1.9,20.7-3.1,31.2-3.9c6.9-0.5,13.9-0.9,20.8-0.8
			c21.4,0.3,42.5,2.6,63,9.3c2.3,0.8,3,1.6,2.4,4.1c-2.6,11.9-4,24-5.1,36.1c-1.6,17-2.2,34.1-2,51.1
			C372.8,328.1,373.9,343.8,375.7,359.8z M271,221.4c31.2,40.9,60.9,82,96.2,118.7c0.4-1,0.1-2,0.1-2.9c-0.6-6.7-0.9-13.5-1-20.3
			c-0.5-29.8,0.8-59.5,6.3-88.8c0.3-1.4-0.2-1.9-1.5-2.2c-6.1-1.6-12.2-3.3-18.4-4.4c-21.8-3.9-43.7-4.1-65.7-2
			C281.8,220,276.7,220.7,271,221.4z"/>
		<path class="st6" d="M243.8,266.7c33.5,45.9,71.5,88,108.8,131.4c-4.2,0.5-7.9,1-11.6,1.3c-13.9,1.3-27.9,1.5-41.8,1
			c-20.8-0.7-41.4-2.9-61.7-7.9c-2.1-0.5-2.6-1.2-2.1-3.3c3.6-13.9,5.9-28.1,7.5-42.4c2.1-18.4,2.3-36.9,1.9-55.4
			C244.6,283.3,244.5,275.1,243.8,266.7z M251.4,286.9c0,4.2-0.1,7.5,0,10.9c0.6,29.4-1.5,58.5-8.2,87.2c-0.6,2.6,1,2.3,2.3,2.6
			c28.2,6,56.8,7.4,85.5,5.9c2.6-0.1,5.2-0.4,8.3-0.6C309.6,357.8,278.8,324.3,251.4,286.9z"/>
		<path class="st6" d="M196.7,309.2c0.3,11.2-0.2,22.4-1.1,33.6c-0.8,9.2-2.2,18.3-3.8,27.4c-0.6,3.1-0.9,3.2-3.4,1.6
			c-16-10.7-28.4-24.4-35-42.8c-6.7-18.4-5.3-35.9,5.5-52.5c8.2-12.7,19-22.7,31.3-31.3c1.4-1,1.8-0.6,2,0.9
			c0.8,6.1,1.9,12.3,2.5,18.4C196.1,279.4,197.1,294.3,196.7,309.2z M186.5,362.4c5.3-35.7,4.8-70.8,0.3-106.4
			c-0.8,0.5-1.2,0.7-1.5,1c-8.1,6.7-15.3,14.1-20.9,23c-4.2,6.6-7.4,13.6-8.3,21.5c-1.3,11.4,1.4,22.1,6.3,32.3
			C167.9,345.1,176.1,354.3,186.5,362.4z"/>
		<path class="st5" d="M271,221.4c5.7-0.7,10.8-1.4,15.9-1.9c22-2,43.9-1.8,65.7,2c6.2,1.1,12.3,2.7,18.4,4.4
			c1.2,0.3,1.7,0.8,1.5,2.2c-5.5,29.4-6.8,59-6.3,88.8c0.1,6.8,0.4,13.5,1,20.3c0.1,0.9,0.4,1.9-0.1,2.9
			C331.8,303.4,302.1,262.3,271,221.4z M293.6,231.2c20.1,25.7,38.6,51.8,60.1,75.9c0.1-0.6,0.2-0.8,0.2-1c0.1-23.1,1-46.1,4.8-68.9
			c0.3-1.6-0.6-1.9-1.8-2.2c-5.5-1.1-11-2.2-16.5-2.9C325,230.1,309.6,230.1,293.6,231.2z"/>
		<path class="st5" d="M251.4,286.9c27.4,37.4,58.2,70.9,87.9,105.9c-3,0.2-5.7,0.5-8.3,0.6c-28.7,1.4-57.3,0-85.5-5.9
			c-1.3-0.3-3,0-2.3-2.6c6.8-28.7,8.8-57.8,8.2-87.2C251.4,294.4,251.4,291.1,251.4,286.9z M313.6,381.8
			c-16.9-19.8-33.8-38.9-50-58.8c-0.2,0.5-0.3,0.8-0.3,1c-0.5,17.4-2.4,34.6-5.7,51.7c-0.3,1.7,0.5,1.9,1.8,2.1
			c7.4,1.2,14.8,2.2,22.2,2.8C292.1,381.5,302.6,382,313.6,381.8z"/>
		<path class="st5" d="M186.5,362.4c-10.4-8.1-18.6-17.2-24.1-28.6c-4.9-10.2-7.6-20.9-6.3-32.3c0.9-7.9,4.1-14.9,8.3-21.5
			c5.6-8.9,12.8-16.4,20.9-23c0.3-0.3,0.7-0.5,1.5-1C191.3,291.5,191.8,326.6,186.5,362.4z M177.2,334.6c1-17.2,1.2-34-0.1-51.2
			C164.7,298.8,165.3,316.5,177.2,334.6z"/>
	</g>
</g>
<g id="Layer_1" class="st0">
	<polygon class="st8" points="139.8,158.9 139.8,305.6 199.3,364.3 351.4,364.3 351.4,449.1 249.4,449.1 249.4,401 139.8,401 
		139.8,482.5 197.5,539.4 400.1,539.4 460,481 460,335.7 402.1,276.2 249.6,276.2 249.6,191.2 351.1,191.2 351.1,238.6 460,238.6 
		460,159.1 398.5,100.6 199.3,100.6 	"/>
	<path class="st9" d="M398.5,100.6l61.5,58.5v79.5H351.1v-47.4H249.6v85h152.5l57.9,59.5V481l-59.9,58.5H197.5l-57.7-56.9V401h109.6
		v48.1h102v-84.8H199.3l-59.6-58.7V158.9l59.6-58.4H398.5 M401.4,93.4h-2.9H199.3h-2.9l-2.1,2.1l-59.6,58.4l-2.2,2.1v3v146.7v3
		l2.2,2.1l59.6,58.7l2.1,2.1h3h144.8v70.4h-87.6V401v-7.2h-7.2H139.8h-7.2v7.2v81.5v3l2.2,2.1l57.7,56.9l2.1,2.1h3h202.5h2.9
		l2.1-2.1l59.9-58.5l2.2-2.1v-3V335.7v-2.9l-2-2.1l-57.9-59.5l-2.1-2.2h-3H256.8v-70.6h87.1v40.2v7.2h7.2H460h7.2v-7.2v-79.5V156
		l-2.2-2.1l-61.5-58.5L401.4,93.4L401.4,93.4z"/>
</g>
</svg>
